<svg xmlns="http://www.w3.org/2000/svg" width="1024" height="1024"><path d="M898 252v-29c0-89-72-161-161-161H223A161 161 0 0 0 62 223v579c0 88 68 160 151 160h598c83 0 151-72 151-160V383c0-54-25-102-64-131zm0 549c0 53-39 97-87 97H213c-48 0-87-44-87-97V222c0-53 44-96 97-96h514a97 97 0 0 1 96 96v3l-22-2H287a32 32 0 0 0 0 64h524c48 0 87 43 87 96v418z"/><path d="M673 641a32 32 0 0 0 0-65H544v-23a97 97 0 0 0 28-16l121-96a32 32 0 0 0-40-50l-121 96a32 32 0 0 1-40 0l-121-97a32 32 0 0 0-40 51l121 96c9 7 18 12 28 16v23H351a32 32 0 0 0 0 65h129v64H351a32 32 0 0 0 0 64h129v32a32 32 0 0 0 64 0v-32h129a32 32 0 0 0 0-64H544v-65h129z"/></svg>