<?xml version="1.0" encoding="utf-8"?>
<!-- Generator: Adobe Illustrator 16.0.0, SVG Export Plug-In . SVG Version: 6.00 Build 0)  -->
<!DOCTYPE svg PUBLIC "-//W3C//DTD SVG 1.1//EN" "http://www.w3.org/Graphics/SVG/1.1/DTD/svg11.dtd">
<svg version="1.1" id="图层_1" xmlns="http://www.w3.org/2000/svg" xmlns:xlink="http://www.w3.org/1999/xlink" x="0px" y="0px"
	 width="1024px" height="1024px" viewBox="0 0 1024 1024" enable-background="new 0 0 1024 1024" xml:space="preserve">
<path d="M956.176,765.001l-79.854,68L900.277,935c1.996,8-0.997,16-7.985,21c-2.994,3.001-7.985,4-11.979,4
	c-3.992,0-6.986-0.999-9.981-3l-88.838-55l-89.837,55c-6.987,4-15.972,4-21.961-1s-9.981-13-7.985-21l23.957-101.999l-79.855-68
	c-5.989-5.001-8.983-14-5.989-21.001c1.997-8,8.983-13,16.969-13.999L721.603,722l39.928-97c2.995-7,9.982-12,17.967-12
	c7.986,0,14.974,5,17.969,12l39.927,97l104.809,8.001C950.188,731,957.175,736,959.171,744
	C964.162,751.001,962.166,759,956.176,765.001L956.176,765.001z M616.792,426C587.846,464,560.894,501,568.88,586.001
	C569.877,597,579.859,605,590.84,604s18.965-11,17.967-22.001C602.817,512,621.783,486,649.733,450c9.981-14,21.96-30,32.94-49
	c17.967-33,23.955-59,15.971-80c-2.995-8-8.983-19-20.962-27c10.979-75-0.999-133-33.938-173c-32.94-39-86.843-59-159.711-59
	c-72.868,0-125.771,20-156.715,59c-30.944,39-38.93,97-23.957,173c-10.979,7-18.966,17-23.956,29c-7.986,21-2.995,47,14.973,79
	c10.98,19,24.955,37.999,37.931,56c40.926,55.001,63.884,91,38.93,126c-23.957,34-41.924,39-79.856,48
	c-27.949,8.001-63.883,17.001-112.795,42C94.739,716.001,55.811,807,62.798,944c0.998,10.001,9.981,18,20.962,18h486.117
	c10.98,0,19.965-9,19.965-20s-8.984-20-19.965-20H102.725c-1.997-110,28.948-180,94.828-213c45.917-23,78.856-32,104.81-39
	c38.93-10,69.874-19,101.815-64c43.92-62-0.999-121-39.927-173c-12.977-18-25.953-35-34.937-51c-14.973-27-13.975-40-11.979-46
	c0.998-2,2.995-8,15.971-13c8.984-4,14.973-14,12.977-23c-16.969-71-11.978-122,12.977-154c21.96-29,63.884-44,124.773-44
	s104.81,15,129.765,45c26.951,32,34.937,84,22.958,154c-1.996,9,2.995,18,11.979,22c9.982,4,11.979,8,12.977,11
	c1.997,5,2.994,19-12.977,47C637.755,399,626.774,413,616.792,426L616.792,426z"/>
</svg>
