<?xml version="1.0" encoding="utf-8"?>
<!-- Generator: Adobe Illustrator 16.0.0, SVG Export Plug-In . SVG Version: 6.00 Build 0)  -->
<!DOCTYPE svg PUBLIC "-//W3C//DTD SVG 1.1//EN" "http://www.w3.org/Graphics/SVG/1.1/DTD/svg11.dtd">
<svg version="1.1"
	 id="svg4205" xmlns:dc="http://purl.org/dc/elements/1.1/" xmlns:cc="http://creativecommons.org/ns#" xmlns:rdf="http://www.w3.org/1999/02/22-rdf-syntax-ns#" xmlns:svg="http://www.w3.org/2000/svg" sodipodi:docname="frame.svg" inkscape:version="0.91 r13725" xmlns:sodipodi="http://sodipodi.sourceforge.net/DTD/sodipodi-0.dtd" xmlns:inkscape="http://www.inkscape.org/namespaces/inkscape"
	 xmlns="http://www.w3.org/2000/svg" xmlns:xlink="http://www.w3.org/1999/xlink" x="0px" y="0px" width="1024px" height="1024px"
	 viewBox="0 0 1024 1024" enable-background="new 0 0 1024 1024" xml:space="preserve">
<g>
	<path d="M897.715,252.351v-29.828C897.715,134,825.649,62,737,62H223.292C134.322,62,62,134,62,222.523v578.953
		C62,890,129.887,962,213.328,962h597.279C894.048,962,962,890,962,801.476V383.238C962,329.172,936.477,281.47,897.715,252.351z
		 M897.715,801.476c0,53.035-39.023,96.238-87.043,96.238H213.328c-48.021,0-87.042-43.203-87.042-96.238V222.523
		c0-53.036,43.521-96.238,97.006-96.238H737c53.166,0,96.429,43.202,96.429,96.238v2.632c-7.523-1.221-14.978-2.441-22.757-2.441
		H287c-17.744,0-32.144,14.399-32.144,32.144C254.858,272.601,269.256,287,287,287h523.672c48.02,0,87.043,43.202,87.043,96.238
		V801.476L897.715,801.476z"/>
	<path d="M672.715,640.571c17.742,0,32.143-14.398,32.143-32.143s-14.398-32.145-32.143-32.145H544.143V552.69
		c9.898-3.536,19.352-8.549,27.965-15.43l120.666-96.555c13.882-11.124,16.071-31.309,5.012-45.195
		c-10.992-13.821-31.178-15.941-45.189-5.013L531.93,486.992c-11.571,9.321-28.286,9.321-39.857,0l-120.664-96.56
		c-13.821-10.994-34.071-8.805-45.192,5.018c-11.058,13.882-8.808,34.071,5.015,45.19l120.664,96.56
		c8.613,6.94,18.065,11.953,27.965,15.489v23.594H351.285c-17.743,0-32.143,14.399-32.143,32.145
		c0,17.743,14.398,32.143,32.143,32.143h128.572v64.286H351.285c-17.743,0-32.143,14.398-32.143,32.144
		c0,17.744,14.398,32.143,32.143,32.143h128.572v32.143c0,17.744,14.398,32.145,32.144,32.145c17.744,0,32.143-14.399,32.143-32.145
		v-32.143h128.572c17.743,0,32.143-14.398,32.143-32.143c0-17.745-14.398-32.144-32.143-32.144H544.143V640.57L672.715,640.571
		L672.715,640.571z"/>
</g>
</svg>
