<svg xmlns="http://www.w3.org/2000/svg" width="1024" height="1024"><path d="M956 765l-80 68 24 102c2 8-1 16-8 21-3 3-8 4-12 4s-7-1-10-3l-88-55-90 55c-7 4-16 4-22-1s-10-13-8-21l24-102-80-68c-6-5-9-14-6-21 2-8 9-13 17-14l105-8 40-97c3-7 10-12 18-12s15 5 18 12l39 97 105 8c8 1 15 6 17 14 5 7 3 15-3 21zM617 426c-29 38-56 75-48 160 1 11 11 19 22 18s19-11 18-22c-6-70 13-96 41-132 10-14 22-30 33-49 18-33 24-59 16-80-3-8-9-19-21-27 11-75-1-133-34-173-33-39-87-59-160-59s-126 20-157 59-39 97-24 173c-11 7-19 17-24 29-8 21-3 47 15 79 11 19 25 38 38 56 41 55 64 91 39 126-24 34-42 39-80 48-28 8-63 17-112 42C95 716 56 807 63 944c1 10 10 18 21 18h486a20 20 0 0 0 0-40H103c-2-110 29-180 95-213 45-23 78-32 104-39 39-10 70-19 102-64 44-62-1-121-40-173-13-18-26-35-35-51-15-27-14-40-12-46 1-2 3-8 16-13 9-4 15-14 13-23-17-71-12-122 13-154 22-29 64-44 125-44s105 15 130 45c27 32 35 84 23 154-2 9 3 18 12 22 10 4 12 8 13 11 2 5 3 19-13 47-11 18-22 32-32 45z"/></svg>