<?xml version="1.0" encoding="iso-8859-1"?>
<!-- Generator: Adobe Illustrator 19.0.0, SVG Export Plug-In . SVG Version: 6.00 Build 0)  -->
<svg version="1.1" id="&#x56FE;&#x5C42;_1" xmlns="http://www.w3.org/2000/svg" xmlns:xlink="http://www.w3.org/1999/xlink" x="0px"
	 y="0px" viewBox="0 0 1024 1025" style="enable-background:new 0 0 1024 1025;" xml:space="preserve">
<g id="XMLID_216_">
	<g id="XMLID_214_">
		<path id="XMLID_246_" style="fill:none;stroke:#000000;stroke-width:1.5;stroke-miterlimit:10;" d="M655.169,882.078"/>
	</g>
	<g id="XMLID_206_">
		<path id="XMLID_245_" style="fill:none;stroke:#000000;stroke-width:1.5;stroke-miterlimit:10;" d="M869.102,651.108"/>
	</g>
	<g id="XMLID_194_">
		<g id="XMLID_205_">
			<g id="XMLID_324_">
				
					<path id="XMLID_244_" style="fill:none;stroke:#000000;stroke-width:1.5;stroke-linecap:square;stroke-linejoin:round;stroke-miterlimit:10;" d="
					M195.204,91.631"/>
			</g>
		</g>
		<g id="XMLID_203_">
			<g id="XMLID_321_">
				
					<path id="XMLID_243_" style="fill:none;stroke:#000000;stroke-width:1.5;stroke-linecap:square;stroke-linejoin:round;stroke-miterlimit:10;" d="
					M928.084,699.461"/>
			</g>
		</g>
		<g id="XMLID_201_">
			<g id="XMLID_316_">
				<path id="XMLID_317_" d="M771.894,667.454c60.693,0,110.067,49.378,110.067,110.067s-49.375,110.067-110.067,110.067
					s-110.067-49.378-110.067-110.067S711.201,667.454,771.894,667.454 M771.894,593.042c-101.886,0-184.479,82.593-184.479,184.479
					c0,101.88,82.593,184.479,184.479,184.479c101.883,0,184.479-82.599,184.479-184.479
					C956.373,675.635,873.777,593.042,771.894,593.042L771.894,593.042z"/>
			</g>
		</g>
		<g id="XMLID_195_">
			<g id="XMLID_200_">
				<g id="XMLID_222_">
					<rect id="XMLID_240_" x="747.093" y="706.222" width="49.608" height="142.622"/>
				</g>
			</g>
			<g id="XMLID_196_">
				<g id="XMLID_221_">
					<rect id="XMLID_238_" x="700.586" y="752.729" width="142.622" height="49.608"/>
				</g>
			</g>
		</g>
	</g>
	<g id="XMLID_192_">
		<path id="XMLID_239_" d="M655.169,919.284H166.843c-54.719,0-99.215-44.521-99.215-99.215V161.215
			c0-54.694,44.497-99.215,99.215-99.215h640.25c54.719,0,99.215,44.521,99.215,99.215v489.876h-74.412V161.215
			c0-13.662-11.118-24.804-24.804-24.804h-640.25c-13.686,0-24.804,11.142-24.804,24.804v658.853
			c0,13.661,11.118,24.804,24.804,24.804h488.326V919.284z"/>
	</g>
	<g id="XMLID_191_">
		<line id="XMLID_236_" x1="230.402" y1="243.378" x2="655.169" y2="243.378"/>
		<rect id="XMLID_237_" x="230.402" y="218.574" width="424.766" height="49.608"/>
	</g>
	<g id="XMLID_190_">
		<line id="XMLID_227_" x1="230.402" y1="414.938" x2="655.169" y2="414.938"/>
		<rect id="XMLID_235_" x="230.402" y="390.118" width="424.766" height="49.608"/>
	</g>
	<g id="XMLID_188_">
		<line id="XMLID_218_" x1="230.402" y1="586.498" x2="476.116" y2="586.498"/>
		<rect id="XMLID_223_" x="230.402" y="561.711" width="245.713" height="49.608"/>
	</g>
</g>
</svg>
