<?xml version="1.0" encoding="iso-8859-1"?>
<!-- Generator: Adobe Illustrator 19.0.0, SVG Export Plug-In . SVG Version: 6.00 Build 0)  -->
<svg version="1.1" id="&#x56FE;&#x5C42;_1" xmlns="http://www.w3.org/2000/svg" xmlns:xlink="http://www.w3.org/1999/xlink" x="0px"
	 y="0px" viewBox="0 0 1024 1024" style="enable-background:new 0 0 1024 1024;" xml:space="preserve">
<g id="XMLID_163_">
	<g id="XMLID_175_">
		<path id="XMLID_46_" d="M203.591,68.042"/>
	</g>
	<g id="XMLID_174_">
		<path id="XMLID_31_" d="M677.035,922.611H144.349c-18.663,0-34.295-14.116-36.19-32.685L62.187,438.217
			c-1.042-10.232,2.297-20.463,9.19-28.09s16.721-11.984,27-11.984h827.25c9.947,0,19.469,4.074,26.337,11.274
			s10.469,16.911,9.995,26.858l-14.163,297.003l-72.664-3.458l12.34-258.918h-748.83l38.582,378.951h499.812V922.611z"/>
	</g>
	<g id="XMLID_173_">
		<path id="XMLID_26_" d="M920.191,699.254"/>
	</g>
	<g id="XMLID_168_">
		<path id="XMLID_228_" d="M767.47,667.955c59.343,0,107.622,48.281,107.622,107.622S826.813,883.199,767.47,883.199
			c-59.343,0-107.622-48.281-107.622-107.622S708.127,667.955,767.47,667.955 M767.47,595.197
			c-99.622,0-180.381,80.758-180.381,180.381s80.759,180.381,180.381,180.381S947.851,875.2,947.851,775.577
			S867.092,595.197,767.47,595.197L767.47,595.197z"/>
	</g>
	<g id="XMLID_165_">
		<g id="XMLID_167_">
			<rect id="XMLID_30_" x="743.209" y="705.851" width="48.506" height="139.454"/>
		</g>
		<g id="XMLID_166_">
			<rect id="XMLID_28_" x="697.735" y="751.325" width="139.454" height="48.506"/>
		</g>
	</g>
	<g id="XMLID_164_">
		<path id="XMLID_27_" d="M908.432,451.433h-72.759V274.842H492.391c-10.54,0-20.558-4.547-27.45-12.505L363.453,145.525H186.909
			v305.908h-72.759V124.872c0-28.753,23.4-52.106,52.153-52.106h206.812c16.934,0,32.471,8.005,42.229,21.553l93.625,107.764
			h363.082c20.084,0,36.379,16.295,36.379,36.379V451.433z"/>
	</g>
</g>
</svg>
