<?xml version="1.0" encoding="utf-8"?>
<!-- Generator: Adobe Illustrator 16.0.0, SVG Export Plug-In . SVG Version: 6.00 Build 0)  -->
<!DOCTYPE svg PUBLIC "-//W3C//DTD SVG 1.1//EN" "http://www.w3.org/Graphics/SVG/1.1/DTD/svg11.dtd">
<svg version="1.1" id="图层_1" xmlns="http://www.w3.org/2000/svg" xmlns:xlink="http://www.w3.org/1999/xlink" x="0px" y="0px"
	 width="1024px" height="1024px" viewBox="0 0 1024 1024" enable-background="new 0 0 1024 1024" xml:space="preserve">
<path d="M875.816,878.381c-7.768,8.01-25.524,20.159-25.832,19.673c-82.668,46.846-164.187,46.846-246.162,0.374
	c-0.574,0.548-27.213-18.793-26.153-19.562c-55.046-49.464-83.202-110.227-80.875-183.61
	c2.029-64.344,27.745-118.592,75.116-162.213c91.392-84.143,235.011-78.81,321.344,11.617
	C982.882,638.537,977.863,791.08,875.816,878.381z M726.535,494.233c-115.484,0.13-209.088,93.649-209.074,208.902
	c0.014,115.022,93.552,208.861,208.258,208.925c116.253,0.076,209.704-92.842,209.896-208.646
	C935.794,587.984,841.96,494.107,726.535,494.233z M816.271,716.247h-76.65v76.749c-0.005,7.065-5.729,12.787-12.783,12.783
	c-7.05-0.005-12.762-5.727-12.766-12.783v-76.749h-76.653c-7.053-0.004-12.771-5.734-12.767-12.801
	c0.004-7.057,5.718-12.779,12.767-12.783h76.653v-76.749c0.004-7.064,5.727-12.787,12.781-12.783
	c7.049,0.006,12.763,5.725,12.768,12.783v76.749h76.65c7.055,0.004,12.771,5.735,12.767,12.801
	C829.032,710.521,823.319,716.243,816.271,716.247L816.271,716.247z"/>
<g>
	<path d="M821.918,163.701H203.004c-50.739,0-92.254,41.513-92.254,92.25v42.601c0,23.781,9.123,45.537,24.038,61.941l752.283,3.209
		c16.725-16.719,27.104-39.781,27.104-65.15v-42.599C914.172,205.214,872.656,163.701,821.918,163.701z"/>
	<path d="M257.364,504.951c0,5.515,4.47,9.986,9.983,9.986s9.987-4.472,9.987-9.986l0,0c0-5.515-4.474-9.984-9.987-9.984
		S257.364,499.437,257.364,504.951z"/>
	<path d="M944.698,210.424c9.211-0.412,17.195-7.522,17.121-17.117c-0.209-25.837-10.371-50.949-28.697-69.27
		c-18.314-18.319-43.424-28.481-69.266-28.69c-8.955-0.073-17.531,7.925-17.117,17.117c0.416,9.337,7.52,17.041,17.117,17.118
		c2.66,0.022,5.293,0.184,7.939,0.387c0.178,0.013,0.326,0.023,0.469,0.032c0.053,0.01,0.096,0.019,0.154,0.028
		c1.273,0.225,2.545,0.446,3.811,0.715c2.502,0.531,4.98,1.188,7.42,1.957c1.01,0.317,2.008,0.659,3.004,1.018
		c0.256,0.088,1.439,0.563,2.193,0.855c0.719,0.331,1.637,0.75,1.84,0.853c1.129,0.551,2.24,1.127,3.338,1.729
		c2.008,1.104,3.967,2.285,5.873,3.551c1.041,0.69,2.047,1.418,3.064,2.138c0.041,0.028,0.066,0.048,0.102,0.074
		c0.105,0.092,0.217,0.192,0.355,0.312c1.863,1.643,3.738,3.26,5.5,5.02c1.76,1.764,3.355,3.646,5.02,5.501
		c0.076,0.084,0.129,0.145,0.189,0.214c0.637,0.944,1.346,1.845,1.984,2.786c2.232,3.31,5.471,7.641,6.697,11.638
		c0.127,0.539,0.291,1.171,0.424,1.525c0.439,1.191,0.846,2.395,1.23,3.603c0.771,2.441,1.42,4.918,1.953,7.422
		c0.273,1.264,0.477,2.539,0.715,3.809c0.018,0.073,0.025,0.138,0.045,0.201c0,0.125,0.008,0.262,0.018,0.421
		c0.158,2.654,0.361,5.276,0.389,7.94C927.653,202.258,935.399,210.841,944.698,210.424z"/>
	<path d="M809.125,101.629c0,9.207,7.459,16.668,16.67,16.668c9.203,0,16.666-7.461,16.666-16.668
		c0-9.205-7.463-16.668-16.666-16.668C816.584,84.961,809.125,92.425,809.125,101.629z"/>
	<path d="M928.658,238.297c0,9.206,7.463,16.668,16.67,16.668S962,247.503,962,238.297c0-9.203-7.465-16.668-16.672-16.668
		C936.121,221.628,928.658,229.094,928.658,238.297L928.658,238.297z"/>
	<path d="M158.572,904.794c-0.388-0.01-4.892-0.238-6.935-0.406c-0.538-0.08-1.076-0.168-1.604-0.266
		c-1.275-0.229-2.541-0.492-3.804-0.783c-2.487-0.574-4.958-1.271-7.385-2.084c-1.001-0.334-1.989-0.705-2.986-1.066
		c-0.216-0.08-0.432-0.168-0.647-0.248c-4.111-2.451-8.465-4.287-12.444-7.031c-0.49-0.334-0.966-0.695-1.441-1.049
		c-0.187-0.16-1.629-1.289-1.985-1.588c-1.879-1.625-3.688-3.326-5.413-5.117c-1.636-1.686-3.136-3.469-4.654-5.268
		c-0.07-0.1-0.141-0.195-0.225-0.318c-0.71-1.021-1.429-2.037-2.108-3.078c-1.249-1.924-2.417-3.891-3.499-5.902
		c-0.591-1.104-1.155-2.225-1.693-3.354c-0.406-0.848-0.804-1.49-0.979-1.738c-2.003-3.908-2.858-9.334-3.652-13.393
		c-0.167-0.883-0.397-1.799-0.538-2.709c-0.004-0.404-0.027-1.041-0.084-1.746c-0.217-2.646-0.278-5.293-0.251-7.949
		c0.079-8.955-7.933-17.529-17.116-17.115c-9.343,0.414-17.037,7.518-17.121,17.115c-0.234,25.867,9.727,51.057,27.712,69.664
		c18.025,18.65,43.05,29.018,68.856,29.67c8.959,0.221,17.525-8.037,17.115-17.125C175.264,912.442,168.172,905.03,158.572,904.794z
		 M109.319,879.956C110.207,881.032,110.153,881.122,109.319,879.956L109.319,879.956z M151.219,904.35
		c-0.357-0.025-0.582-0.063-0.578-0.078C150.852,904.3,151.038,904.325,151.219,904.35z"/>
	<path d="M192.205,921.909c0,9.211,7.464,16.666,16.67,16.666s16.666-7.455,16.666-16.666l0,0c0-9.203-7.459-16.666-16.666-16.666
		S192.205,912.706,192.205,921.909z"/>
	<path d="M62.44,788.157c0,9.211,7.464,16.666,16.671,16.666c9.206,0,16.671-7.455,16.671-16.666
		c0-9.203-7.465-16.666-16.671-16.666C69.904,771.491,62.44,778.954,62.44,788.157z"/>
	<path d="M491.319,703.235c0-18.036,2.036-35.596,5.878-52.469l-373.268-0.215c-8.359,13.869-13.181,30.084-13.181,47.367v42.596
		c0,50.74,41.515,92.26,92.254,92.26h327.166C505.622,795.618,491.319,751.1,491.319,703.235z"/>
	<path d="M519.545,591.393c-19.453,0-38.904,0-58.355,0c-9.599,0-16.706-7.844-17.121-17.115
		c-0.414-9.246,8.166-17.125,17.121-17.125c7.5,0,14.999,0,22.498,0c19.488,0,38.972,0,58.458,0
		c43.108-54.375,109.733-89.259,184.515-89.259c73.061,0,138.344,33.294,181.51,85.537c2.671-8.601,4.113-17.728,4.113-27.175
		v-42.604c0-50.737-41.516-92.25-92.25-92.25H201.115c-50.739,0-92.25,41.513-92.25,92.25v42.604
		c0.001,50.729,41.511,92.251,92.25,92.251h305.933C510.653,609.168,514.827,600.113,519.545,591.393z M282.214,566.743
		c-31.298,0-56.668-25.375-56.668-56.67c-0.005-31.298,25.369-56.672,56.668-56.672c31.303,0,56.677,25.374,56.677,56.672
		C338.89,541.368,313.516,566.743,282.214,566.743z M417.341,435.63c-0.414-9.246,8.166-17.12,17.121-17.12
		c4.054,0,8.111,0,12.166,0c28.077,0,56.16,0,84.242,0c9.602,0,16.701,7.843,17.117,17.12c0.414,9.243-8.162,17.117-17.117,17.117
		c-4.059,0-8.105,0-12.166,0c-28.083,0-56.161,0-84.242,0C424.866,452.747,417.756,444.902,417.341,435.63z"/>
</g>
</svg>
