<svg xmlns="http://www.w3.org/2000/svg" viewBox="0 0 1024 1025"><path d="M772 668a110 110 0 0 1 0 220 110 110 0 0 1 0-220m0-75a185 185 0 1 0 0 369 185 185 0 0 0 0-369z"/><path d="M747 706h50v143h-50z"/><path d="M701 753h142v49H701z"/><path d="M655 919H167a99 99 0 0 1-99-99V161a99 99 0 0 1 99-99h640a99 99 0 0 1 99 99v490h-74V161a25 25 0 0 0-25-25H167a25 25 0 0 0-25 25v659a25 25 0 0 0 25 25h488v74z"/><path d="M230 243h425m-425-24h425v49H230zM230 415h425m-425-25h425v50H230zM230 587h246m-246-25h246v49H230z"/></svg>