<svg xmlns="http://www.w3.org/2000/svg" width="1024" height="1024"><path d="M876 878c-8 8-26 20-26 20a234 234 0 0 1-272-19c-55-50-84-110-81-184a223 223 0 0 1 75-162c91-84 235-79 321 12a230 230 0 0 1-17 333zM727 494a209 209 0 1 0 209 209 209 209 0 0 0-209-209zm89 222h-76v77a13 13 0 0 1-26 0v-77h-77a13 13 0 0 1 0-25h77v-77a13 13 0 1 1 26 0v77h76a13 13 0 0 1 0 25zm6-552H203a93 93 0 0 0-92 92v43c0 23 9 45 24 62l752 3a92 92 0 0 0 27-65v-43a93 93 0 0 0-92-92zM257 505a10 10 0 1 0 20 0 10 10 0 0 0-20 0zm688-295c9 0 17-7 17-17a99 99 0 0 0-29-69 99 99 0 0 0-69-29c-9 0-18 8-17 17 0 10 7 18 17 18a116 116 0 0 1 8 0l4 1a80 80 0 0 1 11 3l2 1h2a79 79 0 0 1 9 6l3 2h1l5 5 5 6 2 3c2 3 6 7 7 11v2a84 84 0 0 1 4 11v4l1 8c0 9 8 18 17 17zM809 102a17 17 0 1 0 34 0 17 17 0 0 0-34 0zm120 136a17 17 0 1 0 33 0 17 17 0 0 0-33 0zM159 905a255 255 0 0 1-9-1 80 80 0 0 1-11-3l-3-1h-1l-12-7-2-1-2-2a82 82 0 0 1-5-5l-5-5-2-3a84 84 0 0 1-6-11l-4-14v-4l-1-8c0-9-8-18-17-17-9 0-17 7-17 17a99 99 0 0 0 97 99c9 0 17-8 17-17a17 17 0 0 0-17-17zm-50-25c1 1 1 1 0 0zm42 24zm41 18a17 17 0 1 0 33 0 17 17 0 1 0-33 0zM62 788a17 17 0 1 0 34 0 17 17 0 0 0-34 0z"/><path d="M491 703c0-18 2-35 6-52H124a92 92 0 0 0-13 47v42a93 93 0 0 0 92 93h327a234 234 0 0 1-39-130zm29-112h-59c-9 0-17-8-17-17s8-17 17-17h81a235 235 0 0 1 185-89c73 0 138 33 181 85a92 92 0 0 0 4-27v-42a93 93 0 0 0-92-93H201a93 93 0 0 0-92 93v42a93 93 0 0 0 92 92h306l13-27zm-238-24a57 57 0 1 1 0-114 57 57 0 0 1 0 114zm135-131c0-10 8-18 17-18h97c9 0 17 8 17 18 0 9-8 17-17 17h-97c-9 0-16-8-17-17z"/></svg>