<svg xmlns="http://www.w3.org/2000/svg" viewBox="0 0 1024 1024"><path d="M677 923H144a36 36 0 0 1-36-33L62 438a36 36 0 0 1 36-40h828a36 36 0 0 1 36 38l-14 297-73-3 13-259H139l38 379h500v73z"/><path d="M768 668a108 108 0 0 1 0 215 108 108 0 0 1 0-215m0-73a180 180 0 1 0 0 361 180 180 0 0 0 0-361z"/><path d="M743 706h49v139h-49z"/><path d="M698 751h139v49H698zM908 451h-72V275H492a36 36 0 0 1-27-13L364 146H187v306h-73V125a52 52 0 0 1 52-52h207c17 0 33 8 42 21l94 108h363c20 0 36 16 36 36v214z"/></svg>