<?xml version="1.0" encoding="utf-8"?>
<!-- Generator: Adobe Illustrator 16.0.0, SVG Export Plug-In . SVG Version: 6.00 Build 0)  -->
<!DOCTYPE svg PUBLIC "-//W3C//DTD SVG 1.1//EN" "http://www.w3.org/Graphics/SVG/1.1/DTD/svg11.dtd">
<svg version="1.1" id="图层_1" xmlns="http://www.w3.org/2000/svg" xmlns:xlink="http://www.w3.org/1999/xlink" x="0px" y="0px"
	 width="1024px" height="1024px" viewBox="0 0 1024 1024" enable-background="new 0 0 1024 1024" xml:space="preserve">
<path d="M278,716.546h144V389.272H278V716.546z M314,430.182h72v245.455h-72V430.182z M530,716.546h144V471.091H530V716.546z
	 M566,512h72v163.637h-72V512z M782,716.546h144V348.364H782V716.546z M818,389.272h72v286.364h-72V389.272z M350,307.455
	c26.424,0,49.284-16.363,61.813-40.459l118.367,38.414c0,0.675-0.18,1.33-0.18,2.025c0,45.187,32.235,81.818,72,81.818
	s72-36.631,72-81.818c0-4.214-0.541-8.243-1.08-12.273l124.38-60.586c13.504,20.086,34.456,31.9,56.7,31.97
	c39.765,0,72-36.631,72-81.818c0-45.187-32.235-81.818-72-81.818s-72,36.631-72,81.818c0,4.214,0.541,8.244,1.08,12.273
	L658.7,257.586c-13.507-20.081-34.458-31.888-56.7-31.95c-26.424,0-49.283,16.364-61.813,40.459L421.82,227.682
	c0-0.675,0.18-1.33,0.18-2.025c0-45.187-32.235-81.818-72-81.818s-72,36.631-72,81.818c0,45.187,32.235,81.818,72,81.818V307.455z
	 M854,143.818c19.854,0,36,18.348,36,40.909c0,22.562-16.146,40.909-36,40.909s-36-18.348-36-40.909
	C818,162.166,834.146,143.818,854,143.818z M602,266.545c19.854,0,36,18.348,36,40.909c0,22.561-16.146,40.909-36,40.909
	s-36-18.348-36-40.909C566,284.893,582.146,266.545,602,266.545z M350,184.727c19.854,0,36,18.348,36,40.909
	c0,22.562-16.146,40.909-36,40.909s-36-18.348-36-40.909C314,203.075,330.146,184.727,350,184.727z M62,62h72v40.909H62V62z
	 M62,184.727h72v40.909H62V184.727z M62,307.455h72v40.909H62V307.455z M62,430.182h72v40.909H62V430.182z M62,552.909h72v40.909H62
	V552.909z M62,675.637h72v40.909H62V675.637z M62,798.363h72v40.909H62V798.363z M278,880.182h36V962h-36V880.182z M170,880.182h36
	V962h-36V880.182z M386,880.182h36V962h-36V880.182z M494,880.182h36V962h-36V880.182z M602,880.182h36V962h-36V880.182z
	 M710,880.182h36V962h-36V880.182z M818,880.182h36V962h-36V880.182z M926,880.182h36V962h-36V880.182z"/>
<path d="M206,798.363V62h-36v777.272h792v-40.909H206z"/>
</svg>
