<?xml version="1.0" encoding="utf-8"?>
<!-- Generator: Adobe Illustrator 16.0.0, SVG Export Plug-In . SVG Version: 6.00 Build 0)  -->
<!DOCTYPE svg PUBLIC "-//W3C//DTD SVG 1.1//EN" "http://www.w3.org/Graphics/SVG/1.1/DTD/svg11.dtd">
<svg version="1.1"
	 id="svg4205" xmlns:dc="http://purl.org/dc/elements/1.1/" xmlns:cc="http://creativecommons.org/ns#" xmlns:rdf="http://www.w3.org/1999/02/22-rdf-syntax-ns#" xmlns:svg="http://www.w3.org/2000/svg" sodipodi:docname="android.svg" inkscape:version="0.91 r13725" xmlns:sodipodi="http://sodipodi.sourceforge.net/DTD/sodipodi-0.dtd" xmlns:inkscape="http://www.inkscape.org/namespaces/inkscape"
	 xmlns="http://www.w3.org/2000/svg" xmlns:xlink="http://www.w3.org/1999/xlink" x="0px" y="0px" width="1024px" height="1024px"
	 viewBox="0 0 1024 1024" enable-background="new 0 0 1024 1024" xml:space="preserve">
<sodipodi:namedview  id="namedview4192" borderopacity="1" pagecolor="#ffffff" inkscape:cx="512" guidetolerance="10" showgrid="false" bordercolor="#666666" inkscape:cy="512" objecttolerance="10" gridtolerance="10" inkscape:zoom="0.65039062" inkscape:current-layer="svg4205" inkscape:window-maximized="1" inkscape:window-y="-8" inkscape:window-x="-8" inkscape:window-height="847" inkscape:pageopacity="0" inkscape:window-width="1600" inkscape:pageshadow="2">
	</sodipodi:namedview>
<g>
	<path id="line4176" inkscape:connector-curvature="0" d="M64.969,64.233l-0.736,0.736l894.798,894.797l0.735-0.735L64.969,64.233z"
		/>
	<path id="line4178" inkscape:connector-curvature="0" d="M958.316,62L62,958.315L65.685,962L962,65.684L958.316,62z"/>
	<path id="line4180" inkscape:connector-curvature="0" d="M65.691,62L62,65.672L958.312,962l3.688-3.672L65.691,62z"/>
	<path id="path4182" inkscape:connector-curvature="0" d="M213.735,62C129.965,62,62,129.963,62,213.733v596.535
		C62,894.034,129.965,962,213.735,962h596.533C894.035,962,962,894.034,962,810.267V213.733C962,129.963,894.035,62,810.268,62
		H213.735z M213.735,67.202h596.533c80.956,0,146.53,65.572,146.53,146.53v596.535c0,80.955-65.574,146.53-146.53,146.53H213.735
		c-80.959,0-146.532-65.575-146.532-146.53V213.733C67.203,132.775,132.776,67.202,213.735,67.202z"/>
	<path id="path4184" inkscape:connector-curvature="0" d="M512,109.469c-222.158,0-402.531,180.372-402.531,402.529
		c0,222.149,180.372,402.532,402.531,402.532c222.158,0,402.53-180.382,402.53-402.532C914.531,289.841,734.157,109.469,512,109.469
		z M512,135.481c208.1,0,376.52,168.418,376.52,376.517c0,208.092-168.42,376.521-376.52,376.521
		c-208.101,0-376.519-168.43-376.519-376.521C135.481,303.899,303.9,135.481,512,135.481z"/>
	<path id="path4186" inkscape:connector-curvature="0" d="M363.611,286.813c-42.383,0-76.797,34.415-76.797,76.797v296.779
		c0,42.381,34.415,76.797,76.797,76.797h296.781c42.382,0,76.795-34.416,76.795-76.797V363.61c0-42.383-34.413-76.797-76.795-76.797
		H363.611z M363.611,292.015h296.781c39.57,0,71.593,32.023,71.593,71.595v296.779c0,39.569-32.022,71.595-71.593,71.595H363.611
		c-39.571,0-71.595-32.025-71.595-71.595V363.61C292.016,324.039,324.039,292.015,363.611,292.015z"/>
	<path id="line4188" inkscape:connector-curvature="0" d="M64.638,509.399c-1.437-0.021-2.618,1.128-2.638,2.564
		c-0.02,1.437,1.127,2.618,2.564,2.638c0.024,0.001,0.05,0.001,0.074,0h894.724c1.436,0.02,2.617-1.127,2.638-2.564
		c0.021-1.437-1.128-2.619-2.564-2.639c-0.024,0-0.049,0-0.073,0H64.638z"/>
	<path id="path4190" d="M739.059,371.22L353.858,586.429L454.94,755.941h317.176V426.604L739.059,371.22z M360.1,360.215
		l-4.282,5.922c-40.576,55.904-50.58,121.491-27.612,177.274L711.61,329.162c-34.496-42.298-89.319-66.386-151.902-66.386
		c-6.802,0-13.605,0.318-20.533,0.838l-7.277,0.641l-6.929,1c-31.129,4.562-60.982,14.765-88.995,30.372
		c-28.011,15.607-52.063,35.616-71.589,59.425L360.1,360.215z M533.495,311.233c2.439-8.603,8.123-15.806,16.082-20.247
		c5.245-2.921,11.249-4.442,17.251-4.442c12.244,0,23.729,6.401,29.851,16.687c9.485,15.886,3.764,36.335-12.605,45.54
		c-5.239,2.922-11.161,4.443-17.245,4.443c-12.286,0-23.772-6.324-29.855-16.648C532.369,328.801,531.171,319.917,533.495,311.233z
		 M377.789,386.986c5.282-2.922,11.204-4.483,17.207-4.483c12.365,0,23.69,6.403,29.892,16.646
		c9.443,15.968,3.802,36.416-12.605,45.581c-5.281,2.96-11.165,4.481-17.207,4.481c-12.285,0-23.771-6.403-29.853-16.687
		C355.739,416.598,361.381,396.189,377.789,386.986z M294.472,624.168c-7.442,0-14.805,1.96-21.248,5.561
		c-20.609,11.483-27.491,37.375-15.328,57.666l40.858,68.547h99.601L332.57,645.654C324.646,632.37,310.079,624.168,294.472,624.168
		z M353.617,357.414c1.242,0.56,2.48,0.839,3.802,0.839c3.321,0,6.523-1.8,8.043-4.923c2.081-4.241,0.161-9.363-4.281-11.404
		l-70.551-32.493c-1.24-0.56-2.601-0.881-3.842-0.881c-3.282,0-6.524,1.842-8.003,4.923c-2.122,4.322-0.239,9.404,4.163,11.444
		L353.617,357.414z M522.929,284.343c0.28,0,0.521,0,0.764,0c4.556,0,8.44-12.885,8.803-17.408l6.202-88.758
		c0.401-4.682-3.244-22.489-8.046-22.489c-0.282,0-0.519,0-0.801,0c-4.56,0-8.44,11.964-8.805,16.408l-6.24,89.277
		C514.489,266.054,518.127,284.343,522.929,284.343z"/>
</g>
</svg>
