<svg xmlns="http://www.w3.org/2000/svg" width="1024" height="1024"><path d="M65 64l-1 1 895 895 1-1L65 64z"/><path d="M958 62L62 958l4 4L962 66l-4-4z"/><path d="M66 62l-4 4 896 896 4-4L66 62z"/><path d="M214 62c-84 0-152 68-152 152v596c0 84 68 152 152 152h596c84 0 152-68 152-152V214c0-84-68-152-152-152H214zm0 5h596c81 0 147 66 147 147v596c0 81-66 147-147 147H214c-81 0-147-66-147-147V214c0-81 66-147 147-147z"/><path d="M512 110a403 403 0 0 0-402 402 403 403 0 0 0 402 403 403 403 0 0 0 403-403 403 403 0 0 0-403-402zm0 26a376 376 0 0 1 377 376c0 208-169 377-377 377a376 376 0 0 1-376-377 376 376 0 0 1 376-376z"/><path d="M364 287a77 77 0 0 0-77 77v296a77 77 0 0 0 77 77h296a77 77 0 0 0 77-77V364a77 77 0 0 0-77-77H364zm0 5h296c40 0 72 32 72 72v296c0 40-32 72-72 72H364c-40 0-72-32-72-72V364c0-40 32-72 72-72z"/><path d="M65 509a3 3 0 1 0 0 6h894a3 3 0 0 0 0-6H65z"/><path d="M739 371L354 586l101 170h317V427l-33-56zm-379-11l-4 6c-41 56-51 122-28 177l384-214c-35-42-90-66-152-66l-21 1h-7l-7 1a259 259 0 0 0-160 90l-5 5zm174-49a34 34 0 0 1 16-20 35 35 0 0 1 47 12 33 33 0 0 1-13 46 35 35 0 0 1-47-12 33 33 0 0 1-3-26zm-156 76a35 35 0 0 1 47 12c9 16 4 37-13 46a35 35 0 0 1-47-13 33 33 0 0 1 13-45zm-83 237c-8 0-15 2-22 6a41 41 0 0 0-15 57l41 69h99l-65-110a44 44 0 0 0-39-22zm59-267a9 9 0 0 0 12-4c2-4 0-9-5-11l-70-33a9 9 0 0 0-12 4 8 8 0 0 0 4 12l71 32zm169-73h1c4 0 8-13 9-17l6-89c0-4-3-22-8-22h-1c-5 0-9 12-9 16l-6 89c0 5 3 23 8 23z"/></svg>