<?xml version="1.0" encoding="utf-8"?>
<!-- Generator: Adobe Illustrator 19.0.0, SVG Export Plug-In . SVG Version: 6.00 Build 0)  -->
<svg version="1.1" id="图层_1" xmlns="http://www.w3.org/2000/svg" xmlns:xlink="http://www.w3.org/1999/xlink" x="0px" y="0px"
	 viewBox="262 -362 1024 1024" style="enable-background:new 262 -362 1024 1024;" xml:space="preserve">
<g>
	<path d="M324.1,272.9c0,81.2,60.8,148.6,140.6,161.6l28.1,2.3h278.4l5.6-0.8l278.4,0.8l28.1-2.3c79.8-13,140.6-80.4,140.6-161.6
		c0-71.3-47-132.1-112.5-154.6C1109-23,990.3-136.8,844.3-136.8c-105.3,0-196.4,59.2-240,145.2c-20.6-22.1-50.4-36-83.5-36
		c-62.1,0-112.5,48.9-112.5,109.2c0,15.8,3.4,30.7,9.6,44.3C362.4,152.7,324.1,208.5,324.1,272.9z M464.7,140.4L451.2,105
		c-3.1-6.8-4.8-14.1-4.7-21.6c0-29.4,29.7-73,76.3-73c16,0,34.7,8,45.4,19.3l44,30.6l37.4-49.9C691.9-52.7,763.3-96.1,843.9-96.1
		c113.6,0,225.7,108.3,227.5,216.5v38.4l39.6,10.6c44.6,15,74.5,55.4,74.5,100.5c0,52.2-53.5,117.7-107.4,126.3H776.8v0.3h-5.6v-0.3
		H494.8l-18.7-1.5c-53.9-8.6-113.5-72.5-113.5-124.8C362.7,229,397.5,163.6,464.7,140.4z"/>
	<path d="M549.3,274.9h33.8l25.4-35.3h63.4l-0.9,35.3h31.2l2.2-160h-36.5L549.3,274.9z M672.6,213h-47.9l50-64.4L672.6,213z
		 M906.3,132.6c-2.8-6.3-7.3-10.8-13.6-13.5c-6.2-2.7-15.1-4.1-26.7-4.1h-65l-61.7,160h32.9l23.5-61h21.1c14.2,0,23.9-0.4,29.2-1.1
		c9.1-1.2,16.5-3,22.1-5.4s11.1-5.8,16.5-10.4c5.3-4.6,10.3-10.7,14.7-18.3c4.5-7.6,7.4-15.5,8.8-23.6
		C909.8,146.4,909.1,138.9,906.3,132.6L906.3,132.6z M874.8,157.9c-1,5.7-3.6,11-7.8,15.8s-9.4,8.3-15.6,10.5
		c-6.2,2.2-18,3.3-35.4,3.3h-10.2l17.9-46.2h23.6c10.7,0,17.5,0.6,20.4,1.7c2.9,1.1,5,2.9,6.2,5.4
		C875.2,150.8,875.5,154,874.8,157.9L874.8,157.9z M966,115l-61.7,160h32.9l61.6-160H966L966,115z"/>
</g>
</svg>
