<svg xmlns="http://www.w3.org/2000/svg" viewBox="262 -362 1024 1024"><path d="M324 273c0 81 61 148 141 161l28 3h278l6-1 278 1 28-2c80-13 141-81 141-162 0-71-47-132-113-155a264 264 0 0 0-267-255A268 268 0 0 0 604 8a114 114 0 0 0-83-36c-62 0-113 49-113 110 0 15 4 30 10 44a164 164 0 0 0-94 147zm141-133l-14-35a50 50 0 0 1-5-22c1-29 30-73 77-73 16 0 34 8 45 20l44 30 38-50C692-53 763-96 844-96c113 0 226 108 227 216v39l40 10c45 15 75 56 75 101 0 52-54 118-108 126H495l-19-1c-54-9-113-73-113-125 0-41 35-106 102-130z"/><path d="M549 275h34l25-35h64l-1 35h31l2-160h-36L549 275zm124-62h-48l50-64-2 64zm233-80a25 25 0 0 0-13-14 69 69 0 0 0-27-4h-65l-62 160h33l24-61h21a261 261 0 0 0 29-1 65 65 0 0 0 53-34 69 69 0 0 0 9-24c2-9 1-16-2-22zm-31 25c-1 6-4 11-8 16s-9 8-16 10c-6 2-18 4-35 4h-10l18-47h23c11 0 18 1 21 2s5 3 6 5l1 10zm91-43l-62 160h33l62-160h-33z"/></svg>