<svg xmlns="http://www.w3.org/2000/svg" width="1024" height="1024"><path d="M515 101h7l395 203v416L522 923h-13L107 720V304l395-202h13m0-40c-13 0-19 0-32 6L88 270c-13 6-26 23-26 34v416c0 11 13 28 19 34l402 202c13 6 19 6 32 6s19 0 32-6l396-202c13-6 19-23 19-34V304c0-11-13-28-19-34L547 68c-13-6-19-6-32-6z"/><path d="M496 512L228 377c-13-6-13-17-6-28 6-6 19-11 25-6l268 135c13 6 13 17 7 28 0 12-13 12-26 6z"/><path d="M534 506v276c0 11-12 17-19 17-13 0-19-11-19-17V506c0-11 13-17 19-17 13 1 19 6 19 17z"/><path d="M802 377L534 512a31 31 0 0 1-32-6c-6-11 0-22 7-28l274-135c13-5 26 0 32 6 0 11 0 22-13 28z"/></svg>