<?xml version="1.0" encoding="utf-8"?>
<!-- Generator: Adobe Illustrator 16.0.0, SVG Export Plug-In . SVG Version: 6.00 Build 0)  -->
<!DOCTYPE svg PUBLIC "-//W3C//DTD SVG 1.1//EN" "http://www.w3.org/Graphics/SVG/1.1/DTD/svg11.dtd">
<svg version="1.1"
	 id="svg4205" xmlns:dc="http://purl.org/dc/elements/1.1/" xmlns:cc="http://creativecommons.org/ns#" xmlns:rdf="http://www.w3.org/1999/02/22-rdf-syntax-ns#" xmlns:svg="http://www.w3.org/2000/svg"
	 xmlns="http://www.w3.org/2000/svg" xmlns:xlink="http://www.w3.org/1999/xlink" x="0px" y="0px" width="1024px" height="1024px"
	 viewBox="0 0 1024 1024" enable-background="new 0 0 1024 1024" xml:space="preserve">
<g>
	<path id="path4207" d="M515.192,101.375c6.383,0,6.383,0,6.383,0l395.744,202.5l0,0v416.251L521.574,922.625h-6.383
		c-6.383,0-6.383,0-6.383,0L106.681,720.126V303.875l395.744-202.5C508.808,101.375,508.808,101.375,515.192,101.375
		L515.192,101.375 M515.192,62c-12.767,0-19.149,0-31.915,5.625l-395.744,202.5C74.766,275.75,62,292.625,62,303.875v416.251
		c0,11.249,12.766,28.125,19.149,33.749l402.128,202.5C496.043,962,502.425,962,515.192,962c12.766,0,19.148,0,31.915-5.625
		l395.744-202.5c12.767-5.624,19.149-22.5,19.149-33.749V303.875c0-11.25-12.767-28.125-19.149-33.75l-395.744-202.5
		C534.34,62,527.957,62,515.192,62L515.192,62z"/>
	<path id="path4209" d="M496.043,512L227.958,377c-12.766-5.625-12.766-16.875-6.384-28.125l0,0
		c6.384-5.625,19.149-11.25,25.533-5.625l268.084,135c12.766,5.625,12.766,16.875,6.383,28.125l0,0
		C521.574,517.625,508.808,517.625,496.043,512z"/>
	<path id="path4211" d="M534.34,506.375V782c0,11.25-12.766,16.875-19.148,16.875l0,0c-12.767,0-19.149-11.25-19.149-16.875V506.375
		c0-11.25,12.766-16.875,19.149-16.875l0,0C527.957,489.5,534.34,495.125,534.34,506.375z"/>
	<path id="path4213" d="M802.426,377L534.34,512c-12.766,5.625-25.532,0-31.915-5.625l0,0c-6.382-11.25,0-22.5,6.383-28.125
		l274.468-135c12.766-5.625,25.531,0,31.915,5.625l0,0C815.192,360.125,815.192,371.375,802.426,377z"/>
</g>
</svg>
