<svg xmlns="http://www.w3.org/2000/svg" width="1024" height="1024"><path d="M65 64l-1 1 895 895 1-1L65 64z"/><path d="M958 62L62 958l4 4L962 66l-4-4z"/><path d="M66 62l-4 4 896 896 4-4L66 62z"/><path d="M214 62c-84 0-152 68-152 152v596c0 84 68 152 152 152h596c84 0 152-68 152-152V214c0-84-68-152-152-152H214zm0 5h596c81 0 147 66 147 147v596c0 81-66 147-147 147H214c-81 0-147-66-147-147V214c0-81 66-147 147-147z"/><path d="M512 110a403 403 0 0 0-402 402 403 403 0 0 0 402 403 403 403 0 0 0 403-403 403 403 0 0 0-403-402zm0 26a376 376 0 0 1 377 376c0 208-169 377-377 377a376 376 0 0 1-376-377 376 376 0 0 1 376-376z"/><path d="M364 287a77 77 0 0 0-77 77v296a77 77 0 0 0 77 77h296a77 77 0 0 0 77-77V364a77 77 0 0 0-77-77H364zm0 5h296c40 0 72 32 72 72v296c0 40-32 72-72 72H364c-40 0-72-32-72-72V364c0-40 32-72 72-72z"/><path d="M65 509a3 3 0 1 0 0 6h894a3 3 0 0 0 0-6H65zm357-256H316a64 64 0 0 0-64 64v106a64 64 0 0 0 64 64h106a64 64 0 0 0 64-64V317a64 64 0 0 0-64-64zm0 285H316a64 64 0 0 0-64 63v107a64 64 0 0 0 64 63h106a64 64 0 0 0 64-63V601a64 64 0 0 0-64-64zm286 0H602a64 64 0 0 0-64 63v107a64 64 0 0 0 64 63h106a64 64 0 0 0 64-63V601a64 64 0 0 0-64-64zm-96-59a56 56 0 0 0 78 0l66-66a56 56 0 0 0 0-79l-66-65a55 55 0 0 0-78 0l-66 65a56 56 0 0 0 0 79l66 65z"/></svg>