<?xml version="1.0" encoding="utf-8"?>
<!-- Generator: Adobe Illustrator 16.0.0, SVG Export Plug-In . SVG Version: 6.00 Build 0)  -->
<!DOCTYPE svg PUBLIC "-//W3C//DTD SVG 1.1//EN" "http://www.w3.org/Graphics/SVG/1.1/DTD/svg11.dtd">
<svg version="1.1"
	 id="svg4205" xmlns:dc="http://purl.org/dc/elements/1.1/" xmlns:cc="http://creativecommons.org/ns#" xmlns:rdf="http://www.w3.org/1999/02/22-rdf-syntax-ns#" xmlns:svg="http://www.w3.org/2000/svg" sodipodi:docname="application.svg" inkscape:version="0.91 r13725" xmlns:sodipodi="http://sodipodi.sourceforge.net/DTD/sodipodi-0.dtd" xmlns:inkscape="http://www.inkscape.org/namespaces/inkscape"
	 xmlns="http://www.w3.org/2000/svg" xmlns:xlink="http://www.w3.org/1999/xlink" x="0px" y="0px" width="1024px" height="1024px"
	 viewBox="0 0 1024 1024" enable-background="new 0 0 1024 1024" xml:space="preserve">
<sodipodi:namedview  id="namedview4907" borderopacity="1" pagecolor="#ffffff" inkscape:cx="512" guidetolerance="10" showgrid="false" bordercolor="#666666" inkscape:cy="518.33688" objecttolerance="10" gridtolerance="10" inkscape:zoom="0.23046875" inkscape:current-layer="svg4205" inkscape:window-maximized="1" inkscape:window-y="0" inkscape:window-x="0" inkscape:window-height="480" inkscape:pageopacity="0" inkscape:window-width="852" inkscape:pageshadow="2">
	</sodipodi:namedview>
<g>
	<path id="line4891" inkscape:connector-curvature="0" d="M64.969,64.233l-0.736,0.736l894.798,894.797l0.735-0.735L64.969,64.233z"
		/>
	<path id="line4893" inkscape:connector-curvature="0" d="M958.316,62L62,958.315L65.685,962L962,65.684L958.316,62z"/>
	<path id="line4895" inkscape:connector-curvature="0" d="M65.691,62L62,65.672L958.312,962l3.688-3.672L65.691,62z"/>
	<path id="path4897" inkscape:connector-curvature="0" d="M213.735,62C129.965,62,62,129.963,62,213.733v596.535
		C62,894.034,129.965,962,213.735,962h596.533C894.035,962,962,894.034,962,810.267V213.733C962,129.963,894.035,62,810.268,62
		H213.735z M213.735,67.202h596.533c80.956,0,146.53,65.572,146.53,146.53v596.535c0,80.955-65.574,146.53-146.53,146.53H213.735
		c-80.959,0-146.532-65.575-146.532-146.53V213.733C67.203,132.775,132.776,67.202,213.735,67.202z"/>
	<path id="path4899" inkscape:connector-curvature="0" d="M512,109.469c-222.158,0-402.531,180.372-402.531,402.529
		c0,222.149,180.372,402.532,402.531,402.532c222.158,0,402.53-180.382,402.53-402.532C914.531,289.841,734.157,109.469,512,109.469
		z M512,135.481c208.1,0,376.52,168.418,376.52,376.517c0,208.092-168.42,376.521-376.52,376.521
		c-208.101,0-376.519-168.43-376.519-376.521C135.481,303.899,303.9,135.481,512,135.481z"/>
	<path id="path4901" inkscape:connector-curvature="0" d="M363.611,286.813c-42.383,0-76.797,34.415-76.797,76.797v296.779
		c0,42.381,34.415,76.797,76.797,76.797h296.781c42.382,0,76.795-34.416,76.795-76.797V363.61c0-42.383-34.413-76.797-76.795-76.797
		H363.611z M363.611,292.015h296.781c39.57,0,71.593,32.023,71.593,71.595v296.779c0,39.569-32.022,71.595-71.593,71.595H363.611
		c-39.571,0-71.595-32.025-71.595-71.595V363.61C292.016,324.039,324.039,292.015,363.611,292.015z"/>
	<path id="line4903" inkscape:connector-curvature="0" d="M64.638,509.399c-1.437-0.021-2.618,1.128-2.638,2.564
		c-0.02,1.437,1.127,2.618,2.564,2.638c0.024,0.001,0.05,0.001,0.074,0h894.724c1.436,0.02,2.617-1.127,2.638-2.564
		c0.021-1.437-1.128-2.619-2.564-2.639c-0.024,0-0.049,0-0.073,0H64.638z"/>
	<path id="path4905" d="M422.063,252.644H315.731c-35.231,0-63.845,28.583-63.845,63.816v106.363
		c0,35.232,28.613,63.815,63.845,63.815h106.333c35.268,0,63.81-28.584,63.81-63.815l0.003-106.363
		C485.875,281.227,457.331,252.644,422.063,252.644z M422.063,537.48H315.697c-35.197,0-63.812,28.584-63.812,63.809v106.332
		c0,35.201,28.58,63.806,63.812,63.806h106.326c35.311,0,63.814-28.617,63.814-63.806V601.289
		C485.875,566.057,457.328,537.48,422.063,537.48z M708.31,537.48H602.053c-35.27,0-63.851,28.584-63.851,63.809v106.332
		c0,35.266,28.581,63.846,63.851,63.846H708.31c35.271,0,63.806-28.578,63.806-63.846V601.289
		C772.115,566.057,743.576,537.48,708.31,537.48L708.31,537.48z M611.742,478.426c10.877,10.836,25.127,16.252,39.304,16.252
		c14.214,0,28.403-5.416,39.271-16.252l65.438-65.516c21.707-21.708,21.707-56.905,0-78.572l-65.395-65.551
		c-10.87-10.836-25.051-16.254-39.273-16.254c-14.18,0-28.43,5.421-39.304,16.254L546.348,334.3
		c-21.676,21.67-21.676,56.831,0,78.572L611.742,478.426L611.742,478.426z"/>
</g>
</svg>
