<?xml version="1.0" encoding="utf-8"?>
<!-- Generator: Adobe Illustrator 19.0.0, SVG Export Plug-In . SVG Version: 6.00 Build 0)  -->
<svg version="1.1" id="图层_1" xmlns="http://www.w3.org/2000/svg" xmlns:xlink="http://www.w3.org/1999/xlink" x="0px" y="0px"
	 viewBox="370 -412.6 1024 1024" style="enable-background:new 370 -412.6 1024 1024;" xml:space="preserve">
<g>
	<path d="M901.3,305.5v90.8c0,15.7-12.1,28.3-27.1,28.3c-15,0-27.2-12.7-27.2-28.3v-90.8c-31.5-11.7-54.3-42.4-54.3-79.3
		c0-47,36.4-85,81.4-85c45,0,81.4,38.1,81.4,85C955.6,263.1,932.8,293.7,901.3,305.5L901.3,305.5L901.3,305.5z"/>
	<path d="M874.2,192.3c-15,0-27.2,12.7-27.2,28.3c0,15.6,12.2,28.3,27.2,28.3c15,0,27.1-12.7,27.1-28.3
		C901.3,205,889.2,192.3,874.2,192.3L874.2,192.3L874.2,192.3z"/>
	<path d="M1169,549.4h-41v0.1l-532.7-0.1c-45.3,0-82-35-82-78.1v-41.5h-0.1L513.1,122h0.3V80.5c0-42.6,35.8-76.9,80.1-77.8l42.7-0.1
		V2.4h0.1v-36.6h-0.2l-0.2-81.5c0-1,0.5-1.8,0.6-2.8c1.1-128.3,110.2-232,245-232c135.4,0,245.2,104.7,245.2,233.8
		c0,0.2-0.1,0.4-0.1,0.6h-2.8c0,0.1,0.1,0.2,0.1,0.3l0.4,1.5c0,21.5-18.3,39-41,39c-22.6,0-41-17.5-41-39l-0.3-1.5
		c0-4,1.2-7.7,2.3-11.3c-6.5-80.5-76.2-144.1-162.3-144.1c-90,0-163,69.4-163.6,155.1h-0.6c0,0.1,0.1,0.2,0.1,0.3l0.3,118.4l451-0.2
		c44.5,0.1,80.4,34.2,81.4,76.5l0.3,392.7C1250.8,514.5,1214.2,549.4,1169,549.4L1169,549.4z M1169,471.3l-0.1-62.3l-0.4,62
		l-47.4,0.3L1169,471.3L1169,471.3z M1168.7,80.5h-0.2l0.2,26.9V80.5L1168.7,80.5z M1087.1,81.4l37.5-0.9l-445.9,0.2
		c-0.5,0-0.9,0.2-1.4,0.2c-0.5,0-0.9-0.2-1.4-0.2h-25.2l26.6,0.6c-65.8,0-82,11.8-82,78.1l0.5-78.7H595l0.3,390.7l498.4-0.3
		c58.6-0.9,74.6-15,75.2-75.6l-0.2-244.9C1167.2,92.7,1149.6,81.4,1087.1,81.4L1087.1,81.4z M595.4,392.1c0,66.4,16.2,79.4,82,79.4
		l-81.4-0.5L595.4,392.1L595.4,392.1z"/>
</g>
</svg>
