<svg xmlns="http://www.w3.org/2000/svg" viewBox="370 -413 1024 1024"><path d="M901 306v90a28 28 0 0 1-27 29c-15 0-27-13-27-29v-90a84 84 0 0 1-54-80c0-47 36-85 81-85s81 38 81 85a84 84 0 0 1-54 79z"/><path d="M874 192c-15 0-27 13-27 29a28 28 0 0 0 27 28c15 0 27-13 27-28a28 28 0 0 0-27-29z"/><path d="M1169 549H595c-45 0-82-35-82-78V81c0-43 36-77 80-78h43v-119-2c2-129 111-232 245-232 136 0 246 104 246 233v1h-3v2a40 40 0 0 1-41 39 40 40 0 0 1-41-39v-2l2-11c-6-81-76-144-162-144-90 0-163 69-164 155V3l451-1c45 1 81 35 82 77v393c0 43-37 77-82 77zm0-78v-62 62h-48 48zm0-391v27-26zm-82 1l38-1-446 1h-28 26c-65 0-82 12-82 78l1-78h-1v390h499c58-1 74-15 75-76V151c-2-58-19-70-82-70zM595 392c0 67 17 80 82 80l-81-1-1-79z"/></svg>