<?xml version="1.0" encoding="utf-8"?>
<!-- Generator: Adobe Illustrator 16.0.0, SVG Export Plug-In . SVG Version: 6.00 Build 0)  -->
<!DOCTYPE svg PUBLIC "-//W3C//DTD SVG 1.1//EN" "http://www.w3.org/Graphics/SVG/1.1/DTD/svg11.dtd">
<svg version="1.1" id="图层_1" xmlns="http://www.w3.org/2000/svg" xmlns:xlink="http://www.w3.org/1999/xlink" x="0px" y="0px"
	 width="1024px" height="1024px" viewBox="0 0 1024 1024" enable-background="new 0 0 1024 1024" xml:space="preserve">
<path d="M512.002,62C263.477,62,62,263.468,62,511.998C62,760.518,263.477,962,512.002,962C760.529,962,962,760.517,962,511.998
	C962,263.469,760.529,62,512.002,62z M512.002,916.996c-223.671,0-405-181.327-405-404.998c0-223.68,181.329-404.998,405-404.998
	s404.994,181.318,404.994,404.998C916.995,735.669,735.673,916.996,512.002,916.996z M646.999,241.999H376.998
	c-24.85,0-44.996,20.147-44.996,44.991v450.007c0,24.857,20.146,45.005,44.996,45.005h270.001c24.857,0,45.004-20.147,45.004-45.005
	V286.99C692.005,262.146,671.858,241.999,646.999,241.999z M512.002,736.997c-24.854,0-44.996-20.146-44.996-45.004
	c0-24.849,20.142-44.998,44.996-44.998c24.849,0,44.998,20.15,44.998,44.998C557,716.851,536.849,736.997,512.002,736.997z
	 M646.999,602.002H376.998V286.99h270.001V602.002z"/>
</svg>
