<?xml version="1.0" encoding="utf-8"?>
<!-- Generator: Adobe Illustrator 16.0.0, SVG Export Plug-In . SVG Version: 6.00 Build 0)  -->
<!DOCTYPE svg PUBLIC "-//W3C//DTD SVG 1.1//EN" "http://www.w3.org/Graphics/SVG/1.1/DTD/svg11.dtd">
<svg version="1.1" id="图层_1" xmlns="http://www.w3.org/2000/svg" xmlns:xlink="http://www.w3.org/1999/xlink" x="0px" y="0px"
	 width="1024px" height="1024px" viewBox="0 0 1024 1024" enable-background="new 0 0 1024 1024" xml:space="preserve">
<path d="M528.131,484.188l66.749,66.749c8.9-11.124,20.024-21.137,32.263-30.036l-73.425-73.424
	C547.043,461.938,538.144,474.176,528.131,484.188z M794.015,340.677l-72.312,161.311c14.463,2.225,28.925,7.787,41.162,14.462
	l68.975-155.748C818.49,357.365,805.14,349.577,794.015,340.677z M698.341,720.034c48.95,0,87.887-38.937,87.887-87.886
	s-38.937-87.887-87.887-87.887c-48.949,0-87.886,38.938-87.886,87.887S650.504,720.034,698.341,720.034z M698.341,588.761
	c24.475,0,43.388,20.024,43.388,44.499s-20.025,44.499-43.388,44.499c-24.475,0-43.387-20.024-43.387-44.499
	C654.954,607.674,674.979,588.761,698.341,588.761z M874.114,325.102c48.949,0,87.887-38.937,87.887-87.886
	s-38.938-87.886-87.887-87.886s-87.886,38.937-87.886,87.886C786.228,285.053,826.278,325.102,874.114,325.102z M874.114,192.717
	c24.475,0,43.388,20.025,43.388,44.5s-20.025,44.5-43.388,44.5c-24.475,0-43.387-20.025-43.387-44.5
	S849.639,192.717,874.114,192.717z M324.547,461.938l-93.449,111.249c11.125,8.9,22.25,20.024,30.037,33.375l93.449-111.249
	C342.346,485.3,332.334,474.176,324.547,461.938z M237.773,676.647c0-48.949-38.937-87.886-87.886-87.886S62,627.698,62,676.647
	s38.937,87.887,87.886,87.887S237.773,725.596,237.773,676.647z M106.5,676.647c0-24.475,20.024-44.499,43.387-44.499
	s43.387,20.024,43.387,44.499s-20.024,44.5-43.387,44.5S106.5,701.122,106.5,676.647z M896.364,786.783
	c0,24.475-20.024,44.5-43.387,44.5H237.773c-20.024,0-35.6-12.237-42.274-30.037c-14.462,5.563-30.037,7.787-45.612,7.787
	c0,36.712,30.037,65.637,65.637,65.637h658.59c36.713,0,65.637-30.037,65.637-65.637V351.802
	c-13.35,7.788-27.812,13.35-43.387,15.575V786.783z M194.386,258.353c0-24.475,20.024-44.5,43.387-44.5h506.181
	c2.225-15.575,7.787-31.149,15.574-44.499H215.523c-36.712,0-65.637,30.037-65.637,65.636v308.158
	c15.575,0,30.037,2.226,43.387,7.787V258.353H194.386z M435.795,478.625c48.949,0,87.886-38.937,87.886-87.886
	s-38.937-87.886-87.886-87.886s-87.886,38.937-87.886,87.886S386.846,478.625,435.795,478.625z M435.795,346.24
	c24.475,0,43.387,20.025,43.387,44.5s-20.024,44.5-43.387,44.5c-24.475,0-43.387-20.025-43.387-44.5
	C391.296,366.264,411.321,346.24,435.795,346.24z"/>
</svg>
