<?xml version="1.0" encoding="utf-8"?>
<!-- Generator: Adobe Illustrator 16.0.0, SVG Export Plug-In . SVG Version: 6.00 Build 0)  -->
<!DOCTYPE svg PUBLIC "-//W3C//DTD SVG 1.1//EN" "http://www.w3.org/Graphics/SVG/1.1/DTD/svg11.dtd">
<svg version="1.1" id="图层_1" xmlns="http://www.w3.org/2000/svg" xmlns:xlink="http://www.w3.org/1999/xlink" x="0px" y="0px"
	 width="1024px" height="1024px" viewBox="0 0 1024 1024" enable-background="new 0 0 1024 1024" xml:space="preserve">
<path d="M511.152,918.271c-19.778,0-37.578-9.727-47.961-26.623L70.107,193.791c-10.383-15.871-10.877-36.352-0.989-55.296
	c10.383-19.968,30.162-32.768,51.917-32.768h786.661c20.272,0,37.577,10.752,47.467,29.184c9.889,18.944,8.899,41.473-1.978,58.88
	L559.607,891.648C548.729,908.545,530.929,918.271,511.152,918.271L511.152,918.271z M542.795,814.847l341.167-602.624
	L649.595,333.568l-106.8,185.856V814.847L542.795,814.847z M485.934,814.847l-0.494-295.424L378.639,333.568L144.273,206.592
	L485.934,814.847L485.934,814.847z M514.117,454.4l66.75-115.2H453.301L514.117,454.4z M407.318,280.32h213.6l217.062-115.712
	H189.762L407.318,280.32L407.318,280.32z"/>
</svg>
