<?xml version="1.0" encoding="UTF-8" standalone="no"?>
<svg
   xmlns:dc="http://purl.org/dc/elements/1.1/"
   xmlns:cc="http://creativecommons.org/ns#"
   xmlns:rdf="http://www.w3.org/1999/02/22-rdf-syntax-ns#"
   xmlns:svg="http://www.w3.org/2000/svg"
   xmlns="http://www.w3.org/2000/svg"
   xmlns:sodipodi="http://sodipodi.sourceforge.net/DTD/sodipodi-0.dtd"
   xmlns:inkscape="http://www.inkscape.org/namespaces/inkscape"
   t="1491027935582"
   class="icon"
   style=""
   viewBox="0 0 1024 1024"
   version="1.1"
   p-id="2492"
   width="1024"
   height="1024"
   id="svg2"
   inkscape:version="0.91 r13725"
   sodipodi:docname="clean.svg">
  <metadata
     id="metadata36">
    <rdf:RDF>
      <cc:Work
         rdf:about="">
        <dc:format>image/svg+xml</dc:format>
        <dc:type
           rdf:resource="http://purl.org/dc/dcmitype/StillImage" />
      </cc:Work>
    </rdf:RDF>
  </metadata>
  <sodipodi:namedview
     pagecolor="#ffffff"
     bordercolor="#666666"
     borderopacity="1"
     objecttolerance="10"
     gridtolerance="10"
     guidetolerance="10"
     inkscape:pageopacity="0"
     inkscape:pageshadow="2"
     inkscape:window-width="1920"
     inkscape:window-height="1027"
     id="namedview34"
     showgrid="false"
     inkscape:zoom="0.23046875"
     inkscape:cx="512"
     inkscape:cy="512"
     inkscape:window-x="1592"
     inkscape:window-y="-8"
     inkscape:window-maximized="1"
     inkscape:current-layer="svg2" />
  <defs
     id="defs4">
    <style
       type="text/css"
       id="style6" />
  </defs>
  <path
     d="M 962.3519,509.13162 C 961.1846,629.31406 913.29926,742.79031 827.48443,828.59416 741.70696,914.36066 628.27532,962.22946 508.16258,963.38312 387.93777,964.47454 275.41092,918.72529 191.20541,834.50565 107.0082,750.31922 61.253093,637.75906 62.392373,517.5735 63.522323,397.42841 111.3848,284.02271 197.1737,198.24376 282.98853,112.44094 396.40875,64.584593 516.58479,63.421592 764.73445,61.137085 964.6564,261.08115 962.3519,509.13162 l 0,0 z M 518.29475,132.11136 c -103.32228,0.0114 -200.45942,40.26726 -273.54703,113.34449 -73.07516,73.0658 -113.31127,170.1656 -113.32372,273.47569 -0.0208,103.2935 40.23923,200.46697 113.33825,273.55663 73.09902,73.08967 170.2372,113.36939 273.54496,113.36628 103.28285,-0.0218 200.46875,-40.22785 273.53146,-113.28121 73.10214,-73.09277 113.32372,-170.29841 113.3258,-273.6417 C 905.18937,305.67675 731.62251,132.1321 518.29475,132.11136 l 0,0 z"
     p-id="2493"
     id="path8"
     inkscape:connector-curvature="0" />
  <path
     d="M 462.34002,336.7479 276.94969,522.11762 c -7.11795,7.11391 -18.54091,7.11391 -25.65574,0 -7.11483,-7.11393 -7.02249,-18.53646 0,-25.65246 l 185.3893,-185.3666 c 7.11794,-7.11704 18.5409,-7.11704 25.65677,0 7.11483,7.11392 7.11483,18.53542 0,25.64934 l 0,0 0,0 z m 0,0"
     p-id="2494"
     id="path10"
     inkscape:connector-curvature="0" />
  <path
     d="M 719.26571,593.5494 533.87538,778.91808 c -7.11795,7.11393 -18.5409,7.11393 -25.65574,0 -7.11483,-7.11703 -7.02144,-18.53853 0,-25.65245 l 185.39034,-185.3666 c 7.11794,-7.11703 18.5409,-7.11703 25.65573,0 7.11483,7.11392 7.02145,18.62775 0,25.65037 l 0,0 0,0 z m 0,0"
     p-id="2495"
     id="path12"
     inkscape:connector-curvature="0" />
  <path
     d="m 461.77868,594.67299 -56.08548,56.07933 c -7.11794,7.11392 -18.53882,7.11392 -25.65573,0 -7.11484,-7.11704 -7.02249,-18.53646 0,-25.65246 l 56.08547,-56.07933 c 7.11483,-7.11392 18.53883,-7.11392 25.65574,0 7.11483,7.116 7.11483,18.63087 0,25.65246 l 0,0 0,0 z m 0,0"
     p-id="2496"
     id="path14"
     inkscape:connector-curvature="0" />
  <path
     d="m 378.63359,542.52773 -40.63558,40.63039 c -7.11795,7.11392 -18.5409,7.11392 -25.65574,0 -7.11483,-7.11704 -7.02145,-18.53646 0,-25.65246 l 40.63559,-40.63037 c 7.11795,-7.11393 18.53883,-7.11393 25.65573,0 7.02145,7.11288 7.02145,18.63085 0,25.65244 l 0,0 0,0 z m 0,0"
     p-id="2497"
     id="path16"
     inkscape:connector-curvature="0" />
  <path
     d="m 512.99572,676.965 -40.6387,40.63039 c -7.11483,7.11392 -18.53882,7.11392 -25.65366,0 -7.11483,-7.11393 -7.02145,-18.53646 0,-25.65246 l 40.63663,-40.63038 c 7.11483,-7.11392 18.53882,-7.11392 25.65573,0 7.11484,7.11703 7.11484,18.53541 0,25.65245 l 0,0 0,0 z m 0,0"
     p-id="2498"
     id="path18"
     inkscape:connector-curvature="0" />
  <path
     d="M 508.12626,778.91808 251.29291,522.20994 c -7.11483,-7.11392 -7.11483,-18.53644 0,-25.65037 7.11484,-7.11703 18.53883,-7.02366 25.65574,0 l 256.83023,256.79736 c 7.11795,7.11704 7.11795,18.53645 0,25.65245 -7.1138,7.02263 -18.53779,7.02263 -25.65262,-0.0913 l 0,0 0,0 z m 0,0"
     p-id="2499"
     id="path20"
     inkscape:connector-curvature="0" />
  <path
     d="M 614.77302,672.37835 357.93967,415.57789 c -7.11483,-7.11704 -7.11483,-18.53646 0,-25.65246 7.11795,-7.11392 18.5409,-7.02055 25.65573,0 L 640.33329,646.7259 c 7.11795,7.11392 7.11795,18.53645 0,25.65245 -7.02249,7.11393 -18.53883,7.02055 -25.56027,0 l 0,0 0,0 z m 0,0"
     p-id="2500"
     id="path22"
     inkscape:connector-curvature="0" />
  <path
     d="m 712.80457,376.25782 -58.61411,-58.69895 c -7.11483,-7.11702 -7.11483,-18.53852 0,-25.65348 7.11795,-7.11392 18.53883,-7.02055 25.65573,0 l 58.61411,58.69894 c 7.11483,7.11703 7.11483,18.53853 0,25.65349 -7.11691,7.11392 -18.63428,7.11392 -25.65573,0 l 0,0 0,0 z m 0,0"
     p-id="2501"
     id="path24"
     inkscape:connector-curvature="0" />
  <path
     d="M 535.83956,435.70581 436.87209,336.7479 c -7.11483,-7.11392 -7.11483,-18.53645 0,-25.65038 7.11483,-7.11703 18.53883,-7.02158 25.65366,0 l 99.06396,99.05129 c 7.11795,7.11392 7.11795,18.53645 0,25.65038 -7.11587,7.02055 -18.63221,7.02055 -25.75015,-0.0934 l 0,0 0,0 z m 0,0"
     p-id="2502"
     id="path26"
     inkscape:connector-curvature="0" />
  <path
     d="m 693.60998,593.45603 -98.96747,-98.95791 c -7.11483,-7.11392 -7.11483,-18.53646 0,-25.65037 7.11483,-7.11392 18.53883,-7.0216 25.65573,0 l 99.06086,99.05128 c 7.11794,7.11392 7.11794,18.53645 0,25.65038 -7.11484,7.02055 -18.63222,7.02055 -25.74912,-0.0934 l 0,0 0,0 z m 0,0"
     p-id="2503"
     id="path28"
     inkscape:connector-curvature="0" />
  <path
     d="M 738.36796,376.25782 620.20175,494.40475 c -7.11484,7.11703 -18.53883,7.11703 -25.65366,0 -7.11795,-7.11393 -7.02145,-18.53645 0,-25.65037 L 712.71014,350.60433 c 7.11484,-7.11393 18.53883,-7.11393 25.65574,0 7.11691,7.02158 7.11691,18.53853 0.002,25.65349 l 0,0 0,0 z m 0,0"
     p-id="2504"
     id="path30"
     inkscape:connector-curvature="0" />
  <path
     d="M 679.75488,317.55887 561.49633,435.70581 c -7.11483,7.11393 -18.53883,7.11393 -25.65573,0 -7.11484,-7.11392 -7.02145,-18.53645 0,-25.65245 L 654.09811,291.90539 c 7.11484,-7.11392 18.53883,-7.11392 25.65574,0 7.11587,7.11393 7.02248,18.53646 10e-4,25.65348 l 0,0 0,0 z m 0,0"
     p-id="2505"
     id="path32"
     inkscape:connector-curvature="0" />
</svg>
