<svg xmlns="http://www.w3.org/2000/svg" class="icon" version="1.1" width="1024" height="1024" id="svg2"><defs id="defs4"><style type="text/css" id="style6"/></defs><path d="M962 509a456 456 0 0 1-135 320 456 456 0 0 1-319 134 439 439 0 0 1-317-128A439 439 0 0 1 62 518a456 456 0 0 1 135-320A456 456 0 0 1 517 63a440 440 0 0 1 445 446zM518 132a384 384 0 0 0-273 114 384 384 0 0 0-114 273 384 384 0 0 0 114 274 384 384 0 0 0 273 113 385 385 0 0 0 274-113 384 384 0 0 0 113-274 387 387 0 0 0-387-387z" id="path8"/><path d="M462 337L277 522a18 18 0 0 1-26-26l186-185a18 18 0 0 1 25 0 18 18 0 0 1 0 26zm0 0" id="path10"/><path d="M719 594L534 779a18 18 0 0 1-26-26l186-185a18 18 0 0 1 25 26zm0 0" id="path12"/><path d="M462 595l-56 56a18 18 0 0 1-26-26l56-56a18 18 0 0 1 26 0 18 18 0 0 1 0 26zm0 0" id="path14"/><path d="M379 543l-41 40a18 18 0 0 1-26-25l41-41a18 18 0 0 1 26 0c7 7 7 19 0 26zm0 0" id="path16"/><path d="M513 677l-41 41a18 18 0 0 1-25-26l40-41a18 18 0 0 1 26 0 18 18 0 0 1 0 26zm0 0" id="path18"/><path d="M508 779L251 522a18 18 0 0 1 26-26l257 257a18 18 0 1 1-26 26zm0 0" id="path20"/><path d="M615 672L358 416a18 18 0 0 1 26-26l256 257a18 18 0 1 1-25 25zm0 0" id="path22"/><path d="M713 376l-59-58a18 18 0 0 1 26-26l58 59a18 18 0 0 1 1 25 18 18 0 0 1-26 0zm0 0" id="path24"/><path d="M536 436l-99-99a18 18 0 0 1 25-26l99 99a18 18 0 0 1 1 26c-7 7-19 7-26 0zm0 0" id="path26"/><path d="M694 594l-99-99a18 18 0 0 1 25-26l99 99a18 18 0 0 1 0 25c-7 8-18 8-25 1zm0 0" id="path28"/><path d="M738 376L620 494a18 18 0 0 1-25-25l118-118a18 18 0 0 1 25 0 18 18 0 0 1 0 25zm0 0" id="path30"/><path d="M680 318L562 436a18 18 0 0 1-26-26l118-118a18 18 0 0 1 26 26zm0 0" id="path32"/></svg>