<svg xmlns="http://www.w3.org/2000/svg" class="icon" version="1.1" width="1024" height="1024" id="svg10"><defs id="defs4"><style type="text/css" id="style2"/></defs><path d="M878 409l-146-44 57-222c0-6 0-19-6-25-7-7-13-13-19-13L624 67h-25c-6 13-13 19-13 25l-63 216-165-44h-25c-7 0-13 19-13 25l-89 317a424 424 0 0 1-101 164c-6 7-13 20-6 32 0 13 12 19 25 26l520 139h6a48 48 0 0 0 25-13c7-6 83-88 114-177 32-83 89-323 89-330 0-19-13-31-25-38zM751 752c-25 57-70 114-89 145l-70-19c32-38 70-95 89-158 7-19-6-32-25-38-19-7-32 6-38 25-19 70-76 133-95 152l-57-12c31-38 69-95 82-153 6-19-6-31-25-38-19-6-32 7-38 26-19 63-70 126-89 152l-63-19c31-38 69-95 88-152 7-19-6-32-25-38-13-13-32 0-32 12-19 64-69 127-95 152l-57-19c32-38 70-95 83-152l76-291 164 44h26c6 0 12-6 19-13l57-221 82 19-57 222c-6 19 7 31 19 38l146 44c-13 70-51 235-76 292z" id="path6" stroke-width="1"/><path d="M365 474c0 19 6 32 25 38l340 96h6c13 0 26-6 32-26 6-19-6-32-19-38l-339-96c-20 0-39 6-45 26z" id="path8"/></svg>