<?xml version="1.0" encoding="UTF-8" standalone="no"?>
<svg
   xmlns:dc="http://purl.org/dc/elements/1.1/"
   xmlns:cc="http://creativecommons.org/ns#"
   xmlns:rdf="http://www.w3.org/1999/02/22-rdf-syntax-ns#"
   xmlns:svg="http://www.w3.org/2000/svg"
   xmlns="http://www.w3.org/2000/svg"
   xmlns:sodipodi="http://sodipodi.sourceforge.net/DTD/sodipodi-0.dtd"
   xmlns:inkscape="http://www.inkscape.org/namespaces/inkscape"
   t="1523846704096"
   class="icon"
   style=""
   viewBox="0 0 1024 1024"
   version="1.1"
   p-id="1048"
   width="1024"
   height="1024"
   id="svg10"
   sodipodi:docname="clear.svg"
   inkscape:version="0.92.1 r15371">
  <metadata
     id="metadata14">
    <rdf:RDF>
      <cc:Work
         rdf:about="">
        <dc:format>image/svg+xml</dc:format>
        <dc:type
           rdf:resource="http://purl.org/dc/dcmitype/StillImage" />
      </cc:Work>
    </rdf:RDF>
  </metadata>
  <sodipodi:namedview
     pagecolor="#ffffff"
     bordercolor="#666666"
     borderopacity="1"
     objecttolerance="10"
     gridtolerance="10"
     guidetolerance="10"
     inkscape:pageopacity="0"
     inkscape:pageshadow="2"
     inkscape:window-width="1600"
     inkscape:window-height="847"
     id="namedview12"
     showgrid="false"
     inkscape:zoom="0.23046875"
     inkscape:cx="512"
     inkscape:cy="512"
     inkscape:window-x="-8"
     inkscape:window-y="-8"
     inkscape:window-maximized="1"
     inkscape:current-layer="svg10" />
  <defs
     id="defs4">
    <style
       type="text/css"
       id="style2" />
  </defs>
  <path
     d="M 877.74865,409.25352 731.974,364.88732 789.01626,143.05634 c 0,-6.33803 0,-19.01409 -6.33803,-25.35211 -6.33803,-6.33803 -12.67606,-12.67606 -19.01408,-12.67606 L 624.22753,67 c -6.33803,0 -19.01409,0 -25.35212,0 -6.33803,12.676056 -12.67605,19.014085 -12.67605,25.352113 L 522.81908,307.84507 358.03034,263.47887 c -6.33803,0 -19.01408,0 -25.35211,0 -6.33803,0 -12.67606,19.01409 -12.67606,25.35212 l -88.73239,316.9014 c -19.01409,82.39437 -101.40845,164.78874 -101.40845,164.78874 -6.33803,6.33802 -12.67606,19.01408 -6.33803,31.69014 0,12.67605 12.67606,19.01408 25.35211,25.35211 L 668.59372,967 c 0,0 6.33803,0 6.33803,0 6.33803,0 19.01409,-6.33803 25.35211,-12.67606 6.33803,-6.33802 82.39437,-88.73239 114.08451,-177.46479 31.69014,-82.39436 88.7324,-323.23943 88.7324,-329.57746 0,-19.01408 -12.67606,-31.69014 -25.35212,-38.02817 z M 750.98809,751.50704 c -25.35211,57.04226 -69.71831,114.08451 -88.7324,145.77465 l -69.71831,-19.01408 c 31.69015,-38.02817 69.71831,-95.07043 88.7324,-158.45071 6.33803,-19.01408 -6.33803,-31.69014 -25.35211,-38.02817 -19.01409,-6.33803 -31.69014,6.33803 -38.02817,25.35212 -19.01409,69.7183 -76.05634,133.09859 -95.07042,152.11267 l -57.04226,-12.67606 c 31.69014,-38.02816 69.71831,-95.07042 82.39437,-152.11267 6.33803,-19.01409 -6.33803,-31.69014 -25.35211,-38.02817 -19.01409,-6.33803 -31.69015,6.33803 -38.02817,25.35211 -19.01409,63.38028 -69.71831,126.76057 -88.7324,152.11268 l -63.38028,-19.01409 c 31.69014,-38.02817 69.71831,-95.07042 88.73239,-152.11267 6.33803,-19.01409 -6.33802,-31.69014 -25.35211,-38.02817 -12.67605,-12.67606 -31.69014,0 -31.69014,12.67606 -19.01408,63.38028 -69.71831,126.76056 -95.07042,152.11267 L 212.25569,770.52113 C 243.94584,732.49296 281.974,675.4507 294.65006,618.40845 l 76.05634,-291.5493 164.78873,44.3662 c 6.33803,0 19.01409,0 25.35211,0 6.33803,0 12.67606,-6.33803 19.01409,-12.67605 l 57.04225,-221.83099 82.39437,19.01408 -57.04226,221.83099 c -6.33802,19.01408 6.33803,31.69014 19.01409,38.02817 l 145.77465,44.3662 c -12.67606,69.71831 -50.70423,234.50704 -76.05634,291.54929 z"
     p-id="1049"
     id="path6"
     inkscape:connector-curvature="0"
     style="stroke-width:0.99031693" />
  <path
     d="M364.8 473.6C364.8 492.8 371.2 505.6 390.4 512l339.2 96c0 0 6.4 0 6.4 0 12.8 0 25.6-6.4 32-25.6 6.4-19.2-6.4-32-19.2-38.4L409.6 448C390.4 448 371.2 454.4 364.8 473.6z"
     p-id="1050"
     id="path8" />
</svg>
