<svg xmlns="http://www.w3.org/2000/svg" width="1024" height="1024"><path d="M864 412h-50V149c0-30-7-37-36-37H153c-28 0-35 8-35 36v686c0 28 7 35 35 35h312v49l-23 1H151c-57 0-84-28-84-86V147c0-57 28-85 85-85h627c58 0 85 28 85 85v265z"/><path d="M957 694h-48c-5-70-32-129-91-170a201 201 0 0 0-122-37 208 208 0 0 0-199 161 208 208 0 0 0 99 228 206 206 0 0 0 245-30l-70-59 6-9h177v184l-72-81c-64 56-132 80-210 72a253 253 0 0 1-160-79 259 259 0 0 1-30-320 259 259 0 0 1 304-103c103 36 181 147 171 242zM386 589h-50V464H223v-51h111v-89H223v-51l33-2-42-50 38-33 62 71c17 19 64 19 81 0l63-71 38 34-43 49 45 2v50h-89c-18-1-25 4-24 23 2 21 1 42 1 66h112v51h-89c-18-1-24 4-24 23 2 33 1 67 1 103z"/><path d="M713 670c21 0 39 1 56-1 20-1 26 7 23 25l-1 26H664V570h49v100zm-502 60v-47h182v47H211zm510-409H574v-48h147v48z"/></svg>