<?xml version="1.0" encoding="utf-8"?>
<!-- Generator: Adobe Illustrator 16.0.0, SVG Export Plug-In . SVG Version: 6.00 Build 0)  -->
<!DOCTYPE svg PUBLIC "-//W3C//DTD SVG 1.1//EN" "http://www.w3.org/Graphics/SVG/1.1/DTD/svg11.dtd">
<svg version="1.1"
	 id="svg4205" xmlns:dc="http://purl.org/dc/elements/1.1/" xmlns:cc="http://creativecommons.org/ns#" xmlns:rdf="http://www.w3.org/1999/02/22-rdf-syntax-ns#" xmlns:svg="http://www.w3.org/2000/svg" sodipodi:docname="frame.svg" inkscape:version="0.91 r13725" xmlns:sodipodi="http://sodipodi.sourceforge.net/DTD/sodipodi-0.dtd" xmlns:inkscape="http://www.inkscape.org/namespaces/inkscape"
	 xmlns="http://www.w3.org/2000/svg" xmlns:xlink="http://www.w3.org/1999/xlink" x="0px" y="0px" width="1024px" height="1024px"
	 viewBox="0 0 1024 1024" enable-background="new 0 0 1024 1024" xml:space="preserve">
<g>
	<path d="M863.908,412.197c-17.797,0-32.579,0-49.966,0c0-9.451,0-17.592,0-25.736c-0.005-79.022,0.054-158.046-0.04-237.068
		c-0.027-30.083-6.443-37.025-35.389-37.045c-208.956-0.109-417.914-0.118-626.87,0.013c-27.601,0.016-34.832,7.374-34.848,35.591
		c-0.131,228.711-0.136,457.43,0.009,686.137c0.02,27.811,7.333,34.623,35.473,34.649c94.981,0.098,189.961,0.04,284.942,0.045
		c8.292,0,16.581,0,26.586,0c0,16.233,0,31.033,0,48.71c-7.447,0.472-15.388,1.421-23.331,1.425
		c-96.504,0.098-193.003,0.178-289.502,0.018c-57.219-0.098-84.506-27.931-84.517-85.826c-0.036-228.721-0.044-457.43,0.016-686.142
		c0.013-56.9,28.409-84.94,85.766-84.947c208.958-0.027,417.916-0.027,626.872-0.004c57.393,0.011,84.704,27.456,84.775,85.388
		C863.984,234.702,863.908,321.996,863.908,412.197z"/>
	<path d="M956.623,693.541c-14.778,0-29.717,0-47.215,0c-4.942-69.802-32.654-128.214-91.196-169.399
		c-36.568-25.718-77.66-38.296-122.069-37.33c-96.344,2.084-176.065,67.063-199.089,160.753
		c-21.726,88.392,18.576,181.721,98.525,228.155c78.551,45.63,179.605,34.703,245.858-29.333
		c-23.376-19.858-46.77-39.729-70.153-59.602c1.803-3.019,3.598-6.046,5.405-9.064c29.048,0,58.096,0,87.153,0
		c29.484,0,58.969,0,90.109,0c0,60.46,0,119.002,0,184.279c-26.065-29.297-48.506-54.525-72.011-80.938
		c-63.621,55.479-131.86,80.297-210.011,71.908c-62.629-6.724-116.175-33.482-159.889-79.13
		c-82.641-86.329-94.958-219.156-29.751-319.44c65.46-100.662,191.243-143.521,303.865-103.521
		C888.927,487.373,967.14,598.101,956.623,693.541z"/>
	<path d="M385.723,588.524c-17.637,0-32.49,0-49.931,0c0-40.918,0-81.534,0-124.465c-38.619,0-74.755,0-112.722,0
		c0-17.726,0-33.091,0-50.621c36.297,0,72.436,0,110.4,0c0-30.442,0-58.833,0-89.778c-36.019,0-72.229,0-110.317,0
		c0-17.854,0-33.229,0-50.349c9.297-0.735,18.747-1.478,32.742-2.58c-14.965-17.659-27.826-32.842-41.818-49.356
		c13.121-11.534,24.812-21.811,37.585-33.042c21.695,24.52,42.147,47.851,62.843,70.966c16.942,18.923,63.954,18.799,81.051-0.271
		c20.673-23.053,41.048-46.366,62.573-70.726c13.04,11.477,24.751,21.775,37.755,33.216c-13.879,16.094-26.595,30.833-42.611,49.4
		c16.829,0.757,29.763,1.34,44.541,2.001c0,16.127,0,31.45,0,49.91c-30.371,0-59.793,0.888-89.128-0.327
		c-17.786-0.739-24.542,4.869-23.293,23.146c1.432,21.043,0.334,42.257,0.334,66.004c38.029,0,74.038,0,111.987,0
		c0,17.873,0,33.153,0,51.387c-30.001,0-59.423,0.868-88.763-0.325c-17.512-0.712-24.373,4.257-23.618,22.868
		C386.712,519.475,385.723,553.461,385.723,588.524z"/>
	<path d="M712.919,669.698c21.301,0,38.751,1.216,55.95-0.316c19.689-1.763,25.834,6.567,23.545,24.747
		c-1.006,8.023-0.881,16.189-1.326,25.433c-43.221,0-84.402,0-126.754,0c0-50.34,0-99.269,0-150.031c15.468,0,30.749,0,48.581,0
		C712.919,602.055,712.919,634.224,712.919,669.698z"/>
	<path d="M210.52,729.726c0-16.068,0-30.869,0-46.765c61.068,0,120.7,0,182.174,0c0,15.13,0,29.895,0,46.765
		C333.175,729.726,273.002,729.726,210.52,729.726z"/>
	<path d="M720.56,321.368c-49.079,0-97.122,0-146.79,0c0-16.114,0-31.45,0-48.029c49.014,0,97.092,0,146.79,0
		C720.56,289.26,720.56,304.571,720.56,321.368z"/>
</g>
</svg>
