<?xml version="1.0" encoding="iso-8859-1"?>
<!-- Generator: Adobe Illustrator 19.0.0, SVG Export Plug-In . SVG Version: 6.00 Build 0)  -->
<svg version="1.1" id="&#x56FE;&#x5C42;_1" xmlns="http://www.w3.org/2000/svg" xmlns:xlink="http://www.w3.org/1999/xlink" x="0px"
	 y="0px" viewBox="0 0 1024 1024" style="enable-background:new 0 0 1024 1024;" xml:space="preserve">
<g id="XMLID_57_">
	<path id="XMLID_73_" d="M218.581,151.188c36.595,0,66.379,29.784,66.379,66.393c0,36.595-29.784,66.379-66.379,66.379
		c-36.609,0-66.393-29.784-66.393-66.379C152.188,180.972,181.972,151.188,218.581,151.188 M218.581,61
		C132.107,61,62,131.107,62,217.581s70.107,156.566,156.581,156.566s156.566-70.092,156.566-156.566S305.055,61,218.581,61
		L218.581,61z"/>
	<path id="XMLID_61_" d="M218.581,739.919c36.595,0,66.379,29.784,66.379,66.379c0,36.609-29.784,66.393-66.379,66.393
		c-36.609,0-66.393-29.784-66.393-66.393C152.188,769.703,181.972,739.919,218.581,739.919 M218.581,649.731
		C132.107,649.731,62,719.824,62,806.298s70.107,156.581,156.581,156.581s156.566-70.107,156.566-156.581
		S305.055,649.731,218.581,649.731L218.581,649.731z"/>
	<polygon id="XMLID_60_" points="311.784,305.6 378.145,371.96 378.145,453.874 803.357,885.217 962,885.217 344.446,261.532 	"/>
	<polygon id="XMLID_59_" points="311.784,718.279 378.145,651.919 378.145,570.005 803.357,138.662 962,138.662 344.446,762.347 	
		"/>
</g>
</svg>
