<?xml version="1.0" encoding="utf-8"?>
<!-- Generator: Adobe Illustrator 16.0.0, SVG Export Plug-In . SVG Version: 6.00 Build 0)  -->
<!DOCTYPE svg PUBLIC "-//W3C//DTD SVG 1.1//EN" "http://www.w3.org/Graphics/SVG/1.1/DTD/svg11.dtd">
<svg version="1.1"
	 id="图层_1" xmlns:dc="http://purl.org/dc/elements/1.1/" xmlns:cc="http://creativecommons.org/ns#" xmlns:rdf="http://www.w3.org/1999/02/22-rdf-syntax-ns#" xmlns:svg="http://www.w3.org/2000/svg" sodipodi:docname="s-delete.svg" inkscape:version="0.91 r13725" xmlns:sodipodi="http://sodipodi.sourceforge.net/DTD/sodipodi-0.dtd" xmlns:inkscape="http://www.inkscape.org/namespaces/inkscape"
	 xmlns="http://www.w3.org/2000/svg" xmlns:xlink="http://www.w3.org/1999/xlink" x="0px" y="0px" width="1024px" height="1024px"
	 viewBox="0 0 1024 1024" enable-background="new 0 0 1024 1024" xml:space="preserve">
<sodipodi:namedview  id="namedview4148" borderopacity="1" pagecolor="#ffffff" inkscape:cx="512" guidetolerance="10" showgrid="false" bordercolor="#666666" inkscape:cy="512" objecttolerance="10" gridtolerance="10" inkscape:zoom="0.23046875" inkscape:current-layer="图层_1" inkscape:window-maximized="1" inkscape:window-y="-8" inkscape:window-x="-8" inkscape:window-height="847" inkscape:pageopacity="0" inkscape:window-width="1600" inkscape:pageshadow="2">
	</sodipodi:namedview>
<g id="g7" transform="matrix(5.9120563,0,0,5.9120563,-76.546206,-33.565732)">
	<path id="path9" d="M110.609,118.944V75.381c0-1.149-0.957-2.106-2.106-2.106c-1.149,0-2.106,0.957-2.106,2.106v43.563
		c0,1.149,0.957,2.106,2.106,2.106C109.651,121.051,110.609,120.093,110.609,118.944z"/>
	<path id="path11" d="M93.088,118.944V75.381c0-1.149-0.957-2.106-2.106-2.106s-2.106,0.957-2.106,2.106v43.563
		c0,1.149,0.957,2.106,2.106,2.106C92.13,121.051,93.088,120.093,93.088,118.944z"/>
	<path id="path13" d="M128.992,71.264c-1.149,0-2.106,0.958-2.106,2.106v51.606c0,3.734-3.064,6.798-6.798,6.798H79.397
		c-3.734,0-6.798-3.064-6.798-6.798v-51.51c0-1.149-0.957-2.106-2.106-2.106s-2.106,0.957-2.106,2.106v51.51
		c0,6.127,4.979,11.106,11.106,11.106h40.595c6.128,0,11.106-4.979,11.106-11.106v-51.51
		C131.098,72.222,130.141,71.264,128.992,71.264L128.992,71.264z"/>
	<path id="path15" d="M85.62,52.69h28.244c1.149,0,2.106-0.957,2.106-2.106s-0.957-2.106-2.106-2.106H85.62
		c-1.149,0-2.106,0.957-2.106,2.106C83.418,51.733,84.375,52.69,85.62,52.69z"/>
	<path id="path17" d="M138.853,58.435H60.344c-1.149,0-2.106,0.957-2.106,2.106s0.957,2.106,2.106,2.106h78.413
		c1.149,0,2.106-0.957,2.106-2.106C140.864,59.392,140.002,58.435,138.853,58.435L138.853,58.435z"/>
</g>
<path d="M512,962c-60.741,0-119.677-11.899-175.168-35.37c-53.586-22.665-101.71-55.109-143.031-96.432
	c-41.32-41.32-73.765-89.442-96.43-143.03C73.901,631.677,62,572.741,62,512c0-60.738,11.9-119.676,35.371-175.167
	c22.667-53.587,55.109-101.711,96.431-143.03c41.321-41.321,89.445-73.766,143.032-96.432C392.325,73.9,451.26,62,512,62
	c60.739,0,119.676,11.901,175.166,35.371c53.589,22.666,101.711,55.11,143.032,96.432c41.32,41.319,73.766,89.443,96.432,143.031
	C950.1,392.324,962,451.26,962,512c0,60.741-11.901,119.679-35.372,175.166c-22.666,53.59-55.108,101.714-96.432,143.033
	c-41.319,41.32-89.442,73.768-143.03,96.433C631.676,950.099,572.74,962,512,962z M512,100.756
	c-226.762,0-411.244,184.484-411.244,411.244c0,226.761,184.483,411.244,411.244,411.244c226.76,0,411.243-184.482,411.243-411.244
	S738.76,100.756,512,100.756z"/>
</svg>
