<svg xmlns="http://www.w3.org/2000/svg" width="1024" height="1024"><path d="M577 670V412c0-7-5-12-12-12s-13 5-13 12v258c1 6 6 12 13 12s12-6 12-12zm-103 0V412c0-7-6-12-13-12s-12 5-12 12v258c0 6 6 12 12 12 7 0 13-6 13-12z"/><path d="M686 388c-7 0-12 5-12 12v305c0 22-18 40-41 40H393c-22 1-40-18-40-40V401c0-7-6-13-13-13s-12 6-12 13v304a66 66 0 0 0 66 66h240a66 66 0 0 0 65-66V401c0-8-6-13-13-13zM430 278h167c6 0 12-6 12-12s-6-13-12-13H430c-7 0-13 6-13 13 0 6 5 12 13 12zm314 34H280c-7 0-12 6-12 12s5 13 12 13h464c7 0 12-6 12-13a12 12 0 0 0-12-12z"/><path d="M512 962a447 447 0 0 1-318-132A449 449 0 0 1 62 512a447 447 0 0 1 132-318A449 449 0 0 1 512 62a447 447 0 0 1 318 132 449 449 0 0 1 132 318 447 447 0 0 1-132 318 449 449 0 0 1-318 132zm0-861a412 412 0 0 0-411 411 412 412 0 0 0 411 411 412 412 0 0 0 0-822z"/></svg>