<svg xmlns="http://www.w3.org/2000/svg" width="1024" height="1024"><path d="M467 490h23V276a214 214 0 1 0-214 214h191zM107 276a169 169 0 0 1 338 0v191l22-22H276a169 169 0 0 1-169-169zm360 304l-22-23v191a169 169 0 1 1-169-169h191zM62 748a214 214 0 1 0 428 0V535H276c-118 0-214 95-214 213zm518-191l-23 23h191a169 169 0 1 1-168 168V557zm168 405a214 214 0 1 0 0-427H535v213c0 118 95 214 213 214zM557 445l23 22V276a169 169 0 1 1 168 169H557zm405-169a214 214 0 1 0-427 0v214h213c118 0 214-96 214-214z"/></svg>