<?xml version="1.0" encoding="utf-8"?>
<!-- Generator: Adobe Illustrator 16.0.0, SVG Export Plug-In . SVG Version: 6.00 Build 0)  -->
<!DOCTYPE svg PUBLIC "-//W3C//DTD SVG 1.1//EN" "http://www.w3.org/Graphics/SVG/1.1/DTD/svg11.dtd">
<svg version="1.1" id="图层_1" xmlns="http://www.w3.org/2000/svg" xmlns:xlink="http://www.w3.org/1999/xlink" x="0px" y="0px"
	 width="1024px" height="1024px" viewBox="0 0 1024 1024" enable-background="new 0 0 1024 1024" xml:space="preserve">
<path d="M466.999,489.492h22.494V275.753c0-118.054-95.694-213.749-213.746-213.749c-118.047,0-213.746,95.694-213.746,213.749
	c0,118.049,95.694,213.745,213.746,213.745h191.252V489.492z M106.998,275.753c0-93.198,75.554-168.75,168.749-168.75
	c93.2,0,168.748,75.551,168.748,168.75v191.25l22.504-22.5H275.747C182.552,444.503,106.998,368.953,106.998,275.753
	L106.998,275.753z M466.999,579.502l-22.505-22.5v191.25c0,93.192-75.548,168.743-168.747,168.743
	c-93.194,0-168.749-75.551-168.749-168.743c0-93.2,75.554-168.75,168.749-168.75H466.999z M62.001,748.252
	C62.001,866.301,157.695,962,275.747,962c118.052,0,213.751-95.699,213.751-213.748V534.497H275.747
	c-118.047,0-213.746,95.694-213.746,213.749V748.252z M579.495,557.002l-22.499,22.494h191.246
	c93.2,0,168.754,75.556,168.754,168.756c0,93.192-75.554,168.743-168.754,168.743c-93.193,0-168.747-75.551-168.747-168.743V557.002
	z M748.242,962c118.053,0,213.752-95.699,213.752-213.748c0-118.05-95.699-213.75-213.752-213.75H534.497v213.75
	C534.497,866.301,630.19,962,748.242,962z M557.002,444.498l22.499,22.495v-191.24c0-93.198,75.552-168.75,168.748-168.75
	c93.199,0,168.751,75.551,168.751,168.75c0,93.194-75.552,168.75-168.751,168.75H557.002V444.498z M962,275.748
	C962,157.694,866.306,62,748.253,62c-118.051,0-213.752,95.694-213.752,213.749v213.744h213.752
	C866.301,489.492,962,393.798,962,275.748z"/>
</svg>
