<?xml version="1.0" encoding="utf-8"?>
<!-- Generator: Adobe Illustrator 16.0.0, SVG Export Plug-In . SVG Version: 6.00 Build 0)  -->
<!DOCTYPE svg PUBLIC "-//W3C//DTD SVG 1.1//EN" "http://www.w3.org/Graphics/SVG/1.1/DTD/svg11.dtd">
<svg version="1.1" id="图层_1" xmlns="http://www.w3.org/2000/svg" xmlns:xlink="http://www.w3.org/1999/xlink" x="0px" y="0px"
	 width="1024px" height="1024px" viewBox="0 0 1024 1024" enable-background="new 0 0 1024 1024" xml:space="preserve">
<path d="M566.386,683.429H457.614l-33.258,73.157c-4.657,10.879-17.253,15.923-28.132,11.265
	c-10.879-4.657-15.923-17.253-11.266-28.132c0.126-0.295,0.259-0.587,0.399-0.876L492.5,503.128
	c4.906-10.77,17.615-15.522,28.383-10.615c4.704,2.142,8.474,5.913,10.615,10.615l107.144,235.714
	c5.142,10.66,0.667,23.47-9.992,28.61c-10.66,5.141-23.468,0.667-28.61-9.993c-0.138-0.288-0.271-0.579-0.396-0.874L566.386,683.429
	z M546.886,640.571L512,563.771l-34.886,76.8H546.886L546.886,640.571z M297.714,62h557.142c11.835-0.001,21.43,9.592,21.431,21.427
	c0.001,11.834-9.592,21.429-21.427,21.43c-0.001,0-0.002,0-0.004,0H297.714c-59.173,0-107.143,47.97-107.143,107.143
	c0,59.173,47.97,107.143,107.143,107.143h557.142c11.835,0,21.43,9.594,21.43,21.428v600c0,11.835-9.595,21.429-21.43,21.429
	H297.714c-82.843,0-150-67.157-150-150V212C147.714,129.157,214.871,62,297.714,62z M190.571,317v495
	c0,59.173,47.97,107.143,107.143,107.143c0,0,0,0,0,0h535.714V362H297.714C257.395,362.055,218.76,345.828,190.571,317L190.571,317z
	 M297.714,233.429c-11.835-0.001-21.428-9.596-21.427-21.431c0-11.833,9.593-21.425,21.427-21.427H812
	c11.834-0.001,21.429,9.592,21.43,21.427c0.002,11.834-9.592,21.429-21.427,21.431c-0.001,0-0.002,0-0.003,0H297.714z"/>
</svg>
