<?xml version="1.0" encoding="utf-8"?>
<!-- Generator: Adobe Illustrator 16.0.0, SVG Export Plug-In . SVG Version: 6.00 Build 0)  -->
<!DOCTYPE svg PUBLIC "-//W3C//DTD SVG 1.1//EN" "http://www.w3.org/Graphics/SVG/1.1/DTD/svg11.dtd">
<svg version="1.1" id="图层_1" xmlns="http://www.w3.org/2000/svg" xmlns:xlink="http://www.w3.org/1999/xlink" x="0px" y="0px"
	 width="1024px" height="1024px" viewBox="0 0 1024 1024" enable-background="new 0 0 1024 1024" xml:space="preserve">
<path d="M856.416,62H648.202C590.805,62,544.1,108.501,544.1,165.639V372.92c0,57.146,46.703,103.644,104.103,103.644h208.214
	c57.402,0,104.109-46.466,104.109-103.644V165.639C960.524,108.501,913.812,62,856.416,62L856.416,62z"/>
<path d="M374.32,545.659H166.104C108.705,545.659,62,592.16,62,649.297v207.282c0,57.144,46.71,103.641,104.104,103.641H374.32
	c57.397,0,104.104-46.464,104.104-103.641V649.297C478.424,592.16,431.717,545.659,374.32,545.659L374.32,545.659z"/>
<path d="M729.658,860.465"/>
<path d="M374.32,62H166.104C108.705,62,62,108.501,62,165.639V372.92c0,57.146,46.71,103.644,104.104,103.644H374.32
	c57.397,0,104.104-46.466,104.104-103.644V165.639C478.424,108.501,431.712,62,374.32,62L374.32,62z"/>
<path d="M956.285,927.87"/>
<path d="M952.998,907.66l-76.412-76.522c22.02-30.047,35.005-66.628,35.005-105.479c0-102.024-83.077-183.569-185.559-183.569
	c-102.485,0-185.562,81.545-185.562,183.569c0,102.03,83.076,182.125,185.562,182.125c38.728,0,74.681-11.977,104.429-32.178
	l77.275,77.384c11.998,12.014,31.455,12.014,43.451,0l1.809-1.813C965.001,939.156,965.001,919.674,952.998,907.66z
	 M726.032,849.751c-69.957,0-126.668-54.679-126.668-124.322c0-69.645,56.709-125.31,126.668-125.31
	c69.957,0,126.664,55.669,126.664,125.31C852.697,792.538,795.99,849.751,726.032,849.751z"/>
</svg>
