<svg xmlns="http://www.w3.org/2000/svg" width="1024" height="1024"><path d="M856 62H648a104 104 0 0 0-104 104v207a104 104 0 0 0 104 104h208a104 104 0 0 0 105-104V166A104 104 0 0 0 857 62zM374 546H166A104 104 0 0 0 62 649v208a104 104 0 0 0 104 103h208a104 104 0 0 0 104-103V649a104 104 0 0 0-104-103zm0-484H166A104 104 0 0 0 62 166v207a104 104 0 0 0 104 104h208a104 104 0 0 0 104-104V166A104 104 0 0 0 374 62zm579 846l-76-77c22-30 35-67 35-105 0-102-83-184-186-184a184 184 0 0 0-185 184c0 102 83 182 185 182 39 0 75-12 105-32l77 77c12 12 31 12 43 0l2-2c12-12 12-31 0-43zm-227-58a125 125 0 1 1 0-250c70 0 127 56 127 125 0 68-57 125-127 125z"/></svg>