<?xml version="1.0" encoding="utf-8"?>
<!-- Generator: Adobe Illustrator 16.0.0, SVG Export Plug-In . SVG Version: 6.00 Build 0)  -->
<!DOCTYPE svg PUBLIC "-//W3C//DTD SVG 1.1//EN" "http://www.w3.org/Graphics/SVG/1.1/DTD/svg11.dtd">
<svg version="1.1" id="图层_1" xmlns="http://www.w3.org/2000/svg" xmlns:xlink="http://www.w3.org/1999/xlink" x="0px" y="0px"
	 width="1024px" height="1024px" viewBox="0 0 1024 1024" enable-background="new 0 0 1024 1024" xml:space="preserve">
<path fill="#BD2A35" d="M536.903,323.164c2.355,1.403,4.26,5.684,4.26,9.549l0,0V830.51c0,3.866-1.904,5.862-4.26,4.455
	L311.731,700.293c-2.35-1.402-4.26-5.678-4.26-9.544V192.968c0-3.866,1.91-5.857,4.26-4.455l225.172,134.671 M536.903,291.185
	L311.736,156.513c-13.097-7.792-23.711,3.297-23.736,24.807v497.802c0.025,21.534,10.639,45.327,23.736,53.196L536.909,866.99
	c13.097,7.787,23.71-3.303,23.736-24.807V344.382C560.614,322.842,550.001,299.054,536.903,291.185z"/>
<path fill="#BD2A35" d="M837.78,99.502c6.527,0.018,11.813,5.298,11.838,11.826v801.337c-0.024,6.527-5.311,11.813-11.838,11.838
	H186.22c-6.522-0.024-11.808-5.298-11.838-11.825V111.34c0.019-6.528,5.31-11.813,11.838-11.838H837.78 M837.78,62.002H186.22
	c-27.234,0.024-49.302,22.092-49.338,49.325v801.337c0.024,27.234,22.098,49.313,49.338,49.338h651.56
	c27.233-0.024,49.301-22.092,49.338-49.325V111.34C887.094,84.1,865.014,62.026,837.78,62.002z"/>
<path fill="#BD2A35" d="M502.216,638.51c-5.381-3.22-9.738-12.984-9.738-21.826V488.848c0-8.838,4.357-13.395,9.738-10.179
	c5.381,3.215,9.738,12.989,9.738,21.826v127.836C511.954,637.169,507.597,641.726,502.216,638.51z"/>
</svg>
