<svg xmlns="http://www.w3.org/2000/svg" width="1024" height="1024"><path fill="#F4B846" d="M697 289c4 0 7 4 7 8v498c0 3-3 6-7 5l-370-65c-4-1-7-4-7-8V229c0-4 3-6 7-6l370 65m0-31l-370-66c-21-4-39 11-39 32v498c0 22 18 42 39 46l370 65c22 4 39-10 39-32V302c0-21-17-42-39-45z"/><path fill="#F4B846" d="M838 100c6 0 12 5 12 11v802c0 6-6 11-12 11H186c-6 0-12-5-12-11V111c0-6 6-12 12-12h652m0-37H186c-27 0-49 22-49 49v802a49 49 0 0 0 49 49h652c27 0 49-22 49-49V111a49 49 0 0 0-49-49z"/><path fill="#F4B846" d="M640 615a20 20 0 0 1-16-19V468c0-9 7-15 16-13a20 20 0 0 1 16 19v127c0 9-7 15-16 13z"/></svg>