<?xml version="1.0" encoding="utf-8"?>
<!-- Generator: Adobe Illustrator 16.0.0, SVG Export Plug-In . SVG Version: 6.00 Build 0)  -->
<!DOCTYPE svg PUBLIC "-//W3C//DTD SVG 1.1//EN" "http://www.w3.org/Graphics/SVG/1.1/DTD/svg11.dtd">
<svg version="1.1" id="图层_1" xmlns="http://www.w3.org/2000/svg" xmlns:xlink="http://www.w3.org/1999/xlink" x="0px" y="0px"
	 width="1024px" height="1024px" viewBox="0 0 1024 1024" enable-background="new 0 0 1024 1024" xml:space="preserve">
<path fill="#F4B846" d="M697.001,288.451c3.865,0.681,6.999,4.373,6.999,8.233l0,0v497.802c0,3.866-3.134,6.446-6.999,5.766
	l-370.002-65.239c-3.866-0.681-6.999-4.372-6.999-8.232V228.997c0-3.866,3.133-6.446,6.999-5.765l370.002,65.239 M697.001,256.471
	l-370.002-65.239c-21.52-3.758-38.958,10.609-38.999,32.123v497.802c0.041,21.524,17.479,42.04,38.999,45.875l370.002,65.239
	c21.52,3.753,38.958-10.608,38.999-32.123V302.347C735.959,280.816,718.521,260.301,697.001,256.471z"/>
<path fill="#F4B846" d="M837.78,99.502c6.527,0.018,11.813,5.298,11.838,11.826v801.337c-0.024,6.527-5.311,11.813-11.838,11.838
	H186.22c-6.522-0.024-11.808-5.298-11.838-11.825V111.34c0.019-6.528,5.31-11.813,11.838-11.838H837.78 M837.78,62.002H186.22
	c-27.234,0.024-49.302,22.092-49.338,49.325v801.337c0.024,27.234,22.098,49.313,49.338,49.338h651.56
	c27.233-0.024,49.301-22.092,49.338-49.325V111.34C887.094,84.1,865.014,62.026,837.78,62.002z"/>
<path fill="#F4B846" d="M640,614.492c-8.842-1.562-16-9.979-16-18.821V467.83c0-8.838,7.158-14.735,16-13.18
	c8.842,1.557,16,9.984,16,18.821v127.842C656,610.15,648.842,616.049,640,614.492z"/>
</svg>
