<?xml version="1.0" encoding="utf-8"?>
<!-- Generator: Adobe Illustrator 16.0.0, SVG Export Plug-In . SVG Version: 6.00 Build 0)  -->
<!DOCTYPE svg PUBLIC "-//W3C//DTD SVG 1.1//EN" "http://www.w3.org/Graphics/SVG/1.1/DTD/svg11.dtd">
<svg version="1.1" id="图层_1" xmlns="http://www.w3.org/2000/svg" xmlns:xlink="http://www.w3.org/1999/xlink" x="0px" y="0px"
	 width="1024px" height="1024px" viewBox="0 0 1024 1024" enable-background="new 0 0 1024 1024" xml:space="preserve">
<path fill="#F4B846" d="M697,255.83c3.866,0,7,3.134,7,7l0,0v497.8c0,3.866-3.134,7-7,7H327c-3.866,0-7-3.134-7-7V262.85
	c0-3.866,3.134-7,7-7h370 M697,223.85H327c-21.523,0.039-38.961,17.477-39,39v497.8c0.039,21.522,17.477,38.961,39,39h370
	c21.523-0.039,38.962-17.478,39-39v-497.8C735.962,241.327,718.523,223.889,697,223.85L697,223.85z"/>
<path fill="#F4B846" d="M837.781,99.5c6.524,0.02,11.811,5.3,11.836,11.824v801.34c-0.019,6.529-5.307,11.816-11.836,11.836H186.219
	c-6.524-0.02-11.81-5.3-11.836-11.824v-801.34c0.02-6.529,5.307-11.816,11.836-11.836H837.781 M837.781,62H186.219
	c-27.232,0.026-49.303,22.092-49.336,49.324v801.34c0.026,27.237,22.099,49.31,49.336,49.336h651.563
	c27.232-0.026,49.304-22.092,49.336-49.324v-801.34C887.092,84.099,865.019,62.026,837.781,62z"/>
<path fill="#F4B846" d="M640,591.92c-8.837,0-16-7.163-16-16V448.08c0-8.837,7.163-16,16-16s16,7.163,16,16v127.84
	C656,584.757,648.837,591.92,640,591.92z"/>
</svg>
