<svg xmlns="http://www.w3.org/2000/svg" width="1024" height="1024"><path fill="#F4B846" d="M697 256a7 7 0 0 1 7 7v498a7 7 0 0 1-7 7H327a7 7 0 0 1-7-7V263a7 7 0 0 1 7-7h370m0-32H327a39 39 0 0 0-39 39v498a39 39 0 0 0 39 39h370a39 39 0 0 0 39-39V263a39 39 0 0 0-39-39z"/><path fill="#F4B846" d="M838 100c6 0 12 5 12 11v802c0 6-6 11-12 11H186c-6 0-12-5-12-11V111c0-6 6-12 12-12h652m0-37H186c-27 0-49 22-49 49v802a49 49 0 0 0 49 49h652c27 0 49-22 49-49V111a49 49 0 0 0-49-49z"/><path fill="#F4B846" d="M640 592a16 16 0 0 1-16-16V448a16 16 0 1 1 32 0v128a16 16 0 0 1-16 16z"/></svg>