<svg xmlns="http://www.w3.org/2000/svg" width="1024" height="1024"><path fill="#BD2A35" d="M537 323c2 2 4 6 4 10v498c0 3-2 5-4 4L312 700c-3-1-5-5-5-9V193c1-4 2-6 5-4l225 134m0-32L312 157c-13-8-24 3-24 24v498c0 22 11 45 24 53l225 135c13 8 24-3 24-25V344c0-21-11-45-24-53z"/><path fill="#BD2A35" d="M838 100c6 0 12 5 12 11v802c0 6-6 11-12 11H186c-6 0-12-5-12-11V111c0-6 6-12 12-12h652m0-37H186c-27 0-49 22-49 49v802a49 49 0 0 0 49 49h652c27 0 49-22 49-49V111a49 49 0 0 0-49-49z"/><path fill="#BD2A35" d="M502 639c-5-4-10-13-10-22V489c1-9 5-13 10-10 6 3 10 13 10 21v128c0 9-4 14-10 10z"/></svg>