<svg xmlns="http://www.w3.org/2000/svg" width="1024" height="1024"><path d="M547 505l217-215a15 15 0 0 0 1-21 15 15 0 0 0-21 1L526 485a15 15 0 0 0 0 20 15 15 0 0 0 21 0z"/><path d="M325 252c-40 0-73 41-73 92v336c0 51 33 92 73 92h340l3-1h23c45 0 81-41 81-91V405l-31 1v274c0 31-23 56-50 56H325c-24 0-45-25-45-56V343c0-31 21-56 45-56h340c7 0 14-8 14-18s-7-17-14-17H325z"/><path d="M512 962a447 447 0 0 1-318-132A449 449 0 0 1 62 512a447 447 0 0 1 132-318A449 449 0 0 1 512 62a447 447 0 0 1 318 132 449 449 0 0 1 132 318 447 447 0 0 1-132 318 449 449 0 0 1-318 132zm0-861a412 412 0 0 0-411 411 412 412 0 0 0 411 411 412 412 0 0 0 0-822z"/></svg>