<svg xmlns="http://www.w3.org/2000/svg" width="1024" height="1024"><path fill="#1AFA29" d="M511 62c-4 0-8 2-11 4L126 372l-57 46a21 21 0 0 0-7 19c1 7 5 13 12 15a18 18 0 0 0 18-2l26-22v515a19 19 0 0 0 19 19h750a19 19 0 0 0 19-19V428l26 21a18 18 0 0 0 18 3 19 19 0 0 0 12-15c1-7-2-14-7-19l-56-46L524 66a22 22 0 0 0-13-4zm1 45l356 291v525H156V398l356-291zm-75 249a19 19 0 0 0-19 19v220a138 138 0 0 0-37 93c0 75 59 137 131 137s131-62 131-137c0-37-15-69-37-93v-83h37c7 0 13-3 17-9a21 21 0 0 0 0-20 18 18 0 0 0-17-10h-37v-39h37c7 0 13-3 17-10a21 21 0 0 0 0-19 18 18 0 0 0-17-10h-37v-20a19 19 0 0 0-19-19H437zm19 39h112v205c0 6 2 11 6 15a99 99 0 0 1 32 73c0 54-42 98-94 98s-94-44-94-98c0-29 12-55 31-73 4-4 7-9 7-15V395zm37 58v180a59 59 0 0 0-37 55 57 57 0 0 0 56 58 58 58 0 0 0 56-58 58 58 0 0 0-37-55V453h-38z"/></svg>