<?xml version="1.0" encoding="utf-8"?>
<!-- Generator: Adobe Illustrator 16.0.0, SVG Export Plug-In . SVG Version: 6.00 Build 0)  -->
<!DOCTYPE svg PUBLIC "-//W3C//DTD SVG 1.1//EN" "http://www.w3.org/Graphics/SVG/1.1/DTD/svg11.dtd">
<svg version="1.1" id="图层_1" xmlns="http://www.w3.org/2000/svg" xmlns:xlink="http://www.w3.org/1999/xlink" x="0px" y="0px"
	 width="1024px" height="1024px" viewBox="0 0 1024 1024" enable-background="new 0 0 1024 1024" xml:space="preserve">
<path fill="#1AFA29" d="M511.202,62c-4.092,0-7.813,1.553-10.79,4.271L126.12,372.224l-56.925,46.203
	c-5.208,4.271-7.813,11.26-7.069,18.25c1.116,6.988,5.209,12.813,11.534,15.53c6.216,2.668,13.328,1.629,18.603-2.717l26.044-21.354
	v514.452c0,10.872,8.558,19.413,18.603,19.413h750.072c10.418,0,18.604-8.93,18.604-19.413V428.135l26.044,21.354
	c5.208,4.271,12.277,5.436,18.603,2.717c6.324-2.717,10.789-8.542,11.534-15.53c1.117-6.989-1.859-13.978-7.069-18.25l-55.81-45.815
	L523.479,65.883C520.131,63.553,515.666,62,511.202,62z M511.946,106.65l356.433,290.812v525.712H155.512V397.461L511.946,106.65
	L511.946,106.65z M436.79,355.529c-10.418,0-18.604,8.93-18.604,19.413v219.76c-22.324,24.46-37.578,56.686-37.578,93.184
	c0,75.323,59.158,137.058,131.337,137.058s131.338-61.734,131.338-137.058c0-36.498-15.257-68.724-37.578-93.184v-82.313h37.578
	c6.696,0,13.021-3.494,16.369-9.706c3.35-6.213,3.35-13.589,0-19.802c-3.349-6.212-9.673-9.707-16.369-9.707h-37.578v-39.215h37.578
	c6.696,0,13.021-3.494,16.369-9.706c3.35-6.212,3.35-13.589,0-19.802c-3.349-6.212-9.673-9.706-16.369-9.706h-37.578V375.33
	c0-10.872-8.559-19.414-18.604-19.414L436.79,355.529L436.79,355.529z M455.765,394.743h112.362v16.308
	c-0.371,1.941-0.371,4.271,0,6.212v71.83c-0.371,1.941-0.371,4.271,0,6.212v105.22c0,5.437,2.231,10.872,6.325,14.755
	c19.348,17.859,31.254,43.873,31.254,72.993c0,54.357-41.672,97.844-93.76,97.844s-93.759-43.486-93.759-97.844
	c0-29.12,11.906-55.134,31.253-72.993c4.093-3.883,6.326-8.931,6.326-14.755v-39.991V394.743L455.765,394.743z M493.342,453.372
	v179.379c-22.323,8.153-37.577,30.284-37.577,55.134c0,32.614,25.299,58.628,56.181,58.628c30.88,0,56.181-26.402,56.181-58.628
	c0-24.85-14.883-46.98-37.578-55.134V453.372H493.342L493.342,453.372z"/>
</svg>
