<?xml version="1.0" encoding="iso-8859-1"?>
<!-- Generator: Adobe Illustrator 19.0.0, SVG Export Plug-In . SVG Version: 6.00 Build 0)  -->
<svg version="1.1" id="&#x56FE;&#x5C42;_1" xmlns="http://www.w3.org/2000/svg" xmlns:xlink="http://www.w3.org/1999/xlink" x="0px"
	 y="0px" viewBox="0 0 1024 1024" style="enable-background:new 0 0 1024 1024;" xml:space="preserve">
<g id="XMLID_338_">
	<g id="XMLID_348_">
		<path id="XMLID_430_" d="M452.936,62"/>
	</g>
	<g id="XMLID_347_">
		<path id="XMLID_429_" d="M64.285,430.601"/>
	</g>
	<g id="XMLID_346_">
		<path id="XMLID_427_" d="M823.311,961.61H200.642c-76.461,0-138.689-62.278-138.689-138.831V568.006
			c0-27.6,22.249-49.978,49.744-49.978s49.744,22.378,49.744,49.978v254.772c0,21.426,17.585,38.875,39.202,38.875h622.668
			c21.617,0,39.202-17.448,39.202-38.875V200.831c0-21.426-17.585-38.875-39.202-38.875H519.7
			c-27.495,0-49.744-22.378-49.744-49.978S492.205,62,519.7,62h303.61C899.772,62,962,124.278,962,200.831v621.947
			C962,899.332,899.772,961.61,823.311,961.61z"/>
	</g>
	<g id="XMLID_345_">
		<path id="XMLID_428_" d="M347.199,598.447L73.002,369.654c-10.942-9.131-10.942-26.002,0-35.132l274.197-228.793
			c14.81-12.357,37.247-1.775,37.247,17.566V580.88C384.446,600.222,362.008,610.804,347.199,598.447z"/>
	</g>
	<g id="XMLID_340_">
		<path id="XMLID_426_" d="M377.5,246.3c0,0,454.701-49.978,422.176,566.956c0,0-32.183-384.223-422.176-377.976V246.3z"/>
	</g>
</g>
</svg>
