<?xml version="1.0" encoding="utf-8"?>
<!-- Generator: Adobe Illustrator 16.0.0, SVG Export Plug-In . SVG Version: 6.00 Build 0)  -->
<!DOCTYPE svg PUBLIC "-//W3C//DTD SVG 1.1//EN" "http://www.w3.org/Graphics/SVG/1.1/DTD/svg11.dtd">
<svg version="1.1" id="图层_1" xmlns="http://www.w3.org/2000/svg" xmlns:xlink="http://www.w3.org/1999/xlink" x="0px" y="0px"
	 width="1024px" height="1024px" viewBox="0 0 1024 1024" enable-background="new 0 0 1024 1024" xml:space="preserve">
<path fill="#CDCDCD" d="M254.21,143.201C50.562,285.588,0.814,566.142,143.201,769.791
	c142.387,203.646,422.941,253.395,626.589,111.008c203.647-142.386,253.395-422.94,111.009-626.588
	C738.412,50.562,457.858,0.815,254.21,143.201z M748.696,850.652c-187.036,130.696-444.562,85.08-575.347-101.956
	C42.652,561.659,88.268,304.046,275.305,173.348c187.036-130.697,444.563-85.08,575.347,101.956
	C981.349,462.34,935.732,719.867,748.696,850.652z"/>
<path fill="#CDCDCD" d="M290.597,195.234C115.691,317.58,72.975,558.496,195.234,733.402
	c122.26,174.907,363.174,217.623,538.168,95.364c174.996-122.259,217.624-363.261,95.364-538.168
	C706.418,115.691,465.505,72.974,290.597,195.234z M722.944,813.737C556.298,930.195,326.81,889.5,210.264,722.943
	C93.806,556.299,134.5,326.809,301.057,210.263C467.702,93.805,697.19,134.5,813.737,301.057
	C930.195,467.702,889.5,697.19,722.944,813.737z"/>
<path fill="#CDCDCD" d="M317.668,506.726c1.67-59.503,30.499-117.425,82.972-154.076c52.471-36.651,116.809-43.859,173.236-24.962
	l18.897-13.184c-64.865-26.368-141.332-20.479-202.945,22.589c-61.613,43.067-93.606,112.854-91.058,182.817L317.668,506.726z"/>
<path fill="#CDCDCD" d="M706.331,517.273c-1.671,59.504-30.499,117.426-82.972,154.077
	c-52.472,36.739-116.809,43.858-173.236,24.961l-18.897,13.185c64.865,26.367,141.332,20.479,202.944-22.589
	c61.614-43.067,93.607-112.854,91.058-182.817L706.331,517.273z"/>
<path fill="#CDCDCD" d="M314.329,229.16l29.531,22.325l30.323-21.183l-12.129,34.981l29.532,22.238l-36.915-0.615l-12.13,34.981
	l-10.811-35.42l-37.002-0.703l30.323-21.183L314.329,229.16z"/>
<path fill="#CDCDCD" d="M213.34,339.202l36.124,7.735l18.545-31.994l3.868,36.828l36.212,7.647l-33.839,15.029l3.779,36.827
	l-24.698-27.51l-33.839,15.029l18.545-32.081L213.34,339.202z"/>
<path fill="#CDCDCD" d="M452.321,172.117l17.403,32.697l36.388-6.416l-25.665,26.631l17.315,32.696l-33.224-16.26l-25.753,26.631
	l5.186-36.651l-33.224-16.26l36.387-6.416L452.321,172.117z"/>
<path fill="#CDCDCD" d="M601.563,178.798l1.934,36.915l35.685,9.58l-34.542,13.272l1.934,36.915l-23.291-28.741L548.74,260.01
	l20.215-31.026l-23.291-28.829l35.684,9.668L601.563,178.798z"/>
<path fill="#CDCDCD" d="M168.25,481.677l36.125-8.35l3.252-36.827l18.984,31.729l36.036-8.261l-24.258,27.861l19.072,31.73
	l-34.102-14.502l-24.258,27.95l3.252-36.828L168.25,481.677z"/>
<path fill="#CDCDCD" d="M709.671,794.84l-29.532-22.325l-30.322,21.183l12.129-34.981l-29.532-22.237l36.915,0.616l12.129-34.981
	l10.811,35.421l37.003,0.702l-30.323,21.183L709.671,794.84z"/>
<path fill="#CDCDCD" d="M810.66,684.798l-36.125-7.734l-18.545,31.993l-3.867-36.827l-36.211-7.646l33.838-15.03l-3.779-36.827
	l24.698,27.511l33.839-15.029l-18.546,32.081L810.66,684.798z"/>
<path fill="#CDCDCD" d="M571.679,851.882l-17.402-32.696l-36.389,6.417l25.665-26.632l-17.314-32.695l33.224,16.26l25.753-26.632
	l-5.187,36.651l33.224,16.26l-36.387,6.416L571.679,851.882z"/>
<path fill="#CDCDCD" d="M422.437,845.203l-1.934-36.916l-35.684-9.58l34.542-13.271l-1.934-36.915l23.292,28.741l34.542-13.272
	l-20.216,31.026l23.292,28.829l-35.684-9.668L422.437,845.203z"/>
<path fill="#CDCDCD" d="M855.749,542.323l-36.124,8.35l-3.252,36.827l-18.985-31.729l-36.036,8.262l24.259-27.862l-19.073-31.729
	l34.103,14.503l24.259-27.95l-3.252,36.826L855.749,542.323z"/>
<path fill="#CDCDCD" d="M407.935,584.776l-97.298,68.116l30.499,43.508c4.131,5.888,9.053,6.767,14.854,2.724l79.104-55.372
	c2.724-1.934,4.57-4.57,5.449-7.998c0.791-4.044-4.219-14.591-14.942-31.817l17.931-5.537c11.953,21.095,17.578,34.63,16.963,40.694
	c-1.318,6.152-5.098,11.514-11.163,16.26l-87.454,61.262c-13.008,9.141-24.346,6.855-33.926-6.768l-57.481-82.18l15.117-10.636
	l15.03,21.534l82.092-57.482l-26.279-37.53l-104.505,73.215l-10.019-14.326l119.622-83.762L407.935,584.776z"/>
<path fill="#CDCDCD" d="M596.377,555.946c-5.449,3.868-15.293,10.548-29.532,20.216c-10.724,7.296-20.039,12.569-28.037,15.646
	c-7.823,2.637-16.173,3.076-25.05,1.143c-4.043-1.056-7.031-0.879-9.054,0.439c-3.34,2.373-4.042,13.711-2.021,34.015l-18.194-2.55
	c-1.143-18.633,0.352-31.904,4.395-39.728l-31.113-44.474l-21.446,15.029l-10.02-14.063l35.772-25.05l41.837,59.768
	c1.23-0.088,2.637,0.176,4.219,0.615c6.679,1.406,12.833,1.758,18.458,0.879c6.504-1.23,14.679-5.098,24.522-11.602
	c12.568-8.438,23.731-16.172,33.487-22.94l21.621-15.381c7.207-5.537,12.744-9.845,16.523-13.008l6.944,17.666L596.377,555.946z
	 M402.837,480.974c16.348,0.792,31.113,2.637,44.21,5.713l-3.252,18.458c-12.657-3.691-27.423-6.152-44.298-7.295L402.837,480.974z
	 M555.242,553.309l-13.447-12.217c7.295-4.131,13.976-8.35,20.04-12.656c3.955-2.813,4.834-5.89,2.461-9.229l-44.562-63.722
	l-56.251,39.376l-10.196-14.502l56.251-39.375l-16.963-24.258l15.118-10.636l16.963,24.259l21.094-14.767l10.196,14.502
	l-21.094,14.767l47.11,67.325c7.031,10.021,5.186,18.721-5.45,26.104L555.242,553.309z M491.169,492.663
	c17.051,5.099,31.026,10.196,41.925,15.294l-6.416,17.666c-11.25-5.8-25.225-11.337-42.101-16.787L491.169,492.663z"/>
<path fill="#CDCDCD" d="M658.342,472.624c2.197,14.942,2.285,29.357,0.439,43.156l-17.755-0.265
	c2.374-12.744,2.813-26.192,1.318-40.431L658.342,472.624z M557.265,371.635l14.503-10.195l11.337,16.26l27.247-19.073
	l-11.162-15.908l14.502-10.196l11.162,15.909l8.175-5.713l9.756,13.887l-8.174,5.713l44.298,63.195l8.965-6.328l9.756,13.887
	l-75.499,52.912l-9.757-13.887l10.283-7.208l-44.297-63.107l-8.526,5.977l-9.756-13.887l8.525-5.978L557.265,371.635z
	 M620.109,372.513l-27.247,19.073l8.701,12.481l27.247-19.073L620.109,372.513z M619.317,429.469l27.247-19.073l-8.613-12.305
	l-27.247,19.073L619.317,429.469z M637.159,454.782l27.247-19.073l-8.613-12.305l-27.247,19.073L637.159,454.782z M676.184,450.914
	c12.042,3.604,22.324,7.296,30.763,11.075c-0.879-20.215-8.35-40.519-22.413-60.91l-52.735-75.324l55.813-39.112l86.574,123.577
	c7.207,10.284,5.624,19.073-4.658,26.28l-16.437,11.514l-14.326-11.777c7.822-4.922,13.271-8.351,16.172-10.372
	c3.428-2.46,3.604-5.889,0.439-10.458l-19.863-28.39l-26.808,18.81c12.217,22.149,18.019,43.771,17.315,64.953l-17.667-2.461
	l-4.571,12.568c-8.876-4.922-20.215-9.756-33.926-14.59L676.184,450.914z M699.476,335.511L682.6,311.428l-25.841,18.106
	l16.876,24.082L699.476,335.511z M683.127,367.153l16.964,24.258l25.84-18.105l-16.963-24.258L683.127,367.153z"/>
</svg>
