<svg xmlns="http://www.w3.org/2000/svg" width="1024" height="1024"><path fill="#CDCDCD" d="M254 143a450 450 0 1 0 516 738 450 450 0 0 0-516-738zm495 708a413 413 0 1 1-474-678 413 413 0 0 1 474 678z"/><path fill="#CDCDCD" d="M291 195a387 387 0 1 0 443 634 387 387 0 0 0-443-634zm432 619a368 368 0 0 1-422-604 368 368 0 0 1 422 604z"/><path fill="#CDCDCD" d="M318 507a194 194 0 0 1 256-179l19-14a213 213 0 0 0-294 206l19-13zm388 10a194 194 0 0 1-83 154 194 194 0 0 1-173 25l-19 13a213 213 0 0 0 294-205l-19 13zM314 229l30 22 30-21-12 35 30 23-37-1-12 35-11-36h-37l30-21-11-36zM213 339l37 8 18-32 4 37 36 7-34 15 4 37-25-27-33 15 18-32-25-28zm239-167l18 33 36-7-26 27 18 33-34-17-25 27 5-37-33-16 36-6 5-37zm150 7l2 37 35 9-34 14 2 37-24-29-34 13 20-31-23-29 35 10 21-31zM168 482l36-9 4-36 19 31 36-8-25 28 19 32-34-15-24 28 3-37-34-14zm542 313l-30-22-30 21 12-35-30-22h37l12-35 11 36h37l-30 21 11 36zm101-110l-36-8-19 32-4-37-36-7 34-15-4-37 25 27 34-15-19 32 25 28zM572 852l-18-33-36 7 26-27-18-33 34 16 25-26-5 37 33 16-36 6-5 37zm-150-7l-2-37-35-9 34-14-2-36 24 28 34-13-20 31 23 29-35-10-21 31zm434-303l-36 9-4 36-19-31-36 8 25-28-19-32 34 15 24-28-3 37 34 14zm-448 43l-97 68 30 43c4 6 9 7 15 3l79-55c3-2 5-5 6-8 0-4-5-15-15-32l18-6c12 21 17 35 17 41a28 28 0 0 1-12 16l-87 62c-13 9-24 7-34-7l-57-82 15-11 15 22 82-58-26-37-105 73-10-15 120-83 46 66zm188-29l-29 20c-11 8-20 13-28 16-8 2-16 3-25 1h-9c-4 3-4 14-2 34l-19-2c-1-19 1-32 5-40l-31-44-22 15-10-14 36-25 42 59 4 1a51 51 0 0 0 19 1 73 73 0 0 0 24-12l34-23 21-15a565 565 0 0 0 17-13l7 18-34 23zm-193-75c16 1 31 3 44 6l-3 18a210 210 0 0 0-45-7l4-17zm152 72l-13-12 20-13c4-2 5-6 2-9l-44-64-57 40-10-15 56-39-17-24 16-11 17 24 21-14 10 14-21 15 47 67c7 10 5 19-5 26l-22 15zm-64-60c17 5 31 10 42 15l-6 18a283 283 0 0 0-42-17l6-16zm167-20c2 15 3 29 1 43h-18a140 140 0 0 0 1-41l16-2zM557 372l15-11 11 17 27-19-11-16 15-10 11 16 8-6 10 14-8 5 44 64 9-7 10 14-76 53-10-14 11-7-45-63-8 6-10-14 9-6-12-16zm63 1l-27 19 9 12 27-19-9-12zm-1 57l28-20-9-12-27 19 8 12zm18 25l27-19-8-13-28 19 9 13zm39-4a256 256 0 0 1 31 11 116 116 0 0 0-23-61l-52-75 56-39 86 123c7 11 6 19-5 27l-16 11-14-12 16-10c3-3 4-6 0-11l-19-28-27 19c12 22 18 44 17 65l-18-3-4 13c-9-5-20-10-34-15l6-15zm23-115l-16-24-26 18 17 24 25-18zm-16 31l17 24 26-18-17-24-26 18z"/></svg>