<?xml version="1.0" encoding="UTF-8" standalone="no"?>
<!-- Generator: Adobe Illustrator 19.0.0, SVG Export Plug-In . SVG Version: 6.00 Build 0)  -->

<svg
   xmlns:dc="http://purl.org/dc/elements/1.1/"
   xmlns:cc="http://creativecommons.org/ns#"
   xmlns:rdf="http://www.w3.org/1999/02/22-rdf-syntax-ns#"
   xmlns:svg="http://www.w3.org/2000/svg"
   xmlns="http://www.w3.org/2000/svg"
   xmlns:sodipodi="http://sodipodi.sourceforge.net/DTD/sodipodi-0.dtd"
   xmlns:inkscape="http://www.inkscape.org/namespaces/inkscape"
   version="1.1"
   id="图层_1"
   x="0px"
   y="0px"
   viewBox="0 0 1024 1024"
   style="enable-background:new 0 0 1024 1024;"
   xml:space="preserve"
   sodipodi:docname="export.svg"
   inkscape:version="0.92.1 r15371"><metadata
     id="metadata3725"><rdf:RDF><cc:Work
         rdf:about=""><dc:format>image/svg+xml</dc:format><dc:type
           rdf:resource="http://purl.org/dc/dcmitype/StillImage" /></cc:Work></rdf:RDF></metadata><defs
     id="defs3723" /><sodipodi:namedview
     pagecolor="#ffffff"
     bordercolor="#666666"
     borderopacity="1"
     objecttolerance="10"
     gridtolerance="10"
     guidetolerance="10"
     inkscape:pageopacity="0"
     inkscape:pageshadow="2"
     inkscape:window-width="1600"
     inkscape:window-height="847"
     id="namedview3721"
     showgrid="false"
     inkscape:zoom="0.23046875"
     inkscape:cx="512"
     inkscape:cy="512"
     inkscape:window-x="-8"
     inkscape:window-y="-8"
     inkscape:window-maximized="1"
     inkscape:current-layer="图层_1" /><g
     id="XMLID_338_"
     transform="matrix(-1,0,0,1,1023.953,0)"><g
       id="XMLID_348_"><path
         id="XMLID_430_"
         d="M 452.936,62"
         inkscape:connector-curvature="0" /></g><g
       id="XMLID_347_"><path
         id="XMLID_429_"
         d="M 64.285,430.601"
         inkscape:connector-curvature="0" /></g><g
       id="XMLID_346_"><path
         id="XMLID_427_"
         d="M 823.311,961.61 H 200.642 C 124.181,961.61 61.953,899.332 61.953,822.779 V 568.006 c 0,-27.6 22.249,-49.978 49.744,-49.978 27.495,0 49.744,22.378 49.744,49.978 v 254.772 c 0,21.426 17.585,38.875 39.202,38.875 h 622.668 c 21.617,0 39.202,-17.448 39.202,-38.875 V 200.831 c 0,-21.426 -17.585,-38.875 -39.202,-38.875 H 519.7 c -27.495,0 -49.744,-22.378 -49.744,-49.978 C 469.956,84.378 492.205,62 519.7,62 H 823.31 C 899.772,62 962,124.278 962,200.831 v 621.947 c 0,76.554 -62.228,138.832 -138.689,138.832 z"
         inkscape:connector-curvature="0" /></g><g
       id="XMLID_345_"><path
         id="XMLID_428_"
         d="M 347.199,598.447 73.002,369.654 c -10.942,-9.131 -10.942,-26.002 0,-35.132 L 347.199,105.729 c 14.81,-12.357 37.247,-1.775 37.247,17.566 V 580.88 c 0,19.342 -22.438,29.924 -37.247,17.567 z"
         inkscape:connector-curvature="0" /></g><g
       id="XMLID_340_"><path
         id="XMLID_426_"
         d="m 377.5,246.3 c 0,0 454.701,-49.978 422.176,566.956 0,0 -32.183,-384.223 -422.176,-377.976 V 246.3 Z"
         inkscape:connector-curvature="0" /></g></g></svg>