<svg xmlns="http://www.w3.org/2000/svg" width="1024" height="1024"><path d="M957 527l1-2h1v-2h1v-2h1a24 24 0 0 0 1-4v-1a24 24 0 0 0-4-17v-1l-1-1h-1c-8-10-182-207-393-241a261 261 0 0 0-88-4C250 268 75 488 67 498a26 26 0 0 0-2 2v1a25 25 0 0 0-3 11 24 24 0 0 0 2 11l1 1a23 23 0 0 0 2 3c8 10 197 247 435 247s445-236 454-246l1-1zm-237-16a213 213 0 0 1-213 212 213 213 0 0 1-212-212 213 213 0 0 1 185-211 312 312 0 0 1 74 3 213 213 0 0 1 166 208zm-602 2c25-30 89-96 173-147a259 259 0 0 0-45 145c0 56 18 108 49 151a786 786 0 0 1-177-150zm605 145a259 259 0 0 0 45-147c0-52-15-100-41-141a904 904 0 0 1 178 143 897 897 0 0 1-182 145z"/><path d="M402 511a105 105 0 0 0 211 0 105 105 0 0 0-211 0zm105-57a57 57 0 1 1 0 114 57 57 0 0 1 0-114z"/></svg>