<?xml version="1.0" encoding="utf-8"?>
<!-- Generator: Adobe Illustrator 16.0.0, SVG Export Plug-In . SVG Version: 6.00 Build 0)  -->
<!DOCTYPE svg PUBLIC "-//W3C//DTD SVG 1.1//EN" "http://www.w3.org/Graphics/SVG/1.1/DTD/svg11.dtd">
<svg version="1.1" id="图层_1" xmlns="http://www.w3.org/2000/svg" xmlns:xlink="http://www.w3.org/1999/xlink" x="0px" y="0px"
	 width="1024px" height="1024px" viewBox="0 0 1024 1024" enable-background="new 0 0 1024 1024" xml:space="preserve">
<g>
	<path d="M957.214,526.883c0.352-0.469,0.676-0.946,0.988-1.433c0.116-0.182,0.234-0.362,0.346-0.548
		c0.306-0.505,0.586-1.019,0.849-1.539c0.089-0.173,0.179-0.346,0.262-0.521c0.259-0.543,0.492-1.092,0.708-1.646
		c0.064-0.167,0.13-0.331,0.189-0.499c0.205-0.564,0.386-1.135,0.547-1.711c0.049-0.172,0.098-0.345,0.144-0.519
		c0.145-0.567,0.267-1.135,0.369-1.709c0.036-0.199,0.072-0.396,0.102-0.596c0.085-0.545,0.148-1.09,0.195-1.638
		c0.021-0.238,0.04-0.478,0.053-0.718c0.028-0.507,0.038-1.013,0.034-1.52c-0.002-0.284-0.006-0.567-0.019-0.853
		c-0.02-0.465-0.055-0.926-0.102-1.39c-0.032-0.322-0.067-0.644-0.115-0.966c-0.06-0.428-0.133-0.853-0.218-1.278
		c-0.067-0.344-0.139-0.688-0.222-1.029c-0.1-0.406-0.21-0.809-0.33-1.211c-0.102-0.344-0.209-0.687-0.329-1.028
		c-0.139-0.401-0.293-0.797-0.455-1.193c-0.131-0.323-0.267-0.645-0.413-0.964c-0.189-0.41-0.395-0.813-0.606-1.212
		c-0.154-0.292-0.311-0.58-0.478-0.864c-0.242-0.415-0.502-0.818-0.771-1.219c-0.177-0.262-0.353-0.524-0.541-0.782
		c-0.285-0.393-0.588-0.773-0.901-1.151c-0.136-0.164-0.25-0.336-0.391-0.497c-7.983-9.167-182.265-207.071-393.539-241.031
		c-17.828-3.862-36.323-5.916-55.292-5.916c-10.916,0-21.674,0.684-32.241,1.993C249.757,268.447,74.745,487.876,67.135,497.569
		c-0.158,0.201-0.287,0.414-0.437,0.617c-0.243,0.331-0.484,0.661-0.709,1c-0.239,0.362-0.459,0.728-0.677,1.098
		c-0.171,0.293-0.342,0.585-0.501,0.885c-0.234,0.441-0.449,0.887-0.655,1.337c-0.107,0.237-0.214,0.474-0.313,0.712
		c-0.214,0.515-0.406,1.033-0.582,1.555c-0.066,0.194-0.13,0.388-0.191,0.582c-0.173,0.561-0.322,1.123-0.454,1.691
		c-0.042,0.179-0.082,0.358-0.119,0.54c-0.118,0.573-0.214,1.147-0.291,1.725c-0.025,0.195-0.05,0.392-0.07,0.588
		c-0.059,0.554-0.099,1.108-0.119,1.664c-0.009,0.235-0.015,0.471-0.017,0.706c-0.004,0.513,0.008,1.024,0.037,1.536
		c0.016,0.283,0.036,0.564,0.061,0.847c0.042,0.468,0.099,0.933,0.168,1.396c0.048,0.318,0.1,0.634,0.16,0.951
		c0.083,0.435,0.18,0.866,0.286,1.296c0.082,0.33,0.168,0.656,0.265,0.982c0.124,0.425,0.263,0.843,0.411,1.261
		c0.111,0.313,0.226,0.625,0.35,0.935c0.174,0.436,0.366,0.863,0.565,1.288c0.132,0.276,0.263,0.553,0.405,0.826
		c0.233,0.449,0.484,0.888,0.747,1.322c0.146,0.243,0.293,0.487,0.449,0.727c0.284,0.435,0.587,0.856,0.901,1.275
		c0.114,0.152,0.209,0.313,0.328,0.464c7.911,10.077,196.775,246.924,434.964,246.924c237.506,0,445.275-235.975,454.01-246.005
		c0.251-0.288,0.466-0.596,0.698-0.892C956.946,527.227,957.084,527.058,957.214,526.883z M719.97,510.588
		c0,117.27-95.421,212.667-212.691,212.667c-117.269,0-212.667-95.397-212.667-212.667c0-107.967,80.864-197.39,185.211-210.898
		c7.382-0.528,14.806-0.828,22.277-0.828c17.466,0,34.83,1.516,51.999,4.262C648.921,324.507,719.97,409.4,719.97,510.588z
		 M117.667,512.456c25.723-29.266,88.94-95.8,172.865-146.903c-27.861,41.501-44.137,91.402-44.137,145.034
		c0,56.34,17.957,108.565,48.441,151.258C208.841,610.421,143.841,542.18,117.667,512.456z M722.788,657.473
		c28.63-41.866,45.397-92.451,45.397-146.886c0-51.703-15.118-99.941-41.168-140.526c84.216,50.194,149.928,113.435,177.95,142.422
		C876.49,541.983,809.076,606.899,722.788,657.473z"/>
	<path d="M402.064,510.588c0,58.035,47.204,105.239,105.215,105.239c58.035,0,105.24-47.204,105.24-105.239
		c0-58.035-47.205-105.24-105.24-105.24C449.268,405.348,402.064,452.553,402.064,510.588z M507.279,453.566
		c31.453,0,57.022,25.568,57.022,57.022c0,31.453-25.569,57.021-57.022,57.021c-31.43,0-56.999-25.568-56.999-57.021
		C450.281,479.134,475.849,453.566,507.279,453.566z"/>
</g>
</svg>
