<svg xmlns="http://www.w3.org/2000/svg" width="1024" height="1024"><path d="M448 431H207c-17 0-24 8-24 25 0 18 7 26 24 26h241c16 0 24-8 24-26 0-17-8-25-24-25zm361 51c-16 0-24 15-24 25v379c0 12-13 25-24 25H135c-11 1-25-13-25-25V229c0-12 13-26 24-26h458c16 0 24-13 24-25s-12-25-24-25H135c-45 0-73 31-73 77v656c0 46 28 76 73 76h626c44 0 72-30 72-76V507c0-18-8-25-24-25zM183 684c0 17 7 25 24 25h506c16 0 24-8 24-25s-8-25-24-25H207c-17 0-24 8-24 25zM954 70c-9-9-23-11-31-3L572 435c-8 9-6 23 3 33 10 10 23 11 31 3l351-368c8-8 6-23-3-33z"/></svg>