<?xml version="1.0" encoding="utf-8"?>
<!-- Generator: Adobe Illustrator 16.0.0, SVG Export Plug-In . SVG Version: 6.00 Build 0)  -->
<!DOCTYPE svg PUBLIC "-//W3C//DTD SVG 1.1//EN" "http://www.w3.org/Graphics/SVG/1.1/DTD/svg11.dtd">
<svg version="1.1" id="图层_1" xmlns="http://www.w3.org/2000/svg" xmlns:xlink="http://www.w3.org/1999/xlink" x="0px" y="0px"
	 width="1024px" height="1024px" viewBox="0 0 1024 1024" enable-background="new 0 0 1024 1024" xml:space="preserve">
<path d="M447.647,431.059H206.755c-16.722,0-24.082,7.955-24.082,25.278c0,17.457,7.465,25.288,24.082,25.288h240.893
	c16.71,0,24.094-7.955,24.094-25.288C471.741,438.899,464.283,431.059,447.647,431.059z M809,481.625
	c-16.027,0-24.101,14.935-24.101,25.284V886.16c0,11.4-13.104,25.281-24.096,25.281H134.489c-11.002,0-24.1-13.883-24.1-25.281
	V228.792c0-11.51,12.817-25.283,24.1-25.283h457.704c15.693,0,24.085-13.547,24.085-25.288c0-11.733-11.966-25.284-24.085-25.284
	H134.489c-44.728,0-72.488,30.75-72.488,76.844l0.223,656.379c0,46.022,27.856,75.839,72.265,75.839h626.316
	c44.367,0,72.284-29.751,72.284-75.839V506.909C833.089,488.719,825.005,481.625,809,481.625z M182.672,683.887
	c0,17.452,7.496,25.283,24.082,25.283h505.885c16.581,0,24.085-7.951,24.085-25.283c0-17.442-7.505-25.279-24.085-25.279H206.755
	C190.187,658.608,182.672,666.568,182.672,683.887z M953.95,70.436c-9.403-9.869-23.3-11.29-31.044-3.146L572.153,435.413
	c-7.752,8.137-6.405,22.743,2.997,32.61c9.405,9.869,23.32,11.286,31.068,3.159l350.749-368.146
	C964.712,94.909,963.374,80.312,953.95,70.436z"/>
</svg>
