<?xml version="1.0" encoding="iso-8859-1"?>
<!-- Generator: Adobe Illustrator 19.0.0, SVG Export Plug-In . SVG Version: 6.00 Build 0)  -->
<svg version="1.1" id="&#x56FE;&#x5C42;_1" xmlns="http://www.w3.org/2000/svg" xmlns:xlink="http://www.w3.org/1999/xlink" x="0px"
	 y="0px" viewBox="0 0 1024 1024" style="enable-background:new 0 0 1024 1024;" xml:space="preserve">
<g id="XMLID_7_">
	<g id="XMLID_6_">
		<path id="XMLID_29_" d="M859.486,526.062L827.626,862h-631.25l-31.86-335.938H859.486 M893.641,426.062H130.36
			c-40.527,0-72.144,38.157-67.993,82.03l36.719,387.157C102.674,933.174,132.044,962,167.079,962h689.844
			c35.034,0,64.404-28.826,67.993-66.751l36.719-387.157C965.785,464.219,934.169,426.062,893.641,426.062L893.641,426.062z"/>
	</g>
	<g id="XMLID_5_">
		<polygon id="XMLID_9_" points="894.813,426.063 794.813,426.063 794.813,238.147 426.991,238.147 338.709,162 229.188,162 
			229.188,426.063 129.188,426.063 129.188,62 375.917,62 464.198,138.147 894.813,138.147 		"/>
	</g>
	<g id="XMLID_4_">
		<polygon id="XMLID_8_" points="720.594,426.063 670.594,426.063 670.594,358.875 353.407,358.875 353.407,426.063 
			303.407,426.063 303.407,308.875 720.594,308.875 		"/>
	</g>
</g>
</svg>
