<svg xmlns="http://www.w3.org/2000/svg" width="1024" height="1024"><path d="M582 962H447l-8-75a377 377 0 0 1-136-56l-59 49-96-96 48-58a383 383 0 0 1-58-136l-76-8V447l75-8a377 377 0 0 1 56-136l-49-59 96-96 58 48a383 383 0 0 1 136-58l8-76h135l8 75a377 377 0 0 1 137 56l59-49 95 96-47 58a383 383 0 0 1 57 136l76 8v135l-75 8a377 377 0 0 1-56 137l49 59-96 95-58-47a383 383 0 0 1-136 57l-8 76zm-109-29h83l7-71 11-2a354 354 0 0 0 144-61l9-7 55 45 59-58-45-56 6-9a349 349 0 0 0 59-145l1-11 71-7v-83l-71-7-2-11a354 354 0 0 0-61-144l-7-9 45-55-58-59-56 46-9-7a349 349 0 0 0-145-59l-11-1-7-71h-83l-7 71-11 2a354 354 0 0 0-144 61l-9 7-55-45-59 58 46 56-7 9a349 349 0 0 0-59 145l-1 11-71 7v83l71 7 2 11a354 354 0 0 0 61 144l7 9-45 55 58 59 56-45 9 6a349 349 0 0 0 145 59l11 2 7 70zm39-265a156 156 0 1 1 0-312 156 156 0 0 1 0 312zm0-283a128 128 0 0 0-127 127 127 127 0 1 0 127-127z"/></svg>