<?xml version="1.0" encoding="utf-8"?>
<!-- Generator: Adobe Illustrator 16.0.0, SVG Export Plug-In . SVG Version: 6.00 Build 0)  -->
<!DOCTYPE svg PUBLIC "-//W3C//DTD SVG 1.1//EN" "http://www.w3.org/Graphics/SVG/1.1/DTD/svg11.dtd">
<svg version="1.1" id="图层_1" xmlns="http://www.w3.org/2000/svg" xmlns:xlink="http://www.w3.org/1999/xlink" x="0px" y="0px"
	 width="1024px" height="1024px" viewBox="0 0 1024 1024" enable-background="new 0 0 1024 1024" xml:space="preserve">
<path d="M582.181,962H446.885l-7.4-74.857c-49.151-9.414-95.167-28.112-137.068-55.697l-58.99,48.378l-95.668-95.669l47.726-58.195
	c-27.805-41.111-47.545-87.819-57.591-136.277L62,582.18V446.885l74.857-7.4c9.415-49.15,28.114-95.167,55.698-137.068
	l-48.377-58.99l95.668-95.668l58.195,47.726c41.11-27.805,87.819-47.545,136.276-57.591L441.82,62h135.297l7.399,74.857
	c49.15,9.415,95.167,28.113,137.068,55.697l58.989-48.376l95.669,95.668l-47.727,58.195c27.806,41.11,47.546,87.819,57.591,136.276
	L962,441.819v135.296l-74.857,7.399c-9.414,49.151-28.113,95.169-55.696,137.069l48.376,58.989l-95.668,95.669l-58.195-47.727
	c-41.11,27.805-87.819,47.545-136.277,57.591L582.181,962L582.181,962z M472.909,933.276h83.247l7.066-71.496l10.722-1.896
	c51.68-9.137,101.585-30.238,144.319-61.021l8.961-6.456l55.021,45.123l58.865-58.864l-45.578-55.575l6.235-8.92
	c30.595-43.768,50.43-92.612,58.953-145.175l1.767-10.906l70.789-6.998v-83.248l-71.496-7.066l-1.896-10.721
	c-9.139-51.681-30.238-101.585-61.023-144.319l-6.454-8.962l45.121-55.022l-58.865-58.866l-55.575,45.579l-8.92-6.236
	c-43.767-30.595-92.61-50.429-145.173-58.952l-10.907-1.768l-6.997-70.787h-83.248l-7.067,71.496l-10.721,1.896
	c-51.68,9.137-101.584,30.238-144.319,61.022l-8.962,6.455l-55.022-45.123l-58.864,58.865l45.578,55.576l-6.236,8.92
	c-30.595,43.768-50.429,92.611-58.952,145.173l-1.768,10.907l-70.787,6.997v83.248l71.496,7.068l1.896,10.72
	c9.137,51.681,30.238,101.585,61.022,144.318l6.455,8.961l-45.123,55.021l58.865,58.865l55.576-45.579l8.92,6.236
	c43.766,30.596,92.609,50.43,145.172,58.952l10.907,1.769L472.909,933.276L472.909,933.276z M512.001,668.063
	c-86.054,0-156.064-70.009-156.064-156.063s70.01-156.065,156.064-156.065c86.055,0,156.063,70.011,156.063,156.065
	S598.056,668.063,512.001,668.063z M512.001,384.659c-70.216,0-127.34,57.125-127.34,127.341c0,70.215,57.124,127.34,127.34,127.34
	s127.34-57.125,127.34-127.34C639.341,441.784,582.217,384.659,512.001,384.659L512.001,384.659z"/>
</svg>
