<?xml version="1.0" encoding="utf-8"?>
<!-- Generator: Adobe Illustrator 16.0.0, SVG Export Plug-In . SVG Version: 6.00 Build 0)  -->
<!DOCTYPE svg PUBLIC "-//W3C//DTD SVG 1.1//EN" "http://www.w3.org/Graphics/SVG/1.1/DTD/svg11.dtd">
<svg version="1.1" id="图层_1" xmlns="http://www.w3.org/2000/svg" xmlns:xlink="http://www.w3.org/1999/xlink" x="0px" y="0px"
	 width="1024px" height="1024px" viewBox="0 0 1024 1024" enable-background="new 0 0 1024 1024" xml:space="preserve">
<path d="M455.75,158.428v-48.214c0-26.55-18.965-48.214-42.172-48.214H272.921c-23.207,0-42.171,21.665-42.171,48.214v48.214H62
	v64.286h168.75v48.214c0,26.55,18.964,48.214,42.171,48.214h140.657c23.207,0,42.172-21.664,42.172-48.214v-48.214H962v-64.286
	H455.75z M287,254.857V126.285h112.5v128.571H287z M455.75,801.286v-48.215c0-26.484-18.965-48.214-42.172-48.214H272.986
	c-23.208,0-42.171,21.729-42.171,48.214v48.215H62v64.285h168.75v48.215c0,26.485,18.964,48.214,42.171,48.214h140.657
	c23.207,0,42.172-21.729,42.172-48.214v-48.215H962v-64.285H455.75z M287,897.714V769.142h112.5v128.571H287z M793.25,431.643
	c0-26.486-18.965-48.214-42.172-48.214H610.421c-23.207,0-42.171,21.729-42.171,48.214v48.214H62v64.286h506.25v48.215
	c0,26.485,18.964,48.214,42.171,48.214h140.657c23.207,0,42.172-21.729,42.172-48.214v-48.215H962v-64.286H793.25V431.643z
	 M624.5,576.286V447.714H737v128.572H624.5z"/>
</svg>
