<svg xmlns="http://www.w3.org/2000/svg" width="1024" height="1024"><path d="M456 158v-48c0-26-19-48-42-48H273c-23 0-42 22-42 48v48H62v65h169v48c0 27 19 48 42 48h141c23 0 42-21 42-48v-48h506v-64H456zm-169 97V126h113v129H287zm169 546v-48c0-26-19-48-42-48H273c-23 0-42 21-42 48v48H62v65h169v48c0 26 19 48 42 48h141c23 0 42-22 42-48v-48h506v-65H456zm-169 97V769h113v129H287zm506-466c0-27-19-49-42-49H610c-23 0-42 22-42 49v48H62v64h506v48c0 27 19 48 42 48h141c23 1 42-21 42-48v-48h169v-64H793v-48zM625 576V448h112v128H625z"/></svg>