<?xml version="1.0" encoding="utf-8"?>
<!-- Generator: Adobe Illustrator 16.0.0, SVG Export Plug-In . SVG Version: 6.00 Build 0)  -->
<!DOCTYPE svg PUBLIC "-//W3C//DTD SVG 1.1//EN" "http://www.w3.org/Graphics/SVG/1.1/DTD/svg11.dtd">
<svg version="1.1"
	 id="svg4205" xmlns:dc="http://purl.org/dc/elements/1.1/" xmlns:cc="http://creativecommons.org/ns#" xmlns:rdf="http://www.w3.org/1999/02/22-rdf-syntax-ns#" xmlns:svg="http://www.w3.org/2000/svg" sodipodi:docname="frame.svg" inkscape:version="0.91 r13725" xmlns:sodipodi="http://sodipodi.sourceforge.net/DTD/sodipodi-0.dtd" xmlns:inkscape="http://www.inkscape.org/namespaces/inkscape"
	 xmlns="http://www.w3.org/2000/svg" xmlns:xlink="http://www.w3.org/1999/xlink" x="0px" y="0px" width="1024px" height="1024px"
	 viewBox="0 0 1024 1024" enable-background="new 0 0 1024 1024" xml:space="preserve">
<sodipodi:namedview  id="namedview17" borderopacity="1" pagecolor="#ffffff" inkscape:cx="512" guidetolerance="10" showgrid="false" bordercolor="#666666" inkscape:cy="512" objecttolerance="10" gridtolerance="10" inkscape:zoom="0.23046875" inkscape:current-layer="svg4205" inkscape:window-maximized="1" inkscape:window-y="-8" inkscape:window-x="-8" inkscape:window-height="847" inkscape:pageopacity="0" inkscape:window-width="1600" inkscape:pageshadow="2">
	</sodipodi:namedview>
<g>
	<path id="line3" inkscape:connector-curvature="0" d="M64.994,64.233l-0.735,0.736l894.747,894.797l0.735-0.735L64.994,64.233z"/>
	<path id="line5" inkscape:connector-curvature="0" d="M958.291,62L62.026,958.315L65.71,962L961.975,65.684L958.291,62z"/>
	<path id="line7" inkscape:connector-curvature="0" d="M65.717,62l-3.691,3.672L958.286,962l3.688-3.672L65.717,62z"/>
	<path id="path9" inkscape:connector-curvature="0" d="M213.752,62c-83.766,0-151.726,67.963-151.726,151.733v596.535
		C62.026,894.035,129.985,962,213.752,962H810.25c83.764,0,151.725-67.965,151.725-151.732V213.733
		C961.975,129.963,894.014,62,810.25,62H213.752z M213.752,67.202H810.25c80.953,0,146.522,65.573,146.522,146.531v596.535
		c0,80.957-65.569,146.53-146.522,146.53H213.752c-80.954,0-146.524-65.575-146.524-146.529V213.733
		C67.228,132.775,132.798,67.202,213.752,67.202z"/>
	<path id="path11" inkscape:connector-curvature="0" d="M512,109.469c-222.146,0-402.508,180.372-402.508,402.529
		c0,222.15,180.361,402.533,402.508,402.533c222.146,0,402.508-180.381,402.508-402.533
		C914.508,289.841,734.145,109.469,512,109.469z M512,135.48c208.088,0,376.498,168.419,376.498,376.518
		c0,208.093-168.41,376.521-376.498,376.521c-208.09,0-376.498-168.429-376.498-376.521C135.502,303.899,303.91,135.48,512,135.48z"
		/>
	<path id="path13" inkscape:connector-curvature="0" d="M363.619,286.813c-42.38,0-76.794,34.415-76.794,76.797v296.779
		c0,42.381,34.413,76.798,76.794,76.798h296.764c42.379,0,76.791-34.416,76.791-76.798V363.61c0-42.382-34.411-76.797-76.791-76.797
		H363.619z M363.619,292.015h296.764c39.567,0,71.59,32.024,71.59,71.595v296.779c0,39.569-32.021,71.596-71.59,71.596H363.619
		c-39.569,0-71.592-32.025-71.592-71.596V363.61C292.028,324.039,324.05,292.015,363.619,292.015z"/>
	<path id="line15" inkscape:connector-curvature="0" d="M64.638,509.399c-1.437-0.021-2.619,1.129-2.638,2.565
		c-0.02,1.437,1.127,2.618,2.564,2.637c0.024,0.002,0.05,0.002,0.074,0h894.725c1.436,0.021,2.617-1.126,2.637-2.564
		c0.021-1.437-1.128-2.619-2.564-2.639c-0.023,0-0.049,0-0.073,0H64.638z"/>
	<path d="M605.919,309.615c22.293-25.167,37.351-60.132,33.257-94.95c-32.133,1.208-71.037,19.879-94.108,45.017
		c-20.67,22.306-38.738,57.838-33.907,92.025C547.018,354.307,583.597,334.734,605.919,309.615z M686.364,530.653
		c-0.802-75.331,65.991-111.449,68.99-113.27c-37.539-51.085-96.021-58.098-116.822-58.896
		c-49.731-4.701-97.079,27.265-122.324,27.265c-25.185,0-64.152-26.579-105.397-25.901c-54.247,0.754-104.242,29.365-132.166,74.578
		c-56.338,90.975-14.416,225.803,40.492,299.649c26.846,36.098,58.848,76.703,100.833,75.216
		c40.473-1.486,55.754-24.355,104.661-24.355c48.944,0,62.665,24.355,105.469,23.606c43.519-0.737,71.107-36.778,97.737-73.009
		c30.824-41.937,43.504-82.55,44.264-84.591C771.129,650.509,687.235,620.586,686.364,530.653z"/>
</g>
</svg>
