<svg xmlns="http://www.w3.org/2000/svg" width="1024" height="1024"><path d="M65 64l-1 1 895 895 1-1L65 64z"/><path d="M958 62L62 958l4 4L962 66l-4-4z"/><path d="M66 62l-4 4 896 896 4-4L66 62z"/><path d="M214 62c-84 0-152 68-152 152v596c0 84 68 152 152 152h596c84 0 152-68 152-152V214c0-84-68-152-152-152H214zm0 5h596c81 0 147 66 147 147v596c0 81-66 147-147 147H214c-81 0-147-66-147-147V214c0-81 66-147 147-147z"/><path d="M512 110a403 403 0 0 0-402 402 403 403 0 0 0 402 403 403 403 0 0 0 403-403 403 403 0 0 0-403-402zm0 26a376 376 0 1 1 0 753 376 376 0 0 1-376-377 376 376 0 0 1 376-376z"/><path d="M364 287a77 77 0 0 0-77 77v296a77 77 0 0 0 77 77h296a77 77 0 0 0 77-77V364a77 77 0 0 0-77-77H364zm0 5h296c40 0 72 32 72 72v296c0 40-32 72-72 72H364c-40 0-72-32-72-72V364c0-40 32-72 72-72z"/><path d="M65 509a3 3 0 1 0 0 6h894a3 3 0 1 0 0-6H65z"/><path d="M606 310c22-26 37-60 33-95-32 1-71 20-94 45-21 22-39 58-34 92 36 2 73-17 95-42zm80 221c0-76 66-112 69-114-37-51-96-58-117-59-49-4-96 28-122 28-25 0-64-27-105-26a158 158 0 0 0-132 74c-57 91-15 226 40 300 27 36 59 77 101 75 40-1 56-24 105-24s62 24 105 23c44 0 71-36 98-72 31-42 43-83 44-85-1-1-85-30-86-120z"/></svg>