<?xml version="1.0" encoding="iso-8859-1"?>
<!-- Generator: Adobe Illustrator 19.0.0, SVG Export Plug-In . SVG Version: 6.00 Build 0)  -->
<svg version="1.1" id="&#x56FE;&#x5C42;_1" xmlns="http://www.w3.org/2000/svg" xmlns:xlink="http://www.w3.org/1999/xlink" x="0px"
	 y="0px" viewBox="0 0 1024 1024" style="enable-background:new 0 0 1024 1024;" xml:space="preserve">
<g id="XMLID_620_">
	<g id="XMLID_612_">
		<g id="XMLID_614_">
			<circle id="XMLID_622_" cx="512" cy="340.232" r="116.518"/>
		</g>
		<g id="XMLID_613_">
			<circle id="XMLID_618_" cx="512" cy="649.607" r="116.518"/>
		</g>
	</g>
	<g id="XMLID_578_">
		<g id="XMLID_611_">
			<path id="XMLID_617_" d="M962,571.696c-78.261,0-83.152,32.609-83.152,65.217c0,26.087,4.891,58.696,4.891,84.783
				c4.891,32.609,4.891,58.696,4.891,84.783c0,110.87-68.478,150-171.196,150h-44.022V832.565h24.456
				c53.804,0,68.478,0,68.478-52.174c0-19.565,0-39.13-4.891-65.217c0-26.087-4.891-52.174-4.891-78.261
				c0-84.783,0-117.391,63.587-130.435l0,0c-63.587-13.043-63.587-45.652-63.587-130.435c0-26.087,4.891-52.174,4.891-78.261
				c4.891-26.087,4.891-45.652,4.891-65.217c0-52.174-19.565-45.652-68.478-52.174h-24.457V69.522h44.022
				c107.609,0,171.196,45.652,171.196,150c0,26.087-4.891,58.696-4.891,84.783c-4.891,32.609-4.891,58.696-4.891,84.783
				c0,32.609,9.783,65.217,83.152,65.217L962,571.696z"/>
		</g>
		<g id="XMLID_604_">
			<g id="XMLID_610_">
				<path id="XMLID_576_" d="M62,451.044c78.261,0,83.152-32.609,83.152-65.217c0-26.087-4.891-58.696-4.891-84.783
					c-4.891-32.609-4.891-58.696-4.891-84.783c0-104.348,68.478-150,171.196-150h44.022v123.913H326.13
					c-48.913,0-68.478,0-68.478,52.174c0,19.565,0,39.13,4.891,65.217c0,13.044,4.891,39.13,4.891,65.217
					c0,84.783,0,117.391-63.587,130.435l0,0c63.587,19.565,63.587,52.174,63.587,136.957c0,26.087-4.891,52.174-4.891,78.261
					c-4.891,19.565-4.891,45.652-4.891,65.217c0,52.174,14.674,52.174,68.478,52.174h24.457v123.913h-44.022
					c-102.717,0-171.196-39.13-171.196-150c0-26.087,4.891-58.696,4.891-84.783c4.891-32.609,4.891-58.696,4.891-84.783
					c0-32.609-9.783-65.217-83.152-65.217V451.044z"/>
			</g>
		</g>
	</g>
</g>
</svg>
