<svg xmlns="http://www.w3.org/2000/svg" viewBox="0 0 1024 1024"><circle cx="512" cy="340" r="117"/><circle cx="512" cy="650" r="117"/><path d="M962 572c-78 0-83 32-83 65 0 26 5 59 5 85 5 32 5 58 5 85 0 110-69 150-172 150h-44V833h25c54 0 68 0 68-53 0-19 0-39-4-65 0-26-5-52-5-78 0-85 0-118 63-131-63-12-63-45-63-130 0-26 5-52 5-78 4-26 4-46 4-65 0-53-19-46-68-53h-24V70h44c107 0 171 45 171 150 0 26-5 58-5 84-5 33-5 59-5 85 0 33 10 65 83 65v118zM62 451c78 0 83-33 83-65 0-26-5-59-5-85-5-33-5-59-5-85 0-104 69-150 172-150h44v124h-25c-49 0-68 0-68 52 0 20 0 40 4 66 0 13 5 39 5 65 0 85 0 117-63 130 63 20 63 52 63 137 0 26-5 52-5 78-4 20-4 46-4 66 0 52 14 52 68 52h25v124h-44c-103 0-172-39-172-150 0-26 5-59 5-85 5-33 5-59 5-85 0-32-10-65-83-65V451z"/></svg>