<?xml version="1.0" encoding="utf-8"?>
<!-- Generator: Adobe Illustrator 16.0.0, SVG Export Plug-In . SVG Version: 6.00 Build 0)  -->
<!DOCTYPE svg PUBLIC "-//W3C//DTD SVG 1.1//EN" "http://www.w3.org/Graphics/SVG/1.1/DTD/svg11.dtd">
<svg version="1.1" id="图层_1" xmlns="http://www.w3.org/2000/svg" xmlns:xlink="http://www.w3.org/1999/xlink" x="0px" y="0px"
	 width="1024px" height="1024px" viewBox="0 0 1024 1024" enable-background="new 0 0 1024 1024" xml:space="preserve">
<path d="M62,230.75c0-31.065,25.01-56.25,56.299-56.25H905.7c31.093,0,56.3,24.967,56.3,56.25c0,31.066-25.011,56.25-56.3,56.25
	H118.299C87.206,287,62,262.032,62,230.75z M62,512c0-31.065,25.01-56.25,56.299-56.25H905.7c31.093,0,56.3,24.968,56.3,56.25
	c0,31.066-25.011,56.25-56.3,56.25H118.299C87.206,568.25,62,543.283,62,512z M62,793.25C62,762.184,87.01,737,118.299,737H905.7
	c31.093,0,56.3,24.968,56.3,56.25c0,31.066-25.011,56.25-56.3,56.25H118.299C87.206,849.5,62,824.533,62,793.25z"/>
</svg>
