<?xml version="1.0" encoding="utf-8"?>
<!-- Generator: Adobe Illustrator 16.0.0, SVG Export Plug-In . SVG Version: 6.00 Build 0)  -->
<!DOCTYPE svg PUBLIC "-//W3C//DTD SVG 1.1//EN" "http://www.w3.org/Graphics/SVG/1.1/DTD/svg11.dtd">
<svg version="1.1" id="图层_1" xmlns="http://www.w3.org/2000/svg" xmlns:xlink="http://www.w3.org/1999/xlink" x="0px" y="0px"
	 width="1024px" height="1024px" viewBox="0 0 1024 1024" enable-background="new 0 0 1024 1024" xml:space="preserve">
<path d="M792.001,961.999H232.003c-56.249,0-101.82-50.37-101.82-112.501V568.25c0-62.139,45.571-112.499,101.82-112.499v-84.376
	C232.003,200.508,357.34,61.999,512,61.999c154.633,0,280.001,138.509,280.001,309.376v1.758h-0.323
	c-0.88,14.661-11.639,26.367-25.144,26.367c-13.473,0-24.262-11.707-25.114-26.367h-0.316v-1.758
	c0-139.8-102.567-253.124-229.099-253.124c-126.541,0-229.078,113.324-229.078,253.124v84.376h509.074
	c56.225,0,101.816,50.36,101.816,112.499v281.248C893.818,911.629,848.219,961.999,792.001,961.999L792.001,961.999z
	 M842.894,568.25c0-31.068-22.768-56.25-50.893-56.25H232.003c-28.124,0-50.923,25.181-50.923,56.25v281.248
	c0,31.069,22.799,56.251,50.923,56.251h559.998c28.095,0,50.893-25.182,50.893-56.251V568.25L842.894,568.25z M537.436,731.312
	v90.061c0,15.531-11.373,28.125-25.437,28.125c-14.062,0-25.461-12.602-25.461-28.125v-90.061
	c-29.51-11.655-50.897-42.063-50.897-78.681c0-46.606,34.17-84.382,76.358-84.382c42.162,0,76.36,37.775,76.36,84.382
	C588.36,689.248,566.946,719.657,537.436,731.312L537.436,731.312z M512,624.501c-14.063,0-25.461,12.594-25.461,28.131
	c0,15.515,11.398,28.119,25.461,28.119c14.063,0,25.436-12.604,25.436-28.119C537.436,637.094,526.063,624.501,512,624.501
	L512,624.501z"/>
</svg>
