<svg xmlns="http://www.w3.org/2000/svg" width="1024" height="1024"><path d="M792 962H232c-56 0-102-50-102-112V568c0-62 46-112 102-112v-85c0-170 125-309 280-309s280 139 280 309v2c-1 15-12 26-25 26-14 0-25-11-25-26h-1v-2c0-139-102-253-229-253S283 232 283 371v85h509c56 0 102 50 102 112v281c0 63-46 113-102 113zm51-394c0-31-23-56-51-56H232c-28 0-51 25-51 56v281c0 32 23 57 51 57h560c28 0 51-25 51-56V568zM537 731v90c0 16-11 29-25 29s-25-13-25-28v-90a83 83 0 0 1-51-79c0-47 34-85 76-85s76 38 76 85c0 36-21 67-51 78zm-25-106c-14 0-25 12-25 28 0 15 11 28 25 28s25-13 25-28-11-28-25-28z"/></svg>