<?xml version="1.0" encoding="utf-8"?>
<!-- Generator: Adobe Illustrator 16.0.0, SVG Export Plug-In . SVG Version: 6.00 Build 0)  -->
<!DOCTYPE svg PUBLIC "-//W3C//DTD SVG 1.1//EN" "http://www.w3.org/Graphics/SVG/1.1/DTD/svg11.dtd">
<svg version="1.1" id="图层_1" xmlns="http://www.w3.org/2000/svg" xmlns:xlink="http://www.w3.org/1999/xlink" x="0px" y="0px"
	 width="1024px" height="1024px" viewBox="0 0 1024 1024" enable-background="new 0 0 1024 1024" xml:space="preserve">
<g>
	<path d="M512,482.001L512,482.001c-16.569,0-30.001-13.432-30.001-30.001V92c0-16.569,13.432-30,30.001-30l0,0
		c16.568,0,30,13.431,30,30v360C541.999,468.568,528.567,482.001,512,482.001z"/>
	<path d="M662,132.924L662,132.924c0,11.674,6.965,21.965,17.499,26.996c147.463,70.432,244.1,230.742,218.35,409.644
		C872.953,742.525,730.29,880.112,556.625,899.503C321.692,925.734,121.999,741.748,121.999,512
		c0-155.12,91.067-289.313,222.516-352.087c10.524-5.026,17.483-15.308,17.483-26.97l0,0c0-21.868-22.908-36.542-42.666-27.165
		C165.898,178.598,60.083,335.323,62.026,516.914c2.518,235.402,193.194,433.573,428.353,444.579
		C748.738,973.583,962,767.697,962,511.999c0-179.589-105.389-334.212-257.561-406.329C684.76,96.345,662,111.147,662,132.924z"/>
</g>
</svg>
