<svg xmlns="http://www.w3.org/2000/svg" width="1024" height="1024"><path d="M662 725H262a25 25 0 1 1 0-50h400a25 25 0 1 1 0 50zm0-125H262a25 25 0 1 1 0-50h400a25 25 0 1 1 0 50zM362 350a25 25 0 1 1 0-50h200a25 25 0 1 1 0 50H362zm325 100a25 25 0 0 1-25 25H262a25 25 0 1 1 0-50h400a25 25 0 0 1 25 25zm200 450H137a75 75 0 0 1-75-75V200a75 75 0 0 1 75-75h675a50 50 0 0 1 50 50v575a25 25 0 1 1-50 0V225a50 50 0 0 0-50-50H162a50 50 0 0 0-50 50v575a50 50 0 0 0 50 50h700a50 50 0 0 0 50-50V225a25 25 0 1 1 50 0v600a75 75 0 0 1-75 75z"/></svg>