<?xml version="1.0" encoding="utf-8"?>
<!-- Generator: Adobe Illustrator 16.0.0, SVG Export Plug-In . SVG Version: 6.00 Build 0)  -->
<!DOCTYPE svg PUBLIC "-//W3C//DTD SVG 1.1//EN" "http://www.w3.org/Graphics/SVG/1.1/DTD/svg11.dtd">
<svg version="1.1" id="图层_1" xmlns="http://www.w3.org/2000/svg" xmlns:xlink="http://www.w3.org/1999/xlink" x="0px" y="0px"
	 width="1024px" height="1024px" viewBox="0 0 1024 1024" enable-background="new 0 0 1024 1024" xml:space="preserve">
<path d="M661.999,724.5h-400c-13.799,0-25-11.176-25-25.001s11.2-25,25-25h400c13.825,0,25,11.175,25,25
	S675.824,724.5,661.999,724.5z M661.999,599.5h-400c-13.799,0-25-11.175-25-25s11.2-25.001,25-25.001h400
	c13.825,0,25,11.176,25,25.001S675.824,599.5,661.999,599.5z M362.001,349.5c-13.8,0-25-11.175-25-25s11.199-25,25-25h200
	c13.825,0,25,11.175,25,25s-11.175,25-25,25H362.001L362.001,349.5z M686.999,449.5c0,13.825-11.175,25-25,25h-400
	c-13.799,0-25-11.175-25-25s11.2-25,25-25h400C675.824,424.5,686.999,435.675,686.999,449.5z M886.998,899.5H137
	c-41.425,0-75.001-33.6-75.001-75.001V199.5c0-41.4,33.576-75.001,75.001-75.001h674.998c27.601,0,50,22.401,50,50V749.5
	c0,13.825-11.176,25-25,25c-13.825,0-25.001-11.175-25.001-25v-225v-300c0-27.6-22.399-50.001-49.999-50.001H161.999
	c-27.6,0-50,22.401-50,50.001v574.999c0,27.6,22.4,50,50,50h699.999c27.6,0,50-22.4,50-50V224.5c0-13.825,11.176-25,25.001-25
	s25,11.175,25,25v599.998C961.999,865.898,928.4,899.499,886.998,899.5L886.998,899.5z"/>
</svg>
