<svg xmlns="http://www.w3.org/2000/svg" width="1024" height="1024"><path d="M822 164H203a93 93 0 0 0-92 92v43c0 23 9 45 24 62l752 3a92 92 0 0 0 27-65v-43a93 93 0 0 0-92-92zM257 505a10 10 0 1 0 20 0 10 10 0 0 0-20 0zM124 651a92 92 0 0 0-13 47v42a93 93 0 0 0 92 93h619a93 93 0 0 0 92-93v-42c0-17-4-33-13-47H124zm821-441c9 0 17-7 17-17a99 99 0 0 0-29-69 99 99 0 0 0-69-29c-9 0-18 8-17 17 0 10 7 18 17 18h8l4 1a80 80 0 0 1 11 3l2 1h2a79 79 0 0 1 9 6l3 2h1l5 5 5 6 2 3c2 3 6 7 7 11v2a81 81 0 0 1 4 11v4l1 8c0 9 8 18 17 17zM809 102a17 17 0 1 0 34 0 17 17 0 0 0-34 0zm120 136a17 17 0 1 0 33 0 17 17 0 0 0-33 0zM159 905a251 251 0 0 1-9-1 81 81 0 0 1-11-3l-3-1h-1l-12-7-2-1-2-2a82 82 0 0 1-5-5l-5-5-2-3a84 84 0 0 1-6-11l-4-14v-4l-1-8c0-9-8-18-17-17-9 0-17 7-17 17a99 99 0 0 0 97 99c9 0 17-8 17-17a17 17 0 0 0-17-17zm-50-25c1 1 1 1 0 0zm42 24zm41 18a17 17 0 1 0 33 0 17 17 0 1 0-33 0zM62 788a17 17 0 1 0 34 0 17 17 0 0 0-34 0z"/><path d="M201 619h619a93 93 0 0 0 92-93v-42a93 93 0 0 0-92-93H201a93 93 0 0 0-92 93v42a93 93 0 0 0 92 92zm441-62c10 0 17 8 17 17 1 10-8 17-17 17H461c-9 0-17-7-17-17 0-9 8-17 17-17h181zM434 419h97c10 0 17 7 17 17 1 9-8 17-17 17h-96c-10 0-17-8-18-17 0-10 9-17 18-17zm-152 34a57 57 0 1 1 0 114 57 57 0 0 1 0-114z"/></svg>