<?xml version="1.0" encoding="utf-8"?>
<!-- Generator: Adobe Illustrator 16.0.0, SVG Export Plug-In . SVG Version: 6.00 Build 0)  -->
<!DOCTYPE svg PUBLIC "-//W3C//DTD SVG 1.1//EN" "http://www.w3.org/Graphics/SVG/1.1/DTD/svg11.dtd">
<svg version="1.1" id="图层_1" xmlns="http://www.w3.org/2000/svg" xmlns:xlink="http://www.w3.org/1999/xlink" x="0px" y="0px"
	 width="1024px" height="1024px" viewBox="0 0 1024 1024" enable-background="new 0 0 1024 1024" xml:space="preserve">
<g>
	<path d="M821.918,163.702H203.004c-50.739,0-92.254,41.513-92.254,92.25v42.6c0,23.782,9.123,45.538,24.038,61.942l752.283,3.209
		c16.724-16.719,27.103-39.781,27.103-65.151v-42.598C914.172,205.215,872.657,163.702,821.918,163.702z"/>
	<path d="M257.365,504.952c0,5.514,4.469,9.985,9.983,9.985s9.987-4.472,9.987-9.985l0,0c0-5.515-4.473-9.985-9.987-9.985
		S257.365,499.437,257.365,504.952z"/>
	<path d="M123.93,650.551c-8.359,13.869-13.181,30.085-13.181,47.368v42.596c0,50.739,41.515,92.259,92.254,92.259h618.915
		c50.739,0,92.254-41.52,92.254-92.259v-42.596c0-17.099-4.72-33.155-12.916-46.919L123.93,650.551z"/>
	<path d="M944.699,210.425c9.211-0.413,17.195-7.523,17.12-17.118c-0.208-25.837-10.371-50.949-28.696-69.269
		c-18.315-18.32-43.425-28.482-69.267-28.691c-8.955-0.073-17.53,7.925-17.116,17.118c0.415,9.336,7.518,17.041,17.116,17.118
		c2.66,0.022,5.294,0.183,7.94,0.386c0.177,0.013,0.326,0.024,0.468,0.033c0.053,0.009,0.097,0.018,0.154,0.028
		c1.274,0.225,2.546,0.446,3.812,0.715c2.501,0.531,4.98,1.187,7.42,1.957c1.01,0.317,2.007,0.659,3.004,1.017
		c0.256,0.088,1.438,0.563,2.192,0.856c0.72,0.331,1.637,0.75,1.84,0.852c1.129,0.551,2.241,1.127,3.339,1.729
		c2.008,1.103,3.966,2.285,5.872,3.551c1.041,0.69,2.047,1.418,3.065,2.137c0.04,0.029,0.066,0.048,0.102,0.075
		c0.105,0.091,0.217,0.192,0.354,0.311c1.865,1.643,3.74,3.26,5.5,5.02c1.761,1.763,3.357,3.646,5.021,5.501
		c0.075,0.084,0.128,0.144,0.189,0.214c0.636,0.944,1.346,1.844,1.985,2.786c2.232,3.309,5.47,7.64,6.696,11.637
		c0.128,0.539,0.291,1.171,0.424,1.526c0.44,1.191,0.847,2.394,1.23,3.602c0.772,2.442,1.421,4.918,1.954,7.422
		c0.273,1.264,0.477,2.539,0.715,3.809c0.018,0.073,0.026,0.137,0.044,0.201c0,0.125,0.009,0.262,0.018,0.421
		c0.159,2.654,0.362,5.276,0.389,7.94C927.654,202.259,935.4,210.842,944.699,210.425z"/>
	<path d="M809.125,101.63c0,9.207,7.46,16.668,16.671,16.668c9.202,0,16.666-7.461,16.666-16.668
		c0-9.205-7.464-16.668-16.666-16.668C816.585,84.962,809.125,92.426,809.125,101.63z"/>
	<path d="M928.659,238.298c0,9.206,7.464,16.668,16.671,16.668c9.206,0,16.67-7.462,16.67-16.668c0-9.204-7.464-16.668-16.67-16.668
		C936.123,221.629,928.659,229.094,928.659,238.298L928.659,238.298z"/>
	<path d="M158.573,904.793c-0.388-0.009-4.892-0.238-6.935-0.406c-0.538-0.079-1.076-0.167-1.605-0.264
		c-1.275-0.23-2.541-0.494-3.803-0.785c-2.488-0.574-4.958-1.271-7.385-2.083c-1.001-0.335-1.989-0.706-2.986-1.067
		c-0.216-0.079-0.432-0.168-0.648-0.247c-4.111-2.452-8.465-4.288-12.444-7.031c-0.49-0.335-0.966-0.697-1.442-1.05
		c-0.186-0.159-1.628-1.289-1.985-1.588c-1.879-1.624-3.688-3.326-5.413-5.117c-1.636-1.686-3.136-3.468-4.654-5.268
		c-0.071-0.098-0.141-0.194-0.225-0.317c-0.71-1.023-1.429-2.038-2.108-3.079c-1.249-1.924-2.417-3.891-3.499-5.902
		c-0.591-1.104-1.156-2.224-1.694-3.354c-0.406-0.847-0.803-1.49-0.979-1.737c-2.003-3.909-2.859-9.335-3.653-13.394
		c-0.167-0.882-0.397-1.799-0.538-2.708c-0.004-0.405-0.027-1.041-0.084-1.747c-0.216-2.646-0.278-5.293-0.251-7.949
		c0.08-8.955-7.932-17.53-17.116-17.115c-9.343,0.414-17.037,7.517-17.121,17.115c-0.234,25.868,9.727,51.057,27.712,69.664
		c18.025,18.651,43.05,29.018,68.856,29.671c8.959,0.22,17.526-8.038,17.116-17.125
		C175.265,912.442,168.172,905.031,158.573,904.793z M109.32,879.957C110.207,881.033,110.154,881.122,109.32,879.957
		L109.32,879.957z M151.219,904.351c-0.357-0.026-0.582-0.062-0.578-0.079C150.853,904.299,151.038,904.325,151.219,904.351z"/>
	<path d="M192.205,921.909c0,9.211,7.464,16.666,16.67,16.666s16.666-7.455,16.666-16.666l0,0c0-9.202-7.459-16.666-16.666-16.666
		S192.205,912.707,192.205,921.909z"/>
	<path d="M62.441,788.157c0,9.211,7.464,16.666,16.671,16.666c9.206,0,16.67-7.455,16.67-16.666c0-9.202-7.464-16.666-16.67-16.666
		C69.905,771.491,62.441,778.955,62.441,788.157z"/>
	<path d="M201.115,618.506h618.919c50.735,0,92.25-41.52,92.25-92.25v-42.604c0-50.737-41.515-92.25-92.25-92.25H201.115
		c-50.739,0-92.25,41.513-92.25,92.25v42.604C108.866,576.986,150.376,618.506,201.115,618.506z M642.351,557.153
		c9.595,0,16.705,7.844,17.12,17.125c0.414,9.237-8.166,17.116-17.12,17.116c-7.499,0-14.999,0-22.498,0c-32.507,0-65.019,0-97.53,0
		c-20.38,0-40.756,0-61.132,0c-9.599,0-16.706-7.844-17.121-17.116c-0.414-9.246,8.166-17.125,17.121-17.125
		c7.5,0,14.999,0,22.498,0c32.512,0,65.02,0,97.526,0C601.594,557.153,621.975,557.153,642.351,557.153z M434.462,418.51
		c4.054,0,8.112,0,12.166,0c28.078,0,56.161,0,84.243,0c9.6,0,16.701,7.843,17.116,17.12c0.415,9.244-8.161,17.118-17.116,17.118
		c-4.059,0-8.107,0-12.166,0c-28.083,0-56.161,0-84.243,0c-9.595,0-16.706-7.846-17.121-17.118
		C416.927,426.384,425.507,418.51,434.462,418.51z M282.214,453.401c31.303,0,56.677,25.374,56.677,56.672
		c0,31.296-25.374,56.671-56.677,56.671c-31.298,0-56.668-25.375-56.668-56.671C225.541,478.775,250.915,453.401,282.214,453.401z"
		/>
</g>
</svg>
