<svg xmlns="http://www.w3.org/2000/svg" width="1024" height="1024"><path d="M563 801a72 72 0 0 0-102 101 71 71 0 0 0 51 21 72 72 0 0 0 51-122zm253-299H208v7c0 39 33 72 72 72h465a72 72 0 0 0 71-72v-7zm-608-39h608V198a71 71 0 0 0-72-71H281a72 72 0 0 0-72 72v264zm72-401h465c37 0 71 16 96 40 24 25 40 59 40 97v310c0 75-62 136-136 136H545v101c17 5 32 15 45 27a110 110 0 0 1 27 45h283a32 32 0 0 1 32 32c0 18-14 33-32 33H618a110 110 0 0 1-28 47 109 109 0 0 1-78 32 111 111 0 0 1-78-32 109 109 0 0 1-28-47H124a33 33 0 1 1 0-65h283a107 107 0 0 1 73-72V645H280a137 137 0 0 1-137-136V199c0-75 62-137 137-137z"/></svg>