<?xml version="1.0" encoding="utf-8"?>
<!-- Generator: Adobe Illustrator 16.0.0, SVG Export Plug-In . SVG Version: 6.00 Build 0)  -->
<!DOCTYPE svg PUBLIC "-//W3C//DTD SVG 1.1//EN" "http://www.w3.org/Graphics/SVG/1.1/DTD/svg11.dtd">
<svg version="1.1" id="图层_1" xmlns="http://www.w3.org/2000/svg" xmlns:xlink="http://www.w3.org/1999/xlink" x="0px" y="0px"
	 width="1024px" height="1024px" viewBox="0 0 1024 1024" enable-background="new 0 0 1024 1024" xml:space="preserve">
<path d="M562.772,800.756L562.772,800.756c-12.929-13.162-30.791-21.153-50.771-21.153c-19.509,0-37.608,7.991-50.771,21.153
	c-12.692,12.929-20.918,31.026-20.918,50.535c0,19.98,8.227,37.844,20.918,50.771c13.164,13.163,31.262,20.684,50.771,20.684
	c19.98,0,37.842-7.521,50.771-20.684c12.928-12.927,21.153-30.79,21.153-50.771C583.925,831.782,575.698,813.684,562.772,800.756
	L562.772,800.756z M815.918,502.48L815.918,502.48h-608.07v6.347c0,39.487,32.672,71.924,72.16,71.924h464.456
	c39.252,0,71.454-32.436,71.454-71.924V502.48z M207.848,463.463L207.848,463.463h608.07v-264.9c0-19.979-7.993-37.608-21.154-50.77
	c-12.692-12.928-30.557-20.684-50.3-20.684H280.008c-39.488,0-72.16,31.731-72.16,71.454L207.848,463.463L207.848,463.463z
	 M280.008,61.999h464.455c37.372,0,71.454,15.514,96.604,39.958c24.21,25.151,39.958,58.998,39.958,96.605v310.264
	c0,74.98-61.583,136.562-136.563,136.562H544.438v100.367c17.393,5.405,32.906,15.277,45.599,27.5
	c12.691,12.458,21.623,27.5,27.266,44.425H900.3c17.864,0,31.967,14.572,31.967,32.202c0,17.863-14.103,32.906-31.967,32.906
	H618.007c-5.172,17.628-14.809,33.611-27.971,46.774C570.528,949.542,542.556,962,512.001,962
	c-30.556,0-58.057-12.458-78.271-32.437c-12.928-13.163-22.564-29.146-27.5-46.774H124.406c-18.099,0-32.671-15.043-32.671-32.906
	c0-17.63,14.572-32.202,32.671-32.202h282.763c4.935-16.925,14.572-31.967,26.561-44.425c12.928-12.223,28.44-22.095,45.835-27.5
	V645.388H280.008c-74.746,0-136.564-61.582-136.564-136.562V198.563C143.445,123.583,205.262,61.999,280.008,61.999L280.008,61.999z
	"/>
</svg>
