<?xml version="1.0" encoding="UTF-8" standalone="no"?>
<!-- Generator: Adobe Illustrator 16.0.0, SVG Export Plug-In . SVG Version: 6.00 Build 0)  -->

<svg
   xmlns:dc="http://purl.org/dc/elements/1.1/"
   xmlns:cc="http://creativecommons.org/ns#"
   xmlns:rdf="http://www.w3.org/1999/02/22-rdf-syntax-ns#"
   xmlns:svg="http://www.w3.org/2000/svg"
   xmlns="http://www.w3.org/2000/svg"
   xmlns:sodipodi="http://sodipodi.sourceforge.net/DTD/sodipodi-0.dtd"
   xmlns:inkscape="http://www.inkscape.org/namespaces/inkscape"
   version="1.1"
   id="图层_1"
   x="0px"
   y="0px"
   width="1024px"
   height="1024px"
   viewBox="0 0 1024 1024"
   enable-background="new 0 0 1024 1024"
   xml:space="preserve"
   inkscape:version="0.91 r13725"
   sodipodi:docname="m-protocol.svg"><metadata
     id="metadata9"><rdf:RDF><cc:Work
         rdf:about=""><dc:format>image/svg+xml</dc:format><dc:type
           rdf:resource="http://purl.org/dc/dcmitype/StillImage" /></cc:Work></rdf:RDF></metadata><defs
     id="defs7" /><sodipodi:namedview
     pagecolor="#ffffff"
     bordercolor="#666666"
     borderopacity="1"
     objecttolerance="10"
     gridtolerance="10"
     guidetolerance="10"
     inkscape:pageopacity="0"
     inkscape:pageshadow="2"
     inkscape:window-width="1920"
     inkscape:window-height="1027"
     id="namedview5"
     showgrid="false"
     inkscape:zoom="0.23046875"
     inkscape:cx="512"
     inkscape:cy="512"
     inkscape:window-x="1592"
     inkscape:window-y="-8"
     inkscape:window-maximized="1"
     inkscape:current-layer="图层_1" /><path
     d="m 894.654,622.59625 -116.327,0 0,40.86769 79.591,0 48.981,253.38189 -802.042,0 48.98,-253.38189 79.592,0 0,-40.86769 -110.204,0 L 62,965.88654 l 900,0 -67.346,-343.29029 0,0 z M 747.715,213.91522 637.51,66.790424 l -373.469,0 0,727.450966 483.674,0 0,-580.32617 z M 637.51,107.65813 l 79.593,106.25709 -79.593,0 0,-106.25709 z m -336.734,645.7169 0,-645.7169 306.122,0 0,147.12612 110.205,0 0,490.41644 -416.327,8.17434 0,0 z M 472.204,557.20685 631.389,344.694 613.02,311.9993 472.204,491.8188 l -55.103,-73.56373 -24.49,32.69469 67.348,89.9084 12.245,16.34869 0,0 z m -159.184,155.29914 385.714,0 0,24.52036 -385.714,0 0,-24.52036 0,0 z"
     id="path3"
     inkscape:connector-curvature="0"
     style="stroke-width:1000;stroke-miterlimit:4;stroke-dasharray:none" /></svg>