<?xml version="1.0" encoding="utf-8"?>
<!-- Generator: Adobe Illustrator 19.0.0, SVG Export Plug-In . SVG Version: 6.00 Build 0)  -->
<svg version="1.1"
	 id="svg8" inkscape:version="0.92.1 r15371" sodipodi:docname="menu.svg" xmlns:inkscape="http://www.inkscape.org/namespaces/inkscape" xmlns:sodipodi="http://sodipodi.sourceforge.net/DTD/sodipodi-0.dtd" xmlns:svg="http://www.w3.org/2000/svg" xmlns:dc="http://purl.org/dc/elements/1.1/" xmlns:rdf="http://www.w3.org/1999/02/22-rdf-syntax-ns#" xmlns:cc="http://creativecommons.org/ns#"
	 xmlns="http://www.w3.org/2000/svg" xmlns:xlink="http://www.w3.org/1999/xlink" x="0px" y="0px" viewBox="370 -412.6 1024 1024"
	 style="enable-background:new 370 -412.6 1024 1024;" xml:space="preserve">
<sodipodi:namedview  inkscape:current-layer="svg8" inkscape:window-maximized="1" inkscape:window-y="-8" inkscape:window-x="-8" inkscape:pageopacity="0" inkscape:window-height="847" inkscape:pageshadow="2" inkscape:window-width="1600" id="namedview10" inkscape:cx="512" guidetolerance="10" inkscape:cy="512" inkscape:zoom="0.23046875" showgrid="false" gridtolerance="10" pagecolor="#ffffff" borderopacity="1" objecttolerance="10" bordercolor="#666666">
	</sodipodi:namedview>
<g>
	<g>
		<path d="M1288.3-199.8H475.7c-24.1,0-43.7-19.6-43.7-43.7s19.6-43.7,43.7-43.7h812.6c24.1,0,43.7,19.6,43.7,43.7
			S1312.4-199.8,1288.3-199.8z"/>
	</g>
	<g>
		<path d="M1288.3,143.1H475.7c-24.1,0-43.7-19.6-43.7-43.7c0-24.1,19.6-43.7,43.7-43.7h812.6c24.1,0,43.7,19.6,43.7,43.7
			C1332,123.6,1312.4,143.1,1288.3,143.1z"/>
	</g>
	<g>
		<path d="M1288.3,486H475.7c-24.1,0-43.7-19.6-43.7-43.7c0-24.1,19.6-43.7,43.7-43.7h812.6c24.1,0,43.7,19.6,43.7,43.7
			C1332,466.4,1312.4,486,1288.3,486z"/>
	</g>
</g>
</svg>
