<?xml version="1.0" encoding="utf-8"?>
<!-- Generator: Adobe Illustrator 16.0.0, SVG Export Plug-In . SVG Version: 6.00 Build 0)  -->
<!DOCTYPE svg PUBLIC "-//W3C//DTD SVG 1.1//EN" "http://www.w3.org/Graphics/SVG/1.1/DTD/svg11.dtd">
<svg version="1.1" id="图层_1" xmlns="http://www.w3.org/2000/svg" xmlns:xlink="http://www.w3.org/1999/xlink" x="0px" y="0px"
	 width="1024px" height="1024px" viewBox="0 0 1024 1024" enable-background="new 0 0 1024 1024" xml:space="preserve">
<path d="M830.181,193.819c-84.988-85.028-197.976-131.82-318.179-131.82c-120.206,0-233.196,46.813-318.202,131.82
	C108.817,278.787,62,391.796,62,512.004c0,120.218,46.817,233.186,131.801,318.193C278.807,915.204,391.815,962,512.003,962
	c120.184,0,233.19-46.796,318.179-131.803C915.188,745.231,962,632.221,962,512.004
	C961.999,391.796,915.187,278.809,830.181,193.819z M796.735,796.755c-76.069,76.052-177.186,117.949-284.732,117.949
	c-107.568,0-208.691-41.896-284.737-117.949c-76.072-76.092-117.97-177.214-117.97-284.751c0-107.567,41.897-208.688,117.97-284.742
	c76.068-76.072,177.188-117.968,284.737-117.968c107.564,0,208.686,41.896,284.732,117.968
	c76.072,76.074,117.969,177.194,117.969,284.742C914.703,619.582,872.807,720.703,796.735,796.755z M651.961,422.267
	c4.311,0,8.581-1.633,11.824-4.876l66.969-66.969c6.529-6.529,6.529-17.161,0-23.69c-6.552-6.51-17.163-6.51-23.67,0l-66.969,66.967
	c-6.529,6.53-6.529,17.163,0,23.692C643.405,420.634,647.713,422.267,651.961,422.267z M752.412,505.977H651.961
	c-9.209,0-16.741,7.511-16.741,16.741c0,9.252,7.531,16.743,16.741,16.743h100.451c9.271,0,16.742-7.491,16.742-16.743
	C769.155,513.488,761.684,505.977,752.412,505.977z M663.785,628.079c-6.55-6.486-17.163-6.486-23.67,0
	c-6.529,6.573-6.529,17.161,0,23.689l66.969,66.97c3.287,3.265,7.598,4.897,11.846,4.897c4.332,0,8.58-1.633,11.824-4.897
	c6.529-6.529,6.529-17.119,0-23.69L663.785,628.079z M575.056,256.29c-6.029-2.679-13.104-1.613-18.019,2.846L394.409,405.524
	h-94.024c-49.118,0-66.967,40.055-66.967,66.969v100.452c0,49.149,40.032,66.979,66.989,66.979h94.044l162.628,146.367
	c3.139,2.806,7.137,4.313,11.173,4.313c2.304,0,4.646-0.462,6.843-1.425c6.052-2.719,9.901-8.748,9.901-15.318V271.608
	C584.995,264.993,581.146,259.01,575.056,256.29z M551.512,736.232L412.009,610.761c-3.033-2.785-7.007-4.333-11.174-4.333h-100.45
	c-5.59,0-33.464-1.633-33.464-33.485v-100.43c0-5.61,1.591-33.504,33.464-33.504h100.45c4.167,0,8.141-1.529,11.241-4.313
	l139.438-125.503L551.512,736.232L551.512,736.232z"/>
</svg>
