<svg xmlns="http://www.w3.org/2000/svg" width="1024" height="1024"><path d="M830 194A447 447 0 0 0 512 62a447 447 0 0 0-318 132A447 447 0 0 0 62 512a447 447 0 0 0 132 318 447 447 0 0 0 318 132 447 447 0 0 0 318-132 447 447 0 0 0 132-318 447 447 0 0 0-132-318zm-33 603a400 400 0 0 1-285 118 400 400 0 0 1-285-118 400 400 0 0 1-118-285 400 400 0 0 1 118-285 400 400 0 0 1 285-118 400 400 0 0 1 285 118 400 400 0 0 1 118 285 400 400 0 0 1-118 285zM652 422c4 0 9-1 12-5l67-67a17 17 0 0 0-24-23l-67 67a17 17 0 0 0 12 28zm100 84H652a17 17 0 0 0 0 34h100a17 17 0 1 0 0-34zm-88 122a17 17 0 0 0-24 24l67 67a17 17 0 0 0 24 0 17 17 0 0 0 0-24l-67-67zm-89-372c-6-2-13-1-18 3L394 406h-94c-49 0-67 40-67 67v100c0 49 40 67 67 67h94l163 146a17 17 0 0 0 18 3c6-3 10-9 10-15V272c0-7-4-13-10-16zm-24 480L412 611c-3-3-7-5-11-5H300c-5 0-33-1-33-33V473c0-6 1-34 33-34h101c4 0 8-1 11-4l139-126v427z"/></svg>