<?xml version="1.0" encoding="utf-8"?>
<!-- Generator: Adobe Illustrator 16.0.0, SVG Export Plug-In . SVG Version: 6.00 Build 0)  -->
<!DOCTYPE svg PUBLIC "-//W3C//DTD SVG 1.1//EN" "http://www.w3.org/Graphics/SVG/1.1/DTD/svg11.dtd">
<svg version="1.1"
	 id="svg4205" xmlns:dc="http://purl.org/dc/elements/1.1/" xmlns:cc="http://creativecommons.org/ns#" xmlns:rdf="http://www.w3.org/1999/02/22-rdf-syntax-ns#" xmlns:svg="http://www.w3.org/2000/svg" sodipodi:docname="frame.svg" inkscape:version="0.91 r13725" xmlns:sodipodi="http://sodipodi.sourceforge.net/DTD/sodipodi-0.dtd" xmlns:inkscape="http://www.inkscape.org/namespaces/inkscape"
	 xmlns="http://www.w3.org/2000/svg" xmlns:xlink="http://www.w3.org/1999/xlink" x="0px" y="0px" width="1024px" height="1024px"
	 viewBox="0 0 1024 1024" enable-background="new 0 0 1024 1024" xml:space="preserve">
<path d="M821.375,174.5h-56.25v56.25h28.125v450h-225v225h-337.5v-675h28.125V174.5h-56.25c-15.471,0-28.125,12.656-28.125,28.125
	v731.25c0,15.469,12.654,28.125,28.125,28.125h442.969L849.5,758.094V202.625C849.5,187.156,836.844,174.5,821.375,174.5z
	 M624.5,905.75V737h168.75L624.5,905.75z M737,174.5H624.5v-56.25c0-30.938-25.313-56.25-56.25-56.25h-112.5
	c-30.942,0-56.25,25.313-56.25,56.25v56.25H287V287h450V174.5z M568.25,174.5h-112.5v-56.149c0.031-0.035,0.063-0.07,0.101-0.101
	h112.293c0.039,0.031,0.074,0.066,0.105,0.101V174.5z"/>
</svg>
