<svg xmlns="http://www.w3.org/2000/svg" viewBox="370 -413 1024 1024"><path d="M882 5c-85 0-154-69-154-154a155 155 0 0 1 236-131 32 32 0 0 1 10 44 32 32 0 0 1-43 9 92 92 0 0 0-140 78 91 91 0 1 0 182-9 32 32 0 0 1 63-7A154 154 0 0 1 882 5zM586 503a155 155 0 0 1-154-155c0-85 69-154 154-154a155 155 0 0 1 0 309zm0-246a91 91 0 1 0 1 183 91 91 0 0 0-1-183zm592 246a155 155 0 0 1-155-155c0-85 69-154 155-154a154 154 0 1 1 0 309zm0-246a91 91 0 1 0 0 183 91 91 0 0 0 0-183z"/><path d="M1180 257a32 32 0 0 1-32-31v-93H616v93a32 32 0 1 1-63 0V102a32 32 0 0 1 31-32h596a32 32 0 0 1 32 32v124a32 32 0 0 1-32 31z"/><path d="M882 133a32 32 0 0 1-31-32V-25a32 32 0 1 1 63 0v128a32 32 0 0 1-32 31z"/></svg>