<?xml version="1.0" encoding="utf-8"?>
<!-- Generator: Adobe Illustrator 19.0.0, SVG Export Plug-In . SVG Version: 6.00 Build 0)  -->
<svg version="1.1"
	 id="svg14" inkscape:version="0.92.1 r15371" sodipodi:docname="organization.svg" xmlns:inkscape="http://www.inkscape.org/namespaces/inkscape" xmlns:sodipodi="http://sodipodi.sourceforge.net/DTD/sodipodi-0.dtd" xmlns:svg="http://www.w3.org/2000/svg" xmlns:dc="http://purl.org/dc/elements/1.1/" xmlns:rdf="http://www.w3.org/1999/02/22-rdf-syntax-ns#" xmlns:cc="http://creativecommons.org/ns#"
	 xmlns="http://www.w3.org/2000/svg" xmlns:xlink="http://www.w3.org/1999/xlink" x="0px" y="0px" viewBox="370 -412.6 1024 1024"
	 style="enable-background:new 370 -412.6 1024 1024;" xml:space="preserve">
<sodipodi:namedview  inkscape:current-layer="svg14" inkscape:window-maximized="1" inkscape:window-y="-8" inkscape:window-x="-8" inkscape:pageopacity="0" inkscape:window-height="847" inkscape:pageshadow="2" inkscape:window-width="1600" id="namedview16" inkscape:cx="512" guidetolerance="10" inkscape:cy="512" inkscape:zoom="0.23046875" showgrid="false" gridtolerance="10" pagecolor="#ffffff" borderopacity="1" objecttolerance="10" bordercolor="#666666">
	</sodipodi:namedview>
<g>
	<path id="path8" inkscape:connector-curvature="0" d="M882.1,4.9c-85.1,0-154.4-69.3-154.4-154.4S797-303.9,882.1-303.9
		c29.2,0,57.8,8.2,82.3,23.8c14.7,9.3,19.1,28.8,9.8,43.7c-9.3,14.9-28.8,19.1-43.7,9.8c-14.5-9.1-31.4-13.9-48.7-13.9
		c-50.3,0-91.2,40.9-91.2,91.2s40.9,91.2,91.2,91.2c50.3,0,91.2-40.9,91.2-91.2c0-3-0.2-6.1-0.4-9.1c-1.7-17.3,11-32.9,28.4-34.6
		c17.3-1.7,32.9,11,34.6,28.4c0.6,5,0.7,10.2,0.7,15.2C1036.5-64.2,967.2,4.9,882.1,4.9L882.1,4.9z M586.4,502.7
		c-85.1,0-154.4-69.3-154.4-154.4c0-85.1,69.3-154.4,154.4-154.4c85.1,0,154.4,69.3,154.4,154.4
		C740.9,433.4,671.6,502.7,586.4,502.7L586.4,502.7z M586.4,257.1c-50.3,0-91.2,40.9-91.2,91.2s40.9,91.2,91.2,91.2
		s91.2-40.9,91.2-91.2S636.7,257.1,586.4,257.1z M1177.6,502.7c-85.1,0-154.4-69.3-154.4-154.4c0-85.1,69.3-154.4,154.4-154.4
		c85.1,0,154.4,69.3,154.4,154.4C1332.2,433.4,1262.9,502.7,1177.6,502.7L1177.6,502.7z M1177.6,257.1c-50.3,0-91.2,40.9-91.2,91.2
		s40.9,91.2,91.2,91.2c50.3,0,91.2-40.9,91.2-91.2S1228,257.1,1177.6,257.1L1177.6,257.1z"/>
	<path id="path10" inkscape:connector-curvature="0" d="M1179.9,257.1c-17.5,0-31.6-14.1-31.6-31.6v-92.5H615.9v92.5
		c0,17.5-14.1,31.6-31.6,31.6c-17.5,0-31.6-14.1-31.6-31.6V101.5c0-17.5,14.1-31.6,31.6-31.6H1180c17.5,0,31.6,14.1,31.6,31.6v124.1
		C1211.4,243,1197.3,257.1,1179.9,257.1L1179.9,257.1z"/>
	<path id="path12" inkscape:connector-curvature="0" d="M882.1,133.1c-17.5,0-31.6-14.1-31.6-31.6v-128c0-17.5,14.1-31.6,31.6-31.6
		c17.5,0,31.6,14.1,31.6,31.6v128C913.7,118.9,899.6,133.1,882.1,133.1z"/>
</g>
</svg>
