<?xml version="1.0" encoding="utf-8"?>
<!-- Generator: Adobe Illustrator 16.0.0, SVG Export Plug-In . SVG Version: 6.00 Build 0)  -->
<!DOCTYPE svg PUBLIC "-//W3C//DTD SVG 1.1//EN" "http://www.w3.org/Graphics/SVG/1.1/DTD/svg11.dtd">
<svg version="1.1" id="图层_1" xmlns="http://www.w3.org/2000/svg" xmlns:xlink="http://www.w3.org/1999/xlink" x="0px" y="0px"
	 width="1024px" height="1024px" viewBox="0 0 1024 1024" enable-background="new 0 0 1024 1024" xml:space="preserve">
<path d="M168.178,508.993h110.438c10.522,0,19.041-8.291,19.041-18.61c0-10.292-8.519-19.038-19.041-19.038H168.178
	c-10.751,0-18.813,8.746-18.813,19.038C149.365,500.702,157.427,508.993,168.178,508.993L168.178,508.993z M168.178,439.57
	L168.178,439.57h110.438c10.522,0,19.041-8.313,19.041-18.61c0-10.767-8.519-19.038-19.041-19.038H168.178
	c-10.751,0-18.813,8.271-18.813,19.038C149.365,431.257,157.427,439.57,168.178,439.57L168.178,439.57z M930.641,197.647
	L930.641,197.647H703.064v-64.298c0-17.241-14.327-31.816-31.569-31.816H352.732c-17.47,0-31.341,14.575-31.341,31.816v64.298
	H93.816C76.325,197.647,62,211.975,62,229.445v616.216c0,17.241,14.325,31.341,31.816,31.341H321.39v13.662
	c0,17.265,13.872,31.803,31.341,31.803h318.763c17.242,0,31.569-14.538,31.569-31.803v-13.662h227.577
	c17.465,0,31.359-14.1,31.359-31.341V229.445C962,211.975,948.106,197.647,930.641,197.647L930.641,197.647z M321.39,813.84
	L321.39,813.84H125.157V260.823H321.39V813.84L321.39,813.84z M639.906,859.308L639.906,859.308H384.548V164.942h255.359V859.308
	L639.906,859.308z M898.82,813.84L898.82,813.84H703.064V260.823H898.82V813.84L898.82,813.84z M168.178,370.105L168.178,370.105
	h110.438c10.522,0,19.041-8.267,19.041-18.587c0-10.524-8.519-19.02-19.041-19.02H168.178c-10.751,0-18.813,8.495-18.813,19.02
	C149.365,361.839,157.427,370.105,168.178,370.105L168.178,370.105z M273.222,657.511L273.222,657.511
	c-12.757-13.006-30.452-20.863-49.928-20.863c-19.495,0-37.19,7.857-49.74,20.863c-12.777,12.507-20.611,29.995-20.611,49.49
	c0,19.038,7.173,36.513,19.267,48.829l1.345,1.117c12.55,12.987,30.245,20.84,49.74,20.84c19.476,0,37.171-7.853,49.928-20.84
	c12.775-12.55,20.837-30.015,20.837-49.946c0-19.039-7.608-35.852-19.723-48.602L273.222,657.511L273.222,657.511z M246.365,730.276
	L246.365,730.276c-5.623,5.628-14.139,9.636-23.072,9.636c-9.201,0-17.055-4.008-22.844-9.636l-1.138-0.657
	c-5.374-6.056-8.723-13.438-8.723-22.617c0-8.975,3.577-16.805,9.384-23.07l0.477,0.434c5.789-6.261,13.643-10.068,22.844-10.068
	c8.93,0,17.449,3.808,23.072,10.068l0.889,0.451c5.374,5.838,8.723,13.443,8.723,22.186
	C255.98,716.181,252.403,724.471,246.365,730.276L246.365,730.276z M745.61,439.57L745.61,439.57h110.646
	c10.771,0,19.038-8.313,19.038-18.61c0-10.767-8.267-19.038-19.038-19.038H745.61c-10.748,0-19.039,8.271-19.039,19.038
	C726.571,431.257,734.862,439.57,745.61,439.57L745.61,439.57z M745.61,508.993L745.61,508.993h110.646
	c10.771,0,19.038-8.291,19.038-18.61c0-10.292-8.267-19.038-19.038-19.038H745.61c-10.748,0-19.039,8.746-19.039,19.038
	C726.571,500.702,734.862,508.993,745.61,508.993L745.61,508.993z M745.61,370.105L745.61,370.105h110.646
	c10.771,0,19.038-8.267,19.038-18.587c0-10.524-8.267-19.02-19.038-19.02H745.61c-10.748,0-19.039,8.495-19.039,19.02
	C726.571,361.839,734.862,370.105,745.61,370.105L745.61,370.105z M444.149,472.936L444.149,472.936h135.929
	c10.544,0,19.044-8.313,19.044-19.039c0-10.32-8.5-19.043-19.044-19.043H444.149c-10.771,0-19.06,8.723-19.06,19.043
	C425.089,464.623,433.377,472.936,444.149,472.936L444.149,472.936z M850.903,657.511L850.903,657.511
	c-12.777-13.006-30.471-20.863-50.198-20.863c-19.243,0-37.169,7.857-49.719,20.863c-12.526,12.507-20.589,29.995-20.589,49.49
	c0,19.038,7.606,36.513,19.7,48.829l0.889,1.117c12.55,12.987,30.476,20.84,49.719,20.84c19.728,0,37.421-7.853,50.198-20.84
	c12.55-12.55,20.593-30.015,20.593-49.946c0-19.039-7.159-35.852-19.704-48.602L850.903,657.511L850.903,657.511z M824.006,730.276
	L824.006,730.276c-5.809,5.628-13.871,9.636-23.302,9.636c-8.495,0-17.014-4.008-22.841-9.636l-0.89-0.657
	c-5.376-6.056-8.951-13.438-8.951-22.617c0-8.975,3.575-16.805,9.841-23.07v0.434c5.832-6.261,14.346-10.068,22.841-10.068
	c9.431,0,17.493,3.808,23.302,10.068l0.913,0.451c5.372,5.838,8.724,13.443,8.724,22.186
	C833.643,716.181,830.291,724.471,824.006,730.276L824.006,730.276z M444.149,302.233L444.149,302.233h135.929
	c10.544,0,19.044-8.268,19.044-18.811c0-10.524-8.5-18.792-19.044-18.792H444.149c-10.771,0-19.06,8.268-19.06,18.792
	C425.089,293.966,433.377,302.233,444.149,302.233L444.149,302.233z M444.149,387.822L444.149,387.822h135.929
	c10.544,0,19.044-8.747,19.044-19.039c0-10.525-8.5-18.61-19.044-18.61H444.149c-10.771,0-19.06,8.085-19.06,18.61
	C425.089,379.075,433.377,387.822,444.149,387.822L444.149,387.822z M571.355,663.525L571.355,663.525l-1.117-0.661
	c-15.013-15.212-35.187-24.392-58.032-24.392c-22.141,0-42.546,8.7-57.327,23.051l-0.889,1.341
	c-14.782,14.347-24.189,35.163-24.189,58.241c0,22.842,9.407,43.477,24.189,57.805c14.782,15.23,35.373,24.392,58.216,24.392
	c22.846,0,43.02-9.384,58.032-24.392l0,0c15.012-14.328,24.415-34.963,24.415-57.805
	C594.653,698.688,585.678,678.555,571.355,663.525L571.355,663.525z M543.588,752.033L543.588,752.033
	c-8.063,8.267-19.267,13.434-31.383,13.434c-12.529,0-23.733-5.167-31.339-13.006h-0.436l0.436-0.433
	c-8.291-7.63-13.439-18.834-13.439-30.927c0-12.55,5.148-23.735,13.439-31.36l0.454-0.894c8.042-7.829,19.039-12.545,30.885-12.545
	c12.549,0,23.32,5.167,31.383,13.438l0.889,0.452c7.63,7.834,12.099,18.586,12.099,30.903
	C556.575,733.199,551.651,744.398,543.588,752.033L543.588,752.033z"/>
</svg>
