<svg xmlns="http://www.w3.org/2000/svg" width="1024" height="1024"><path d="M168 509h111c10 0 19-8 19-19s-9-19-19-19H168a19 19 0 0 0-19 19c0 11 8 19 19 19zm0-69h111a19 19 0 1 0 0-38H168a19 19 0 0 0-19 19c0 10 8 19 19 19zm763-242H703v-65a32 32 0 0 0-31-31H353a32 32 0 0 0-32 31v65H94a32 32 0 0 0-32 31v617a32 32 0 0 0 32 31h227v14a32 32 0 0 0 32 32h319a32 32 0 0 0 31-32v-14h228a31 31 0 0 0 31-31V229a32 32 0 0 0-31-31zM321 814H125V261h196v553zm319 45H385V165h255v694zm259-45H703V261h196v553zM168 370h111a19 19 0 1 0 0-37H168a19 19 0 0 0-19 19c0 10 8 18 19 18zm105 288a70 70 0 0 0-99 0 69 69 0 0 0-21 49c0 19 7 37 19 49l2 1a70 70 0 0 0 99 0 70 70 0 0 0 1-99l-1-1zm-27 72a33 33 0 0 1-23 10c-9 0-17-4-23-10h-1a34 34 0 0 1 1-46 31 31 0 0 1 46 0l1 1a32 32 0 0 1 9 22 32 32 0 0 1-10 23zm500-290h110c11 0 19-9 19-19 0-11-8-19-19-19H746c-11 0-19 8-19 19 0 10 8 19 19 19zm0 69h110c11 0 19-8 19-19a19 19 0 0 0-19-19H746a19 19 0 0 0-19 19c0 11 8 19 19 19zm0-139h110a19 19 0 1 0 0-37H746c-11 0-19 8-19 19 0 10 8 18 19 18zM444 473h136c11 0 19-8 19-19 0-10-8-19-19-19H444a19 19 0 0 0-19 19c0 11 8 19 19 19zm407 185a70 70 0 0 0-50-21 69 69 0 0 0-50 21 70 70 0 0 0-1 98l1 1a69 69 0 0 0 50 21c19 0 37-8 50-21a70 70 0 0 0 1-99h-1zm-27 72a33 33 0 0 1-23 10c-9 0-17-4-23-10h-1c-5-6-9-14-9-23a32 32 0 0 1 10-23 31 31 0 0 1 46 0l1 1a32 32 0 0 1 9 22c0 9-4 17-10 23zM444 302h136a19 19 0 1 0 0-37H444c-11 0-19 8-19 18 0 11 8 19 19 19zm0 86h136c11 0 19-9 19-19 0-11-8-19-19-19H444c-11 0-19 8-19 19a19 19 0 0 0 19 19zm127 275h-1a82 82 0 0 0-115-1l-1 1a81 81 0 0 0-24 58c0 23 9 44 24 58a81 81 0 0 0 116 0c15-14 25-35 25-58 0-22-9-42-24-57zm-27 89a44 44 0 0 1-63 1h-1l1-1a42 42 0 0 1-14-31c0-12 6-24 14-31v-1a44 44 0 0 1 63 1h1a44 44 0 0 1 12 31c0 12-5 23-13 31z"/></svg>