<?xml version="1.0" encoding="utf-8"?>
<!-- Generator: Adobe Illustrator 16.0.0, SVG Export Plug-In . SVG Version: 6.00 Build 0)  -->
<!DOCTYPE svg PUBLIC "-//W3C//DTD SVG 1.1//EN" "http://www.w3.org/Graphics/SVG/1.1/DTD/svg11.dtd">
<svg version="1.1" id="图层_1" xmlns="http://www.w3.org/2000/svg" xmlns:xlink="http://www.w3.org/1999/xlink" x="0px" y="0px"
	 width="1024px" height="1024px" viewBox="0 0 1024 1024" enable-background="new 0 0 1024 1024" xml:space="preserve">
<path d="M433.739,62v39.131v176.086h-39.13v39.131v78.261h-78.261h-39.131v39.13H101.13H62v39.131v78.261v39.131h39.13h176.086
	v39.13h39.131h78.261v78.261v39.131h39.13v176.086V962h39.131h78.261h39.131v-39.131V746.783h39.13v-39.131v-78.261h78.261h39.131
	v-39.13h176.087H962V433.74h-39.131H746.782v-39.131h-39.131h-78.261v-78.261v-39.131h-39.13V101.131V62H433.739z M472.869,101.131
	h78.281v176.086h-78.281V101.131z M316.347,433.739h78.261h39.13v-39.13v-78.261h156.522v78.261v39.13h39.13h78.261v156.522h-78.261
	h-39.13v39.13v78.261H433.739v-78.261v-39.13h-39.13h-78.261V433.739z M746.782,472.87h176.087v78.28H746.782V472.87z
	 M101.13,472.87h176.086v78.28H101.13V472.87z M472.869,746.783h78.281v176.086h-78.281V746.783z M727.217,218.522h97.807v-97.826
	h-97.807V218.522z M746.782,140.261h58.696v58.716h-58.696V140.261z M551.13,335.913v117.392v19.565h19.564h117.411v-19.565H570.695
	V335.913H551.13z M120.695,903.304h136.957V766.347H120.695V903.304z M140.261,785.913h97.826v97.827h-97.826V785.913z"/>
</svg>
