<svg xmlns="http://www.w3.org/2000/svg" width="1024" height="1024"><path d="M658 941H174A112 112 0 0 1 62 829V195A112 112 0 0 1 174 83h484a112 112 0 0 1 112 112v203a37 37 0 1 1-74 0V195a37 37 0 0 0-38-37H174a37 37 0 0 0-37 37v634a37 37 0 0 0 37 37h484a37 37 0 0 0 38-37v-72a37 37 0 1 1 74 0v72a112 112 0 0 1-112 112zm225-600L619 604l-18 107 101-31 260-260-79-79zM248 736a19 19 0 0 1-16-28c80-142 111-137 121-135 8 1 21 6 25 28 4 19 5 39 6 54l1 11 13-15c28-31 45-49 66-44 18 4 24 24 26 30 3 11 3 21 2 30l9-4a19 19 0 1 1 16 34c-30 13-46 20-59 9-11-9-7-22-5-31a53 53 0 0 0 1-28 380 380 0 0 0-28 29l-15 16c-8 9-24 27-43 20-18-6-19-27-21-55-1-13-1-28-4-43-17 15-50 62-78 112-4 6-10 10-17 10zm-37-392h410v-37H211v37zm0 75h410v-37H211v37zm0 74h335v-37H212v37z"/></svg>