<?xml version="1.0" encoding="utf-8"?>
<!-- Generator: Adobe Illustrator 16.0.0, SVG Export Plug-In . SVG Version: 6.00 Build 0)  -->
<!DOCTYPE svg PUBLIC "-//W3C//DTD SVG 1.1//EN" "http://www.w3.org/Graphics/SVG/1.1/DTD/svg11.dtd">
<svg version="1.1" id="图层_1" xmlns="http://www.w3.org/2000/svg" xmlns:xlink="http://www.w3.org/1999/xlink" x="0px" y="0px"
	 width="1024px" height="1024px" viewBox="0 0 1024 1024" enable-background="new 0 0 1024 1024" xml:space="preserve">
<path d="M658.294,940.587h-484.49C112.154,940.587,62,890.434,62,828.784V195.218c0-61.65,50.154-111.805,111.804-111.805h484.49
	c61.655,0,111.807,50.154,111.807,111.805v202.409c0,20.582-16.67,37.27-37.271,37.27c-20.6,0-37.27-16.688-37.27-37.27V195.218
	c0-20.546-16.703-37.268-37.267-37.268h-484.49c-20.546,0-37.266,16.722-37.266,37.268v633.566c0,20.559,16.72,37.262,37.266,37.262
	h484.49c20.563,0,37.267-16.703,37.267-37.262v-71.851c0-20.6,16.67-37.262,37.27-37.262c20.601,0,37.271,16.67,37.271,37.262
	v71.851C770.101,890.434,719.949,940.587,658.294,940.587L658.294,940.587z M882.947,340.586L619.419,604.115l-18.598,106.438
	l100.887-30.737L962,419.645L882.947,340.586L882.947,340.586z M248.322,735.609c-3.093,0-6.242-0.759-9.135-2.402
	c-8.968-5.062-12.134-16.414-7.078-25.402c79.795-141.429,110.639-136.589,120.977-134.917c7.518,1.165,20.783,6.445,25.313,28.537
	c3.894,18.991,5.006,38.142,5.895,53.529c0.203,3.353,0.421,7.104,0.674,10.74l13.464-14.737
	c27.736-30.684,44.62-49.096,65.805-44.113c18.25,4.262,23.821,24.057,25.659,30.535c3.057,10.879,3.075,21.037,2.072,29.627
	c2.787-1.202,5.936-2.623,9.519-4.257c9.336-4.291,20.398-0.151,24.694,9.244c4.258,9.353,0.146,20.416-9.244,24.673
	c-29.665,13.502-45.731,20.127-58.396,9.685c-11.193-9.173-8.008-22.642-5.917-31.592c1.946-8.192,4.134-17.508,1.385-27.259
	c-0.038-0.147-0.073-0.289-0.109-0.44c-7.354,6.261-18.455,18.526-27.821,28.901l-14.998,16.414
	c-7.953,8.582-24.438,26.492-42.875,19.759c-18.304-6.55-19.487-26.891-21.107-55.025c-0.783-13.251-1.636-28.063-4.169-42.659
	c-17.16,15.035-49.948,61.332-78.356,111.697C261.151,732.189,254.82,735.609,248.322,735.609L248.322,735.609z M211.071,344.29
	h409.953v-37.266H211.071V344.29z M211.071,418.828h409.953v-37.266H211.071V418.828z M211.071,493.367h335.418v-37.269H211.071
	V493.367z"/>
</svg>
