<?xml version="1.0" encoding="utf-8"?>
<!-- Generator: Adobe Illustrator 16.0.0, SVG Export Plug-In . SVG Version: 6.00 Build 0)  -->
<!DOCTYPE svg PUBLIC "-//W3C//DTD SVG 1.1//EN" "http://www.w3.org/Graphics/SVG/1.1/DTD/svg11.dtd">
<svg version="1.1" id="图层_1" xmlns="http://www.w3.org/2000/svg" xmlns:xlink="http://www.w3.org/1999/xlink" x="0px" y="0px"
	 width="1024px" height="1024px" viewBox="0 0 1024 1024" enable-background="new 0 0 1024 1024" xml:space="preserve">
<path fill="#333333" d="M174.5,174.5h450v168.75h-450V174.5z M230.75,287h337.5v-56.25h-337.5V287z"/>
<path fill="#333333" d="M287,62h225v168.75H287V62z M343.25,118.25v56.25h112.5v-56.25H343.25z"/>
<path fill="#333333" d="M118.25,849.5V230.75h562.5v196.875H737V174.5H62v731.25h365.625V849.5H118.25z"/>
<path fill="#333333" d="M962,399.5v393.75L793.25,962H399.5V399.5H962L962,399.5z M455.75,905.75h309.375L905.75,770.749V455.75
	h-450V905.75L455.75,905.75z"/>
<path fill="#333333" d="M737,737h225v-56.25H680.75V962H737V737z"/>
</svg>
