<svg xmlns="http://www.w3.org/2000/svg" width="1024" height="1024"><path d="M512 62a419 419 0 0 1 291 116 387 387 0 0 1 48 502 407 407 0 0 1-183 143L538 951a36 36 0 0 1-51 1l-1-1-131-128a410 410 0 0 1-182-143 387 387 0 0 1 49-502A419 419 0 0 1 512 62zm0 196c57 0 108 22 146 57a196 196 0 0 1 60 141 195 195 0 0 1-60 141 209 209 0 0 1-146 58 210 210 0 0 1-146-58 195 195 0 0 1-60-141c0-55 23-104 60-141a209 209 0 0 1 146-57zm115 87a168 168 0 0 0-115-46c-45 0-86 18-115 46a154 154 0 0 0 0 222 165 165 0 0 0 115 46c45 0 86-18 115-46a154 154 0 0 0 48-111c0-43-18-82-48-111zm150-140a378 378 0 0 0-264-105 378 378 0 0 0-264 105 354 354 0 0 0-45 459 373 373 0 0 0 172 132c5 2 11 5 15 9l122 120 121-120v1c4-4 9-8 14-10a371 371 0 0 0 173-132 354 354 0 0 0-44-459z"/></svg>