<?xml version="1.0" encoding="utf-8"?>
<!-- Generator: Adobe Illustrator 16.0.0, SVG Export Plug-In . SVG Version: 6.00 Build 0)  -->
<!DOCTYPE svg PUBLIC "-//W3C//DTD SVG 1.1//EN" "http://www.w3.org/Graphics/SVG/1.1/DTD/svg11.dtd">
<svg version="1.1" id="图层_1" xmlns="http://www.w3.org/2000/svg" xmlns:xlink="http://www.w3.org/1999/xlink" x="0px" y="0px"
	 width="1024px" height="1024px" viewBox="0 0 1024 1024" enable-background="new 0 0 1024 1024" xml:space="preserve">
<path d="M512.043,62c113.21,0,216.2,44.423,290.452,115.654c138.989,134.295,159.11,347.152,48.666,502.598
	c-44.359,63.066-108.39,113.403-182.834,142.847L537.501,951.288c-14.015,14.207-36.709,14.207-50.724,0.45l-0.514-0.45
	l-0.257-0.257L355.439,823.098c-74.444-29.443-137.96-79.78-182.833-142.847C62.417,524.805,82.604,311.949,221.593,177.654
	C295.78,106.423,398.511,62,512.043,62L512.043,62L512.043,62z M512.043,257.948L512.043,257.948
	c57.088,0,108.325,21.601,145.612,57.473c37.223,36.323,60.43,85.696,60.43,140.661c0,54.708-23.208,104.596-60.43,140.468
	c-37.223,35.809-88.459,57.923-145.612,57.923c-57.151,0-108.646-22.114-145.868-57.923
	c-37.223-35.872-60.173-85.759-60.173-140.468c0-55.03,22.95-104.338,60.173-140.661
	C403.397,279.549,454.892,257.948,512.043,257.948L512.043,257.948L512.043,257.948z M627.247,344.865L627.247,344.865
	c-29.573-27.965-70.396-45.645-115.268-45.645c-45.13,0-85.696,17.68-115.268,45.645c-29.572,28.736-47.958,68.016-47.958,111.217
	c0,43.459,18.321,82.481,47.958,110.96c29.637,28.479,70.138,45.901,115.332,45.901c44.874,0,85.696-17.422,115.268-45.901
	c29.315-28.479,47.701-67.502,47.701-110.96C674.948,412.881,656.562,373.537,627.247,344.865L627.247,344.865L627.247,344.865z
	 M776.651,204.846L776.651,204.846C709.278,139.723,615.996,99.608,512.622,99.608c-103.053,0-196.591,40.18-263.771,105.303
	c-126.132,122.082-144.647,316.68-44.68,458.562c41.851,59.145,101.703,105.561,171.647,132.175
	c5.336,1.865,10.929,5.144,14.851,8.937l121.89,120.218l121.89-120.218v1.093c3.663-4.307,8.421-7.585,13.499-9.514
	c70.523-26.295,130.632-73.288,172.74-132.69C921.039,521.527,902.46,326.928,776.651,204.846L776.651,204.846L776.651,204.846z"/>
</svg>
