<svg xmlns="http://www.w3.org/2000/svg" width="1024" height="1024"><path d="M926 62H98c-20 0-36 16-36 36v828c0 20 16 36 36 36h828c20 0 36-16 36-36V98c0-20-16-36-36-36zm-45 819H143V143h738v738zM490 386h207c5 0 9-4 9-9v-54c0-5-4-9-9-9H490c-5 0-9 4-9 9v54c0 5 4 9 9 9zm0 162h207c5 0 9-4 9-9v-54c0-5-4-9-9-9H490c-5 0-9 4-9 9v54c0 5 4 9 9 9zm0 162h207c5 0 9-4 9-9v-54c0-5-4-9-9-9H490c-5 0-9 4-9 9v54c0 5 4 9 9 9zM319 350a45 45 0 0 0 90 0 45 45 0 1 0-90 0zm0 162a45 45 0 1 0 90 0 45 45 0 1 0-90 0zm0 162a45 45 0 1 0 90 0 45 45 0 1 0-90 0z"/></svg>