<?xml version="1.0" encoding="utf-8"?>
<!-- Generator: Adobe Illustrator 16.0.0, SVG Export Plug-In . SVG Version: 6.00 Build 0)  -->
<!DOCTYPE svg PUBLIC "-//W3C//DTD SVG 1.1//EN" "http://www.w3.org/Graphics/SVG/1.1/DTD/svg11.dtd">
<svg version="1.1" id="图层_1" xmlns="http://www.w3.org/2000/svg" xmlns:xlink="http://www.w3.org/1999/xlink" x="0px" y="0px"
	 width="1024px" height="1024px" viewBox="0 0 1024 1024" enable-background="new 0 0 1024 1024" xml:space="preserve">
<path d="M926,62H98c-19.912,0-36,16.088-36,36v828c0,19.912,16.088,36,36,36h828c19.912,0,36-16.088,36-36V98
	C962,78.088,945.912,62,926,62L926,62z M881,881H143V143h738V881L881,881z M489.5,386h207c4.95,0,9-4.05,9-9v-54c0-4.95-4.05-9-9-9
	h-207c-4.95,0-9,4.05-9,9v54C480.5,381.95,484.55,386,489.5,386z M489.5,548h207c4.95,0,9-4.05,9-9v-54c0-4.95-4.05-9-9-9h-207
	c-4.95,0-9,4.05-9,9v54C480.5,543.95,484.55,548,489.5,548z M489.5,710h207c4.95,0,9-4.051,9-9v-54c0-4.95-4.05-9-9-9h-207
	c-4.95,0-9,4.05-9,9v54C480.5,705.949,484.55,710,489.5,710z M318.5,350c-0.013,24.853,20.124,45.01,44.976,45.024
	c24.853,0.012,45.011-20.124,45.024-44.977c0-0.016,0-0.032,0-0.047c0-24.853-20.147-45-45-45C338.647,305,318.5,325.147,318.5,350
	L318.5,350z M318.5,512c-0.013,24.853,20.124,45.01,44.976,45.023c24.853,0.014,45.011-20.124,45.024-44.977
	c0-0.015,0-0.031,0-0.047c0-24.853-20.147-45-45-45C338.647,467,318.5,487.147,318.5,512L318.5,512z M318.5,674
	c-0.013,24.853,20.124,45.011,44.976,45.023c24.853,0.014,45.011-20.123,45.024-44.977c0-0.016,0-0.03,0-0.047
	c0-24.853-20.147-45-45-45C338.647,629,318.5,649.147,318.5,674L318.5,674z"/>
</svg>
