<svg xmlns="http://www.w3.org/2000/svg" width="1024" height="1024"><path d="M72 339l426 232a29 29 0 0 0 28 0l422-230a26 26 0 0 0 0-46L527 66a29 29 0 0 0-29 0L76 296a26 26 0 0 0-4 43zm441-220l365 199-366 200-366-199 367-200z"/><path d="M948 489l-79-43-56 30 65 36-366 199-366-199 65-35-56-31-79 44a26 26 0 0 0-3 43h-1l426 232a29 29 0 0 0 28 0l422-230a26 26 0 0 0 0-46z"/><path d="M948 683l-79-43-56 30 65 36-366 199-366-199 65-35-56-31-79 43a26 26 0 0 0-3 44h-1l426 231a29 29 0 0 0 28 0l422-229a26 26 0 0 0 0-46z"/></svg>