<?xml version="1.0" encoding="utf-8"?>
<!-- Generator: Adobe Illustrator 16.0.0, SVG Export Plug-In . SVG Version: 6.00 Build 0)  -->
<!DOCTYPE svg PUBLIC "-//W3C//DTD SVG 1.1//EN" "http://www.w3.org/Graphics/SVG/1.1/DTD/svg11.dtd">
<svg version="1.1" id="图层_1" xmlns="http://www.w3.org/2000/svg" xmlns:xlink="http://www.w3.org/1999/xlink" x="0px" y="0px"
	 width="1024px" height="1024px" viewBox="0 0 1024 1024" enable-background="new 0 0 1024 1024" xml:space="preserve">
<g>
	<path d="M72.439,339.225l-0.205,0.293l425.372,231.437c4.263,2.326,9.107,3.555,14.01,3.555c5.055,0,10.02-1.287,14.31-3.697
		l422.112-229.655c13.359-7.291,17.934-23.469,10.195-36.063c-2.516-4.092-6.152-7.475-10.465-9.752L527.269,65.557
		C523.008,63.23,518.161,62,513.259,62c-5.519,0-10.862,1.511-15.462,4.369L76.024,295.843
		c-13.365,7.233-17.992,23.368-10.315,35.968C67.451,334.667,69.739,337.182,72.439,339.225z M513.157,118.855l364.926,199.42
		L511.639,517.647L145.914,318.658L513.157,118.855z"/>
	<path d="M947.77,489.087l-79.144-43.25l-55.948,30.438l65.406,35.746l-366.445,199.37L145.914,512.405l65.548-35.663
		l-55.917-30.424l-79.521,43.269c-13.365,7.235-17.992,23.371-10.314,35.968c1.771,2.906,4.11,5.458,6.87,7.521l-0.176,0.283
		l425.205,231.344c4.263,2.325,9.106,3.553,14.009,3.553c5.055-0.001,10.019-1.286,14.31-3.695l422.112-229.653
		c13.359-7.295,17.934-23.473,10.195-36.063C955.718,494.747,952.081,491.365,947.77,489.087z"/>
	<path d="M947.77,682.832l-78.818-43.073l-55.946,30.438l65.079,35.567L511.64,905.136L145.914,706.15l65.222-35.487l-55.915-30.422
		l-79.197,43.093c-13.366,7.236-17.992,23.371-10.313,35.967c1.75,2.873,4.058,5.402,6.781,7.454l-0.194,0.289l425.309,231.4
		c4.264,2.326,9.109,3.557,14.012,3.556c5.054,0,10.019-1.286,14.309-3.692L948.04,728.65c13.358-7.296,17.932-23.473,10.194-36.063
		C955.721,688.495,952.084,685.112,947.77,682.832z"/>
</g>
</svg>
