<?xml version="1.0" encoding="iso-8859-1"?>
<!-- Generator: Adobe Illustrator 19.0.0, SVG Export Plug-In . SVG Version: 6.00 Build 0)  -->
<svg version="1.1" id="&#x56FE;&#x5C42;_1" xmlns="http://www.w3.org/2000/svg" xmlns:xlink="http://www.w3.org/1999/xlink" x="0px"
	 y="0px" viewBox="0 0 1024 1024" style="enable-background:new 0 0 1024 1024;" xml:space="preserve">
<g id="XMLID_571_">
	<g id="vJz2Qp.tif_4_">
		<g id="XMLID_502_">
			<g id="XMLID_503_">
				<path id="XMLID_504_" d="M496.407,294.382c0-10.664,0-58.654,0-58.654c-74.65,0-186.625,0-223.95,0
					c0-26.661,0-69.318,10.664-85.314c21.329-37.325,42.657-58.654,90.646-74.65c90.646-15.996,133.303-15.996,207.954-5.332
					c53.321,5.332,101.311,47.989,101.311,101.311c0,58.654,0,159.964,0,223.95c0,26.661-47.989,85.314-106.643,85.314
					s-133.303,0-202.621,0c-79.982,0-127.971,74.65-127.971,149.3c0,21.329,0,117.307,0,117.307c-26.661,0-63.986,0-90.646,0
					c-63.986-15.996-90.646-74.65-90.646-122.639c0-69.318,0-143.968,0-218.618c-5.332-53.321,31.993-106.643,95.979-106.643
					C240.465,294.382,496.407,294.382,496.407,294.382z"/>
			</g>
		</g>
	</g>
	<g id="vJz2Qp.tif_3_">
		<g id="XMLID_499_">
			<g id="XMLID_500_">
				<path id="XMLID_501_" d="M532.097,731.618c0,10.664,0,58.654,0,58.654c74.65,0,186.625,0,223.95,0
					c0,26.661,0,69.318-10.664,85.314c-21.328,37.325-42.657,58.654-90.646,74.65c-90.646,15.996-133.303,15.996-207.953,5.332
					c-53.321-5.332-101.311-47.989-101.311-101.311c0-58.654,0-159.964,0-223.95c0-26.661,47.989-85.314,106.643-85.314
					s133.304,0,202.621,0c79.982,0,127.971-74.65,127.971-149.3c0-21.329,0-117.307,0-117.307c26.661,0,63.986,0,90.646,0
					C937.339,294.382,964,353.036,964,401.025c0,69.318,0,143.968,0,218.618c0,53.321-37.325,111.975-101.311,111.975
					C788.039,731.618,532.097,731.618,532.097,731.618z"/>
			</g>
		</g>
	</g>
</g>
</svg>
