<?xml version="1.0" encoding="iso-8859-1"?>
<!-- Generator: Adobe Illustrator 19.0.0, SVG Export Plug-In . SVG Version: 6.00 Build 0)  -->
<svg version="1.1" id="&#x56FE;&#x5C42;_1" xmlns="http://www.w3.org/2000/svg" xmlns:xlink="http://www.w3.org/1999/xlink" x="0px"
	 y="0px" viewBox="0 0 1024 1024" style="enable-background:new 0 0 1024 1024;" xml:space="preserve">
<g id="XMLID_48_">
	<path id="XMLID_65_" d="M874.284,962.179H670.8c-53.162-162.237-93.951-262.375-122.365-300.414s-74.244-57.058-137.489-57.058
		c-26.581,0-52.017,0.229-76.306,0.687c0,117.782,2.062,236.71,6.187,356.784h-191.11c5.958-138.406,8.937-294.456,8.937-468.15
		c0-166.82-2.979-309.121-8.937-426.904h118.928c13.749,0,42.507-0.687,86.274-2.062C398.686,63.688,439.131,63,476.253,63
		c210.358,0,315.538,71.953,315.538,215.858c0,114.116-60.037,193.63-180.111,238.544v10.312
		c46.288,12.832,86.847,48.923,121.678,108.273C768.188,695.335,815.164,804.066,874.284,962.179z M616.492,329.729
		c0-91.201-58.662-136.802-175.986-136.802c-43.08,0-81.119,3.208-114.116,9.624c5.041,71.036,7.562,163.612,7.562,277.728
		c25.206,0.917,46.517,1.375,63.932,1.375C543.622,481.654,616.492,431.013,616.492,329.729z"/>
</g>
</svg>
