<?xml version="1.0" encoding="utf-8"?>
<!-- Generator: Adobe Illustrator 16.0.0, SVG Export Plug-In . SVG Version: 6.00 Build 0)  -->
<!DOCTYPE svg PUBLIC "-//W3C//DTD SVG 1.1//EN" "http://www.w3.org/Graphics/SVG/1.1/DTD/svg11.dtd">
<svg version="1.1" id="图层_1" xmlns="http://www.w3.org/2000/svg" xmlns:xlink="http://www.w3.org/1999/xlink" x="0px" y="0px"
	 width="1024px" height="1024px" viewBox="0 0 1024 1024" enable-background="new 0 0 1024 1024" xml:space="preserve">
<circle cx="348.451" cy="467.807" r="27.096"/>
<path d="M592.319,88.458c-182.684,0-379.349,55.087-379.349,176.126v344.669c1.593,0.294,3.087,1.376,3.852,3.417
	c3.546,9.456,11.083,17.02,13.606,26.951c2.877,11.32,2.131,22.821,2.072,34.378c-0.013,2.477-1.497,3.998-3.317,4.572
	c-0.135,0.912-0.286,1.819-0.45,2.722c-0.4,11.683-2.492,23.21-9.416,32.729c-1.261,1.733-3.077,2.316-4.79,2.136
	c-0.509,0.799-1.029,1.595-1.559,2.386v49.028c1.834-0.365,3.777,0.255,4.848,2.403c1.871,3.754,3.243,7.686,4.363,11.704
	c3.471,7.272,8.078,14.09,11.434,21.377c4.604,9.997,7.291,20.78,11.989,30.707c0.292-0.425,0.586-0.849,0.863-1.282
	c2.538-9.164,6.364-18.08,9.886-27.058c0.837-2.822,1.739-5.597,2.826-8.254c0.188-0.459,0.424-0.86,0.69-1.219
	c2.996-8.73,5.187-17.621,5.131-26.952c-0.012-1.947,0.895-3.302,2.162-4.073v-86.743c0.124,0.128,0.258,0.253,0.383,0.38
	c0.077-17.538,0.27-35.074,0.381-52.612c-0.497-2.734-0.764-5.492-0.764-8.273c0-0.271,0.108-0.569,0.108-0.841h-0.108v-101.23
	c55.98,57.688,191.028,87.683,325.156,87.683c134.126,0,269.174-29.995,325.155-87.683v101.23h-0.108
	c0,0.271,0.108,0.57,0.108,0.841c0,54.544-96.805,100.613-229.869,115.778c0.277,9.077,0.983,18.155,0.706,27.203
	c98.619-10.87,186.672-38.687,229.163-82.476v101.231c0,67.308-145.562,121.934-325.155,121.934
	c-132.145,0-245.879-29.584-296.741-72.033c-0.499,4.429-1.71,8.856-4.828,11.671c-1.415,1.276-3.092,2.223-4.915,2.93
	c0.01,2.508-1.602,5.045-4.835,5.084c-12.765,0.155-28.695,4.23-41.625,0.928c59.6,72.099,210.502,105.613,352.944,105.613
	c182.737,0,379.348-55.14,379.348-176.126v-514.83C971.666,143.546,775.056,88.458,592.319,88.458z M917.474,454.259h-0.108
	c0,0.271,0.108,0.57,0.108,0.84c0,66.901-145.589,121.093-325.155,121.093c-179.568,0-325.156-54.192-325.156-121.093
	c0-0.27,0.108-0.568,0.108-0.84h-0.108v-93.104c71.02,54.112,201.189,79.555,325.156,79.555
	c123.965,0,254.136-25.443,325.155-79.555V454.259z M592.319,386.518c-179.568,0-325.156-54.626-325.156-121.934
	c0-67.361,145.588-121.934,325.156-121.934c179.594,0,325.155,54.572,325.155,121.934
	C917.474,331.892,771.912,386.518,592.319,386.518z"/>
<path d="M334.834,661.17c-1.284-5.413-2.189-12.488-2.716-21.387h-1.02c-0.452,6.921-1.471,14.063-3.056,20.751l-20.037,86.031
	h46.753L334.834,661.17z"/>
<path d="M188.235,670.291c0-22.29-9.472-33.475-28.414-33.475h-18.944v71.188h18.264c8.754,0,15.792-3.651,21.113-10.816
	C185.574,690.024,188.235,681.013,188.235,670.291z"/>
<path d="M658.553,551.787l-494.936-0.001v-0.401h-30.65v0.401h-29.345c-17.027,0-31.956,12.724-31.956,29.751v277.465
	c0,17.026,14.928,30.928,31.956,30.928h29.345v1.498c10.219-0.159,20.43-0.686,30.65-0.861v-0.637h494.936
	c17.026,0,30.076-13.901,30.076-30.928V581.537C688.629,564.51,675.578,551.787,658.553,551.787z M367.829,649.282l49.645,194.178
	h-40.755l-13.132-56.357h-63.733l-12.905,56.357h-81.848l-27.508-64.114c-5.661-13.268-10.302-21.531-13.924-25.354
	c-3.622-3.821-7.472-5.45-11.546-5.45h-11.246v94.918h-37.572V597.268h61.609c41.733,0,62.602,22.12,62.602,66.703
	c0,16.773-3.936,31.07-10.916,43.063c-6.981,11.996-16.401,20.35-29.254,25.231v0.637c8.898,3.821,17.461,16.348,27.273,37.575
	l32.201,70.871l63.789-244.081h43.922l1.841,7.201 M356.373,604.469l11.457,44.813 M611.62,843.46h-41.546l-29.886-160.723
	c-1.585-8.702-2.53-17.247-2.83-27.135h-0.452c-0.756,10.876-1.813,20.025-3.17,27.135L503.17,843.46h-43.131l-46.754-246.191
	h40.979l26.037,167.128c1.133,7.324,1.925,16.774,2.378,27.649h0.792c0.377-8.898,1.545-18.147,3.509-28.446l32.603-166.332h39.734
	l29.66,168.562c1.206,6.688,2.15,15.342,2.829,26.217h0.567c0.301-9.886,1.17-18.358,2.604-27.172l25.471-167.606l37.926,0.001
	L611.62,843.46z"/>
</svg>
