<?xml version="1.0" encoding="utf-8"?>
<!-- Generator: Adobe Illustrator 16.0.0, SVG Export Plug-In . SVG Version: 6.00 Build 0)  -->
<!DOCTYPE svg PUBLIC "-//W3C//DTD SVG 1.1//EN" "http://www.w3.org/Graphics/SVG/1.1/DTD/svg11.dtd">
<svg version="1.1"
	 id="svg4205" xmlns:dc="http://purl.org/dc/elements/1.1/" xmlns:cc="http://creativecommons.org/ns#" xmlns:rdf="http://www.w3.org/1999/02/22-rdf-syntax-ns#" xmlns:svg="http://www.w3.org/2000/svg" sodipodi:docname="frame.svg" inkscape:version="0.91 r13725" xmlns:sodipodi="http://sodipodi.sourceforge.net/DTD/sodipodi-0.dtd" xmlns:inkscape="http://www.inkscape.org/namespaces/inkscape"
	 xmlns="http://www.w3.org/2000/svg" xmlns:xlink="http://www.w3.org/1999/xlink" x="0px" y="0px" width="1024px" height="1024px"
	 viewBox="0 0 1024 1024" enable-background="new 0 0 1024 1024" xml:space="preserve">
<path d="M415.072,528.869c-9.911,0-17.952-8.203-17.952-18.359c0-10.146,8.043-18.379,17.952-18.379h113.697v-22.145
	c-0.868-1.541-1.505-3.111-1.899-4.798L421.428,352.681c-7.012-7.177-7.012-18.803,0-25.974c7.01-7.177,18.386-7.177,25.386,0
	l99.915,107.613l99.896-107.613c7.021-7.177,18.383-7.177,25.404,0c6.999,7.171,6.999,18.797,0,25.974L566.575,465.182
	c-0.394,1.692-1.02,3.248-1.898,4.804v22.145h113.704c9.909,0,17.949,8.228,17.949,18.379c0,10.156-8.04,18.359-17.949,18.359
	H564.677v42.21h113.704c9.909,0,17.949,8.228,17.949,18.363c0,10.172-8.04,18.373-17.949,18.373H564.677v78.291
	c0,10.162-8.04,18.374-17.948,18.374c-9.909,0-17.95-8.212-17.95-18.374v-78.291H415.072c-9.911,0-17.952-8.201-17.952-18.373
	c0-10.141,8.043-18.363,17.952-18.363h113.707v-42.21H415.072z M928.981,675.875c-21.151,50.15-51.434,95.153-89.998,133.845
	c-38.574,38.666-83.502,69.008-133.531,90.195c-51.807,21.964-106.815,33.12-163.532,33.12c-56.705,0-111.714-11.156-163.502-33.12
	c-37.704-15.965-72.478-37.126-103.841-63.115h62.509c59.314,37.711,129.55,59.655,204.835,59.655
	c211.511,0,383.587-172.46,383.587-384.455c0-211.989-172.076-384.47-383.587-384.47c-211.481,0-383.575,172.481-383.575,384.47
	h-36.501c0.002-56.837,11.133-111.972,33.024-163.9c21.167-50.15,51.436-95.154,89.988-133.845
	c38.58-38.635,83.505-68.998,133.563-90.19c51.789-21.959,106.794-33.1,163.502-33.1c56.717,0,111.726,11.141,163.532,33.1
	c50.029,21.192,94.937,51.555,133.531,90.19c38.564,38.671,68.847,83.7,89.998,133.845C950.868,400.028,962,455.163,962,512
	C962,568.842,950.868,623.977,928.981,675.875z M230.496,566.17c-6.291-6.655-6.119-17.256,0.402-23.676
	c6.507-6.435,16.888-6.242,23.171,0.409l90.583,95.8c0.677,0.719,0.995,1.616,1.52,2.415c0.634,0.949,1.389,1.803,1.821,2.884
	c0.813,2.03,1.252,4.177,1.252,6.338s-0.439,4.303-1.25,6.333c-0.457,1.132-1.237,2.035-1.914,3.031
	c-0.508,0.747-0.801,1.601-1.44,2.282l-90.573,95.806c-6.291,6.646-16.664,6.833-23.171,0.414
	c-6.513-6.435-6.685-17.03-0.402-23.677l63.751-67.442H78.386c-9.045,0-16.386-7.5-16.386-16.742
	c0-9.247,7.341-16.741,16.386-16.741h215.858L230.496,566.17z"/>
</svg>
