<svg xmlns="http://www.w3.org/2000/svg" width="1024" height="1024"><path d="M415 529c-10 0-18-8-18-19 0-10 8-18 18-18h114v-22a18 18 0 0 1-2-5L422 353c-7-8-7-19 0-26 7-8 18-8 25 0l100 107 100-107c7-8 18-8 25 0s7 18 0 26L567 465l-2 5v22h113c10 0 18 8 18 18 0 11-8 19-18 19H565v42h113c10 0 18 8 18 18s-8 19-18 19H565v78c0 10-8 18-18 18s-18-8-18-18v-78H415c-10 0-18-9-18-19s8-18 18-18h114v-42H415zm514 147a420 420 0 0 1-223 224 417 417 0 0 1-164 33 417 417 0 0 1-267-96h62a381 381 0 0 0 205 59 385 385 0 0 0 0-768 385 385 0 0 0-384 384h-36a420 420 0 0 1 123-298A419 419 0 0 1 542 91a419 419 0 0 1 297 123 420 420 0 0 1 123 298c0 57-11 112-33 164zM231 566a17 17 0 0 1 0-23 16 16 0 0 1 23 0l91 96 1 2 2 3a17 17 0 0 1 0 13l-2 3-1 2-91 96a16 16 0 0 1-23 0 17 17 0 0 1 0-24l63-67H78c-9 0-16-7-16-17 0-9 7-16 16-16h216l-63-68z"/></svg>