<?xml version="1.0" encoding="iso-8859-1"?>
<!-- Generator: Adobe Illustrator 19.0.0, SVG Export Plug-In . SVG Version: 6.00 Build 0)  -->
<svg version="1.1" id="&#x56FE;&#x5C42;_1" xmlns="http://www.w3.org/2000/svg" xmlns:xlink="http://www.w3.org/1999/xlink" x="0px"
	 y="0px" viewBox="0 0 1024 1024" style="enable-background:new 0 0 1024 1024;" xml:space="preserve">
<g id="XMLID_72_">
	<g id="XMLID_52_">
		<path id="XMLID_53_" d="M479.476,929.5C249.272,929.5,62,742.228,62,512.025S249.272,94.499,479.476,94.499
			c152.957,0,293.535,83.485,366.771,217.874c10.052,18.47,3.268,41.545-15.152,51.596c-18.47,10.151-41.545,3.268-51.596-15.152
			c-59.965-109.977-174.893-178.26-300.022-178.26c-188.263,0-341.418,153.205-341.418,341.468s153.155,341.418,341.418,341.418
			c93.141,0,180.142-36.841,245.058-103.688c14.756-15.053,38.821-15.4,53.775-0.792c15.053,14.607,15.4,38.722,0.792,53.775
			C699.776,884.49,593.364,929.5,479.476,929.5z"/>
	</g>
	<g id="XMLID_51_">
		<path id="XMLID_55_" d="M787.403,789.438"/>
	</g>
	<g id="XMLID_50_">
		<path id="XMLID_54_" d="M853.855,304.474"/>
	</g>
	<g id="XMLID_49_">
		<polygon id="XMLID_45_" points="637.296,364.732 917.665,553.225 962,250.291 		"/>
	</g>
</g>
</svg>
