<svg xmlns="http://www.w3.org/2000/svg" width="1024" height="1024"><path d="M120 62c-32 0-58 28-58 61v367c0 34 26 62 58 62h214c32 0 58-28 58-62V123c0-33-26-61-58-61H120zm217 63v360c0 2-2 4-3 4H120l-2-4V125c0-3 1-5 2-5h214c1 0 3 2 3 5zm-3 490H120c-32 0-58 27-58 61v225c0 34 26 61 58 61h214c32 0 58-27 58-61V676c0-34-26-61-58-61zM558 62c-32 0-58 28-58 61v491c0 34 26 61 58 61h346c32 0 58-27 58-61V123c0-33-26-61-58-61H558zm339 687l-339 1c-32 0-58 27-58 61v90c0 34 26 61 58 61h346c32 0 58-27 58-61v-90c0-25-12-45-33-56a55 55 0 0 0-25-6h-8z"/></svg>