<svg xmlns="http://www.w3.org/2000/svg" width="1024" height="1024"><path d="M606 442a301 301 0 0 1 118-24h12a304 304 0 0 0 14-162A233 233 0 0 0 480 66C354 88 247 187 269 314a409 409 0 0 0 34 102L74 748a76 76 0 0 0-11 49l10 56c-10-54 2 20 10 20l76 1a71 71 0 0 0 41-28l90-142 1-1 80 7 106-167 1 1a323 323 0 0 1 128-102zM123 783l-11 4 1-12 221-320 13 13-224 315zm335-588a109 109 0 0 1 153-28 112 112 0 0 1 27 155c-35 50-70 15-120-21-50-35-95-56-60-107z"/><path d="M720 479a241 241 0 1 0 0 483 241 241 0 0 0 0-483zm140 341c0 36-69 44-134 44s-135-8-135-44v-10c0-27 48-54 89-68 3-1 17-9 9-30a130 130 0 0 1-36-86c0-51 34-77 73-77 38 0 72 26 72 77 0 32-15 66-35 86-8 24 5 29 6 30 43 14 91 41 91 68v10z"/></svg>