<?xml version="1.0" encoding="utf-8"?>
<!-- Generator: Adobe Illustrator 16.0.0, SVG Export Plug-In . SVG Version: 6.00 Build 0)  -->
<!DOCTYPE svg PUBLIC "-//W3C//DTD SVG 1.1//EN" "http://www.w3.org/Graphics/SVG/1.1/DTD/svg11.dtd">
<svg version="1.1" id="图层_1" xmlns="http://www.w3.org/2000/svg" xmlns:xlink="http://www.w3.org/1999/xlink" x="0px" y="0px"
	 width="1024px" height="1024px" viewBox="0 0 1024 1024" enable-background="new 0 0 1024 1024" xml:space="preserve">
<g>
	<path d="M605.495,441.484c37.429-15.814,76.965-23.901,117.913-23.901c4.042,0,8.09,0.176,12.121,0.176
		c19.165-48.502,24.082-105.79,14.414-161.493C727.627,128.504,607.074,43.1,480.37,65.595
		C353.848,88.088,247,186.497,269.492,314.254c4.747,27.588,18.102,70.646,33.918,101.75L73.554,747.605
		c-8.436,12.132-13.355,34.097-10.721,49.033l10.02,56.764c-9.489-54.657,2.632,19.679,10.015,19.502l75.74,1.056
		c14.59-2.635,32.862-14.937,40.946-27.414l90.853-142.166l0.88-0.88l79.431,6.325l106.139-166.418c0.352,0,0.704,0.176,1.056,0.176
		c9.49-13.001,19.856-25.304,31.457-36.901C536.956,478.563,569.463,456.774,605.495,441.484L605.495,441.484z M123.285,782.576
		l-11.244,4.751l1.229-12.302l220.194-319.659l13.179,12.299L123.285,782.576L123.285,782.576z M457.878,194.406
		c34.797-50.081,103.331-62.562,152.887-27.238c49.73,35.32,61.856,104.56,27.062,154.641
		c-34.794,50.088-70.293,14.763-120.024-20.384C468.247,266.104,423.083,244.665,457.878,194.406L457.878,194.406z"/>
	<path d="M720.423,479.091c-133.384,0-241.455,108.069-241.455,241.458C478.968,853.926,587.039,962,720.423,962
		c133.382,0,241.456-108.074,241.456-241.451C961.879,587.165,853.805,479.091,720.423,479.091L720.423,479.091z M859.953,819.658
		c0,36.026-69.062,44.282-133.91,44.282c-64.844,0-134.78-8.261-134.78-44.282v-10.014c0-26.535,47.796-53.422,88.392-68.011
		c2.986-1.057,17.043-8.789,9.135-29.346c-20.204-20.562-35.322-53.949-35.322-86.813c0-50.259,33.217-76.617,72.224-76.617
		c38.837,0,72.4,26.358,72.4,76.617c0,32.688-15.288,65.899-35.322,86.638h0.181c-7.732,23.368,4.564,28.993,6.495,29.521
		c42.708,14.057,90.685,40.772,90.685,68.011L859.953,819.658L859.953,819.658L859.953,819.658z"/>
</g>
</svg>
