<?xml version="1.0" encoding="utf-8"?>
<!-- Generator: Adobe Illustrator 16.0.0, SVG Export Plug-In . SVG Version: 6.00 Build 0)  -->
<!DOCTYPE svg PUBLIC "-//W3C//DTD SVG 1.1//EN" "http://www.w3.org/Graphics/SVG/1.1/DTD/svg11.dtd">
<svg version="1.1" id="图层_1" xmlns="http://www.w3.org/2000/svg" xmlns:xlink="http://www.w3.org/1999/xlink" x="0px" y="0px"
	 width="1024px" height="1024px" viewBox="0 0 1024 1024" enable-background="new 0 0 1024 1024" xml:space="preserve">
<path d="M260.943,891.864c-17.998-2.586-32.735-8.717-41.679-21.091c-11.136-15.3-16.705-42.522-16.705-81.672V646.122
	c0-73.515-22.273-118.061-66.765-133.528v-2.25c44.546-16.705,66.765-61.534,66.765-134.43V230.515
	c0-65.022,23.624-98.15,70.872-99.444V61.999c-94.775,0.957-142.19,55.571-142.19,163.79V371.58
	c0,69.128-23.062,105.405-69.24,108.894v62.997c46.178,2.813,69.24,38.53,69.24,106.979v149.617
	c0,106.979,47.415,160.978,142.19,161.933v-44.997h56.922l193.769-808.15h-75.427l-187.751,783.01L260.943,891.864z M777.003,253.41
	l-15.019-43.929l-86.45,32.96l8.604-99.782h-49.384l8.269,99.782l-86.451-32.96l-15.975,43.929l91.346,17.717l-63.109,79.027
	l39.203,26.829l51.521-87.238l50.903,87.238l39.259-26.829l-63.445-79.027l90.726-17.717H777.003z M892.702,371.585V225.794
	c0-108.219-47.245-162.833-141.797-163.79v69.128c47.527,1.575,71.321,34.704,71.321,99.445v145.284
	c0,72.897,22.273,117.725,66.766,134.431v2.361c-44.548,15.47-66.766,59.959-66.766,133.53v142.979
	c0,37.854-5.624,64.798-16.874,80.715c-11.249,15.917-29.417,24.073-54.39,24.354v67.722
	c94.496-0.957,141.798-54.898,141.798-161.935V650.403c0-68.508,23.061-104.169,69.239-106.981v-62.94
	c-46.234-3.431-69.296-39.765-69.296-108.894L892.702,371.585z"/>
</svg>
