<svg xmlns="http://www.w3.org/2000/svg" width="1024" height="1024"><path d="M261 892c-18-3-33-9-42-21-11-16-16-43-16-82V646c0-73-23-118-67-133v-3c44-16 67-61 67-134V231c0-65 23-99 70-100V62c-94 1-142 56-142 164v146c0 69-23 105-69 109v63c46 2 69 38 69 107v149c0 107 48 161 142 162v-45h57l194-808h-75L261 892zm516-639l-15-44-86 33 8-99h-49l8 99-86-33-16 44 91 18-63 79 39 27 52-87 51 87 39-27-64-79 91-18zm116 119V226c0-108-47-163-142-164v69c47 2 71 35 71 100v145c0 73 22 118 67 134v3c-45 15-67 60-67 133v143c0 38-5 65-17 81-11 16-29 24-54 24v68c95-1 142-55 142-162V650c0-68 23-104 69-107v-63c-46-3-69-39-69-108z"/></svg>