<?xml version="1.0" encoding="iso-8859-1"?>
<!-- Generator: Adobe Illustrator 19.0.0, SVG Export Plug-In . SVG Version: 6.00 Build 0)  -->
<svg version="1.1" id="&#x56FE;&#x5C42;_1" xmlns="http://www.w3.org/2000/svg" xmlns:xlink="http://www.w3.org/1999/xlink" x="0px"
	 y="0px" viewBox="0 0 1024 1024" style="enable-background:new 0 0 1024 1024;" xml:space="preserve">
<g id="XMLID_723_">
	<path id="XMLID_729_" style="fill:#231815;" d="M420.864,691.513l236.193-155.042c17.499-11.486,17.499-37.141,0-48.627
		L420.864,332.803c-19.341-12.696-45.044,1.178-45.044,24.314v310.083C375.82,690.335,401.523,704.209,420.864,691.513z"/>
	<path id="XMLID_724_" style="fill:#231815;" d="M842,168c16.26,0,30,13.74,30,30v628.315c0,16.26-13.74,30-30,30H182
		c-16.26,0-30-13.74-30-30V198c0-16.26,13.74-30,30-30H842 M842,78H182c-66.006,0-120,53.994-120,120v628.315
		c0,65.991,53.994,120,120,120h660c66.006,0,120-54.009,120-120V198C962,131.994,908.006,78,842,78L842,78z"/>
</g>
</svg>
