<?xml version="1.0" encoding="utf-8"?>
<!-- Generator: Adobe Illustrator 16.0.0, SVG Export Plug-In . SVG Version: 6.00 Build 0)  -->
<!DOCTYPE svg PUBLIC "-//W3C//DTD SVG 1.1//EN" "http://www.w3.org/Graphics/SVG/1.1/DTD/svg11.dtd">
<svg version="1.1"
	 id="图层_1" xmlns:dc="http://purl.org/dc/elements/1.1/" xmlns:cc="http://creativecommons.org/ns#" xmlns:rdf="http://www.w3.org/1999/02/22-rdf-syntax-ns#" xmlns:svg="http://www.w3.org/2000/svg" sodipodi:docname="delete.svg" inkscape:version="0.91 r13725" xmlns:sodipodi="http://sodipodi.sourceforge.net/DTD/sodipodi-0.dtd" xmlns:inkscape="http://www.inkscape.org/namespaces/inkscape"
	 xmlns="http://www.w3.org/2000/svg" xmlns:xlink="http://www.w3.org/1999/xlink" x="0px" y="0px" width="1024px" height="1024px"
	 viewBox="0 0 1024 1024" enable-background="new 0 0 1024 1024" xml:space="preserve">
<path id="circle5" stroke="#000000" stroke-width="11.8241" stroke-miterlimit="10" d="M962,512c0,248.529-201.473,450-450,450l0,0
	C263.472,962,62,760.529,62,512l0,0C62,263.472,263.472,62,512,62l0,0C760.53,62,962,263.472,962,512z"/>
<sodipodi:namedview  id="namedview4160" borderopacity="1" pagecolor="#ffffff" inkscape:cx="-1295.0818" guidetolerance="10" showgrid="false" bordercolor="#666666" inkscape:cy="947.70245" objecttolerance="10" gridtolerance="10" inkscape:zoom="0.16296602" inkscape:current-layer="图层_1" inkscape:window-maximized="1" inkscape:window-y="-8" inkscape:window-x="-8" inkscape:window-height="847" inkscape:pageopacity="0" inkscape:window-width="1600" inkscape:pageshadow="2">
	</sodipodi:namedview>
<g>
	<path id="path7" inkscape:connector-curvature="0" fill="#FFFFFF" d="M578.211,671.649V410.821c0-6.879-5.732-12.609-12.612-12.609
		c-6.879,0-12.609,5.73-12.609,12.609v260.828c0,6.879,5.73,12.611,12.609,12.611S578.211,678.528,578.211,671.649z"/>
	<path id="path9" inkscape:connector-curvature="0" fill="#FFFFFF" d="M473.306,671.649V410.821c0-6.879-5.731-12.609-12.609-12.609
		c-6.881,0-12.611,5.73-12.611,12.609v260.828c0,6.879,5.73,12.611,12.611,12.611C467.573,684.26,473.306,678.528,473.306,671.649z"
		/>
	<path id="path11" inkscape:connector-curvature="0" fill="#FFFFFF" d="M688.272,386.172c-6.878,0-12.608,5.73-12.608,12.612
		v308.979c0,22.356-18.344,40.7-40.701,40.7h-243.63c-22.357,0-40.701-18.344-40.701-40.7V399.356
		c0-6.879-5.73-12.611-12.611-12.611c-6.879,0-12.609,5.732-12.609,12.611v308.408c0,36.688,29.809,66.496,66.497,66.496h243.057
		c36.688,0,66.496-29.809,66.496-66.496V399.356C700.885,391.903,695.154,386.172,688.272,386.172L688.272,386.172z"/>
	<path id="path13" inkscape:connector-curvature="0" fill="#FFFFFF" d="M428.592,274.962H597.7c6.88,0,12.61-5.733,12.61-12.611
		c0-6.879-5.73-12.611-12.61-12.611H428.592c-6.878,0-12.611,5.732-12.611,12.611C415.408,269.228,421.14,274.962,428.592,274.962
		L428.592,274.962z"/>
	<path id="path15" inkscape:connector-curvature="0" fill="#FFFFFF" d="M747.318,309.356H277.255c-6.879,0-12.61,5.732-12.61,12.611
		s5.731,12.61,12.61,12.61h469.49c6.88,0,12.61-5.73,12.61-12.61C759.356,315.089,754.198,309.356,747.318,309.356z"/>
</g>
</svg>
