<svg xmlns="http://www.w3.org/2000/svg" width="1024" height="1024"><path stroke="#000" stroke-width="12" stroke-miterlimit="10" d="M962 512a450 450 0 0 1-450 450h0A450 450 0 0 1 62 512h0A450 450 0 0 1 512 62h0a450 450 0 0 1 450 450z"/><g fill="#FFF"><path d="M578 672V411c0-7-5-13-12-13s-13 6-13 13v261c0 7 6 12 13 12s12-5 12-12zm-105 0V411c0-7-5-13-12-13s-13 6-13 13v261c0 7 6 12 13 12s12-5 12-12z"/><path d="M688 386c-7 0-12 6-12 13v309a41 41 0 0 1-41 40H391a41 41 0 0 1-40-40V399c0-7-6-12-13-12s-13 5-13 12v309a67 67 0 0 0 67 66h243a67 67 0 0 0 66-66V399c0-7-6-13-13-13zM429 275h169c7 0 12-6 12-13s-5-12-12-12H429c-7 0-13 5-13 12-1 7 5 13 13 13zm318 34H277c-7 0-12 6-12 13s5 13 12 13h470c7 0 12-6 12-13s-5-13-12-13z"/></g></svg>