<svg xmlns="http://www.w3.org/2000/svg" width="1024" height="1024"><path stroke="#000" stroke-width="12" stroke-miterlimit="10" d="M962 512a450 450 0 0 1-450 450h0A450 450 0 0 1 62 512h0A450 450 0 0 1 512 62h0a450 450 0 0 1 450 450z"/><path fill="#FFF" d="M549 518l221-218a15 15 0 0 0 0-21 15 15 0 0 0-22 0L528 497a15 15 0 0 0 0 21 15 15 0 0 0 21 0z"/><path fill="#FFF" d="M325 252c-40 0-73 41-73 92v336c0 51 33 92 73 92h340l3-1h23c45 0 81-41 81-91V405l-31 1v274c0 31-23 56-50 56H325c-24 0-45-25-45-56V343c0-31 21-56 45-56h340c7 0 14-8 14-18s-7-17-14-17H325z"/></svg>