<?xml version="1.0" encoding="utf-8"?>
<!-- Generator: Adobe Illustrator 16.0.0, SVG Export Plug-In . SVG Version: 6.00 Build 0)  -->
<!DOCTYPE svg PUBLIC "-//W3C//DTD SVG 1.1//EN" "http://www.w3.org/Graphics/SVG/1.1/DTD/svg11.dtd">
<svg version="1.1"
	 id="图层_1" xmlns:dc="http://purl.org/dc/elements/1.1/" xmlns:cc="http://creativecommons.org/ns#" xmlns:rdf="http://www.w3.org/1999/02/22-rdf-syntax-ns#" xmlns:svg="http://www.w3.org/2000/svg"
	 xmlns="http://www.w3.org/2000/svg" xmlns:xlink="http://www.w3.org/1999/xlink" x="0px" y="0px" width="1024px" height="1024px"
	 viewBox="0 0 1024 1024" enable-background="new 0 0 1024 1024" xml:space="preserve">
<path id="circle5" stroke="#000000" stroke-width="11.8241" stroke-miterlimit="10" d="M962,512c0,248.529-201.472,450-450,450l0,0
	C263.472,962,62,760.529,62,512l0,0C62,263.472,263.472,62,512,62l0,0C760.53,62,962,263.472,962,512z"/>
<path id="path9" fill="#FFFFFF" d="M549.323,517.755l220.407-217.84c5.813-5.745,5.813-15.319,0-21.064
	c-5.812-5.746-15.501-5.746-21.313,0L528.008,496.687c-5.813,5.745-5.813,15.32,0,21.066
	C533.823,523.498,543.511,523.498,549.323,517.755z"/>
<path id="path13" fill="#FFFFFF" d="M325.219,252C284.821,252,252,293.22,252,343.952v336.096C252,730.782,284.822,772,325.219,772
	h339.586c1.146-0.109,2.251-0.372,3.312-0.748h22.833c44.716,0,81.051-40.875,81.051-91.184V404.751
	c-17.246,0.614-25.629,0.904-31.44,1.176v274.14c0,30.658-22.362,55.812-49.61,55.812h-26.406c-0.042,0.15-0.096,0.303-0.143,0.451
	H325.219c-24.617,0-44.814-25.364-44.814-56.281v-336.89c0-30.915,20.198-56.28,44.814-56.28h339.586
	c7.571,0,13.887-7.926,13.887-17.439S672.376,252,664.805,252H325.219L325.219,252z"/>
</svg>
