<?xml version="1.0" encoding="utf-8"?>
<!-- Generator: Adobe Illustrator 16.0.0, SVG Export Plug-In . SVG Version: 6.00 Build 0)  -->
<!DOCTYPE svg PUBLIC "-//W3C//DTD SVG 1.1//EN" "http://www.w3.org/Graphics/SVG/1.1/DTD/svg11.dtd">
<svg version="1.1" id="图层_1" xmlns="http://www.w3.org/2000/svg" xmlns:xlink="http://www.w3.org/1999/xlink" x="0px" y="0px"
	 width="1024px" height="1024px" viewBox="0 0 1024 1024" enable-background="new 0 0 1024 1024" xml:space="preserve">
<g>
	<path d="M512,242c-164.502,0-292.735,102.964-450,269.897c135.499,142.736,249.199,270.102,450,270.102
		c200.799,0,348.383-161.234,450-267.084C857.981,390.915,710.384,242,512,242z M512,691.985c-99.259,0-180-80.741-180-179.985
		c0-99.245,80.741-179.986,180-179.986c99.256,0,180,80.742,180,179.986C692,611.244,611.256,691.985,512,691.985z"/>
	<path d="M512,406.999c-57.892,0-105.001,47.111-105.001,105.001c0,57.889,47.109,105,105.001,105c57.89,0,105-47.109,105-105
		C617,454.109,569.89,406.999,512,406.999z"/>
</g>
</svg>
