<?xml version="1.0" encoding="utf-8"?>
<!-- Generator: Adobe Illustrator 16.0.0, SVG Export Plug-In . SVG Version: 6.00 Build 0)  -->
<!DOCTYPE svg PUBLIC "-//W3C//DTD SVG 1.1//EN" "http://www.w3.org/Graphics/SVG/1.1/DTD/svg11.dtd">
<svg version="1.1" id="图层_1" xmlns="http://www.w3.org/2000/svg" xmlns:xlink="http://www.w3.org/1999/xlink" x="0px" y="0px"
	 width="1024px" height="1024px" viewBox="0 0 1024 1024" enable-background="new 0 0 1024 1024" xml:space="preserve">
<path d="M512,62c-188.563,0-341.433,151.111-341.433,337.487C170.567,585.861,512,962,512,962s341.433-376.139,341.433-562.513
	C853.434,213.111,700.565,62,512,62z M512,624.485c-125.704,0-227.627-100.72-227.627-224.999
	c0-124.251,101.923-224.999,227.627-224.999c125.705,0,227.627,100.749,227.627,224.999
	C739.627,523.765,637.705,624.485,512,624.485z M512,287c-62.859,0-113.806,50.361-113.806,112.486
	c0,62.126,50.947,112.514,113.806,112.514c62.858,0,113.807-50.387,113.807-112.514C625.807,337.362,574.859,287,512,287z"/>
</svg>
