<svg xmlns="http://www.w3.org/2000/svg" width="1024" height="1024"><path d="M360 559s0 139 153 139 152-139 152-139-146 134-305 0z"/><path d="M793 503a280 280 0 1 0-481 195 350 350 0 0 0 120 73 280 280 0 0 0 361-268zM513 741a238 238 0 1 1 0-476 238 238 0 0 1 0 476z"/><path d="M869 415a367 367 0 0 0-712 0s-99 15-95 115c5 99 109 105 109 105 1 3 23-3 31-4a336 336 0 1 1 418 191c-8 3-17-1-17-1s-23-4-51 4c-14 4-20 18-19 31 1 16 7 27 23 29 21 4 50 7 61-15 4-6 7-17 14-20a368 368 0 0 0 224-215s104-12 107-107c3-96-93-113-93-113z"/></svg>