<?xml version="1.0" encoding="utf-8"?>
<!-- Generator: Adobe Illustrator 16.0.0, SVG Export Plug-In . SVG Version: 6.00 Build 0)  -->
<!DOCTYPE svg PUBLIC "-//W3C//DTD SVG 1.1//EN" "http://www.w3.org/Graphics/SVG/1.1/DTD/svg11.dtd">
<svg version="1.1" id="图层_1" xmlns="http://www.w3.org/2000/svg" xmlns:xlink="http://www.w3.org/1999/xlink" x="0px" y="0px"
	 width="1024px" height="1024px" viewBox="0 0 1024 1024" enable-background="new 0 0 1024 1024" xml:space="preserve">
<path d="M360.295,559.415c0,0,0,138.58,152.578,138.58c152.604,0,152.604-138.581,152.604-138.581S518.945,693.368,360.295,559.415z
	"/>
<path d="M792.864,502.952c0-154.629-125.361-279.986-279.99-279.986c-154.649,0-280.007,125.357-280.007,279.986
	c0,75.757,30.112,144.339,78.896,194.784c22.185,19.958,46.377,37.572,73.004,51.427c14.476,7.492,30.455,15.069,47.206,21.923
	c25.612,7.665,52.771,11.894,80.9,11.894C667.502,782.978,792.864,657.615,792.864,502.952z M512.872,740.977
	c-131.417,0-238.005-106.59-238.005-238.025c0-131.43,106.588-237.958,238.005-237.958c131.435,0,237.99,106.528,237.99,237.958
	C750.864,634.387,644.307,740.977,512.872,740.977z"/>
<path d="M869.222,415.081c-39.394-160.214-184.017-279.033-356.35-279.033c-172.277,0-316.783,118.679-356.266,278.804
	c0,0-98.833,15.623-94.466,115.035c4.382,99.383,108.611,105.428,108.611,105.428c1.255,3.18,23.167-3.096,31.034-4.425
	c-16.243-39.42-25.28-82.609-25.28-127.936c0-185.75,150.61-336.332,336.366-336.332c185.752,0,336.332,150.582,336.332,336.332
	c0,148.243-95.856,274.007-228.965,318.778c-8.562,2.924-17.585-0.952-17.585-0.952s-22.563-4.224-50.849,3.762
	c-13.917,3.991-19.901,18.824-19.065,31.845c1.042,15.5,6.914,26.636,23.115,29.099c20.854,3.27,50.502,6.97,61.694-15.33
	c3.04-6.046,6.336-17.295,13.452-19.699c102.854-34.969,185.176-114.307,224.225-215.169c0,0,103.662-12.15,106.702-107.716
	C964.99,432.033,869.222,415.081,869.222,415.081z"/>
</svg>
