<svg xmlns="http://www.w3.org/2000/svg" width="1024" height="1024"><path d="M389 872H226c-50 0-91-51-91-112V265c0-62 40-113 90-113h182c26 0 18-48 18-67 0-12-8-23-18-23H226c-91 0-164 91-164 203v495c0 111 73 202 164 202h181c26 0 18-48 18-67 0-26-22-23-36-23z"/><path d="M948 472L640 89a42 42 0 0 0-33-17c-25 0-46 26-46 58v190H316c-25 0-46 26-46 57v270c0 32 21 57 46 57h245v191c0 31 21 57 46 57a42 42 0 0 0 33-17l308-383a64 64 0 0 0 14-40 64 64 0 0 0-14-40zm-14 63L626 918a24 24 0 0 1-19 9c-14 0-26-15-26-33V681H316c-14 0-26-15-26-33V377c0-18 12-33 26-33h265V130c0-18 12-33 26-33a24 24 0 0 1 19 10l308 382a37 37 0 0 1 0 46z"/></svg>