<?xml version="1.0" encoding="utf-8"?>
<!-- Generator: Adobe Illustrator 16.0.0, SVG Export Plug-In . SVG Version: 6.00 Build 0)  -->
<!DOCTYPE svg PUBLIC "-//W3C//DTD SVG 1.1//EN" "http://www.w3.org/Graphics/SVG/1.1/DTD/svg11.dtd">
<svg version="1.1" id="图层_1" xmlns="http://www.w3.org/2000/svg" xmlns:xlink="http://www.w3.org/1999/xlink" x="0px" y="0px"
	 width="1024px" height="1024px" viewBox="0 0 1024 1024" enable-background="new 0 0 1024 1024" xml:space="preserve">
<path d="M389.003,872H225.501c-49.957,0-90.834-50.628-90.834-112.501V264.5c0-61.872,40.877-112.5,90.834-112.5h181.667
	c25.548,0,18.167-47.81,18.167-67.5c0-11.949-8.519-22.5-18.167-22.5H225.501C135.237,62,62,152.705,62,264.5v494.999
	C62,871.294,135.236,962,225.501,962h181.667c25.548,0,18.167-47.808,18.167-67.501C425.336,868.485,403.195,872,389.003,872z"/>
<path d="M948.336,471.754L639.5,89.254c-8.812-10.915-20.353-16.924-32.494-16.924c-25.453,0-46.161,25.646-46.161,57.17V319.83
	H316.336c-25.453,0-46.16,25.647-46.16,57.171v270.001c0,31.522,20.708,57.17,46.16,57.17h244.509v190.33
	c0,31.523,20.708,57.17,46.161,57.17c12.142,0,23.684-6.008,32.494-16.922l308.836-382.5C957.147,541.334,962,527.041,962,512.003
	C962,496.96,957.146,482.668,948.336,471.754z M934.438,535.035l-308.836,382.5c-5.099,6.316-11.704,9.794-18.598,9.794
	c-14.368,0-26.509-15.034-26.509-32.83V679.827h-264.16c-14.369,0-26.507-15.033-26.507-32.828V377.001
	c0-17.795,12.139-32.83,26.507-32.83h264.161V129.5c0-17.796,12.141-32.831,26.509-32.831c6.894,0,13.498,3.479,18.599,9.795
	l308.834,382.5c5.099,6.316,7.909,14.497,7.909,23.036C942.348,520.538,939.537,528.719,934.438,535.035z"/>
</svg>
