<?xml version="1.0" encoding="utf-8"?>
<!-- Generator: Adobe Illustrator 16.0.0, SVG Export Plug-In . SVG Version: 6.00 Build 0)  -->
<!DOCTYPE svg PUBLIC "-//W3C//DTD SVG 1.1//EN" "http://www.w3.org/Graphics/SVG/1.1/DTD/svg11.dtd">
<svg version="1.1" id="图层_1" xmlns="http://www.w3.org/2000/svg" xmlns:xlink="http://www.w3.org/1999/xlink" x="0px" y="0px"
	 width="1024px" height="1024px" viewBox="0 0 1024 1024" enable-background="new 0 0 1024 1024" xml:space="preserve">
<path d="M961.976,734.989c0-1.052-0.058-3.052-0.058-3.759V289.214c0-0.557,0.009-1.659,0.009-1.659
	c0-0.518,0.061-2.374,0.061-3.583c0-11.569-6.764-22.112-17.626-27.113L530.525,65.012c-8.651-4.037-18.755-3.977-27.47-0.061
	L83.724,256.798c-6.147,2.798-10.145,6.882-14.545,12.594C63.986,276.253,62,283.761,62,289.214v445.512
	c0,12.817,7.898,21.436,20.124,28.678l6.968,3.739l413.835,191.845c4.357,1.988,9.031,3.013,13.767,3.013
	c4.737,0,9.473-0.965,13.83-3.013l413.837-191.845C957.257,761.138,962.401,748.156,961.976,734.989z M125.152,330.099
	l355.446,162.618l4.178,390.856L125.152,716.838V330.099z M543.793,496.695l354.973-164.482v389.017l-350.833,162.66
	L543.793,496.695z M516.632,125.626l341.653,158.345L516.632,442.317L170.433,283.971L516.632,125.626z"/>
</svg>
