<?xml version="1.0" encoding="utf-8"?>
<!-- Generator: Adobe Illustrator 19.0.0, SVG Export Plug-In . SVG Version: 6.00 Build 0)  -->
<svg version="1.1" id="图层_1" xmlns="http://www.w3.org/2000/svg" xmlns:xlink="http://www.w3.org/1999/xlink" x="0px" y="0px"
	 viewBox="262 -362 1024 1024" style="enable-background:new 262 -362 1024 1024;" xml:space="preserve">
<path d="M1206.5,189.4h-186.1c-11.3,2.8-19.7-2.8-22.6-14.1l-28.2-90.2l-87.4,414.5c0,0-2.8,22.6-14.1,22.6h-31
	c-8.5,2.8-19.7-2.8-22.6-14.1l-110-538.5l-81.8,389.1c-2.8,8.5-14.1,16.9-22.6,14.1h-28.2c-11.3,2.8-19.7-2.8-22.6-14.1l-56.4-172
	H343.7c-11.3,2.8-19.7-5.6-19.7-14.1v-39.5c0-11.3,8.5-19.7,19.7-19.7h186.1c11.3,0,19.7,0,22.6,11.3l28.2,90.2L662.4-208
	c0,0,2.8-14.1,16.9-14.1h39.5c8.5-2.8,19.7,2.8,22.6,14.1l107.1,532.9l78.9-383.5c2.8-8.5,11.3-16.9,19.7-14.1h31
	c11.3-2.8,19.7,2.8,22.6,14.1l53.6,174.8h149.4c11.3,0,19.7,8.5,19.7,19.7v36.7C1226.3,180.9,1217.8,189.4,1206.5,189.4
	L1206.5,189.4z"/>
</svg>
