<svg xmlns="http://www.w3.org/2000/svg" viewBox="370 -413 1024 1024"><path d="M1272 393s-10-113-53-124c0 0-80 51-100 77 0 0-33 25-53-3 0 0-18-18-39-36-18-33-39-64-57-86 47 24 150 62 257-10 0 0 79 55 105 181 0 0 2 2-60 1zm-182-195a187 187 0 0 1-144-69 280 280 0 0 0 24-43 143 143 0 0 0 120 66 143 143 0 1 0-99-246 310 310 0 0 0-14-47A188 188 0 0 1 1279 9a189 189 0 0 1-189 189zm-380-2a231 231 0 1 1 0-462 231 231 0 0 1 0 462zm0-406A176 176 0 0 0 534-35a176 176 0 1 0 176-175zM531 198s168 127 345 7c0 0 122 69 129 256 0 0 3 3-74 1 0 0 8-175-64-186 0 0-98 62-123 94 0 0-40 31-65-3 0 0-93-93-127-93 0 0-48 42-40 191l-80-1s-2-192 99-266z"/></svg>