<?xml version="1.0" encoding="utf-8"?>
<!-- Generator: Adobe Illustrator 19.0.0, SVG Export Plug-In . SVG Version: 6.00 Build 0)  -->
<svg version="1.1"
	 id="svg4205" inkscape:version="0.91 r13725" sodipodi:docname="frame.svg" xmlns:inkscape="http://www.inkscape.org/namespaces/inkscape" xmlns:sodipodi="http://sodipodi.sourceforge.net/DTD/sodipodi-0.dtd" xmlns:svg="http://www.w3.org/2000/svg" xmlns:dc="http://purl.org/dc/elements/1.1/" xmlns:rdf="http://www.w3.org/1999/02/22-rdf-syntax-ns#" xmlns:cc="http://creativecommons.org/ns#"
	 xmlns="http://www.w3.org/2000/svg" xmlns:xlink="http://www.w3.org/1999/xlink" x="0px" y="0px" viewBox="370 -412.6 1024 1024"
	 style="enable-background:new 370 -412.6 1024 1024;" xml:space="preserve">
<g>
	<path d="M1271.7,392.9c0,0-9.5-112.7-52.4-123.9c0,0-79.8,50.5-100.5,76.9c0,0-32.3,25.4-53.2-2.7c0,0-17.6-18-38.8-36
		c-17.6-33-39.2-64-56.4-86.5c46.2,24.5,149.2,62.4,256.2-10c0,0,79.1,55.8,105.4,181.5C1332.1,392.2,1334.2,394.4,1271.7,392.9
		L1271.7,392.9z M1090.4,197.8c-58.3,0-110.1-26.8-144.6-68.5c9.4-13.5,17.6-27.9,24.5-42.9c25.4,39.6,69.7,65.9,120.1,65.9
		c79,0,143-64.1,143-143c0-79-64-143.1-143-143.1c-38.5,0-73.4,15.5-99.1,40.2c-3.4-16.4-8.5-32.2-14.3-47.4
		c31.5-24,70.8-38.2,113.5-38.2c104.3,0,188.5,84.3,188.5,188.5C1278.9,113.4,1194.6,197.8,1090.4,197.8L1090.4,197.8z M710.1,196.4
		c-127.8,0-231.3-103.4-231.3-231.2c0-127.6,103.5-231.1,231.3-231.1c127.6,0,231.1,103.4,231.1,231.1
		C941.2,92.8,837.8,196.4,710.1,196.4L710.1,196.4z M710.1-210.3c-96.9,0-175.7,78.6-175.7,175.4c0,96.9,78.7,175.6,175.7,175.6
		c97,0,175.5-78.6,175.5-175.6C885.6-131.7,807-210.3,710.1-210.3L710.1-210.3z M530.8,197.9c0,0,168.1,126.6,345.2,6.9
		c0,0,122,69,129.4,256.2c0,0,2.7,2.5-74,0.7c0,0,7.8-174.7-64.4-185.6c0,0-97.9,62-123.1,94.2c0,0-39.8,31-65-3.5
		c0,0-92.6-93.1-127.1-93.1c0,0-48.2,42.5-39.3,190.8l-80.5-0.7C431.9,464.2,429.5,271.5,530.8,197.9L530.8,197.9z"/>
</g>
</svg>
