<?xml version="1.0" encoding="utf-8"?>
<!-- Generator: Adobe Illustrator 16.0.0, SVG Export Plug-In . SVG Version: 6.00 Build 0)  -->
<!DOCTYPE svg PUBLIC "-//W3C//DTD SVG 1.1//EN" "http://www.w3.org/Graphics/SVG/1.1/DTD/svg11.dtd">
<svg version="1.1" id="图层_1" xmlns="http://www.w3.org/2000/svg" xmlns:xlink="http://www.w3.org/1999/xlink" x="0px" y="0px"
	 width="1024px" height="1024px" viewBox="0 0 1024 1024" enable-background="new 0 0 1024 1024" xml:space="preserve">
<path d="M508.426,382.227c68.199,0,123.699,55.5,123.699,123.698c0,68.199-55.5,123.699-123.699,123.699
	c-68.199,0-123.699-55.5-123.699-123.699C384.728,437.727,440.227,382.227,508.426,382.227 M508.426,327.25
	c-98.684,0-178.676,79.992-178.676,178.675c0,98.685,79.992,178.676,178.676,178.676s178.675-79.991,178.675-178.676
	C687.102,407.242,607.11,327.25,508.426,327.25 M950.141,615.011C957.996,581.51,962,547.014,962,512
	c0-35.013-4.004-69.51-11.859-103.011c-3.468-14.788-18.266-23.964-33.055-20.496c-14.786,3.467-23.964,18.267-20.495,33.054
	c6.892,29.392,10.406,59.674,10.406,90.453c0,30.779-3.515,61.063-10.406,90.453c-3.469,14.788,5.709,29.587,20.495,33.055
	C931.873,638.975,946.673,629.799,950.141,615.011L950.141,615.011z M917.647,636.124c1.741,0,3.196,0.026,4.523,0.084
	c15.175,0.659,28.011-11.106,28.67-26.281c0.66-15.174-11.106-28.011-26.28-28.67c-2.201-0.097-4.431-0.136-6.913-0.136
	c-15.188,0-27.5,12.313-27.5,27.501S902.46,636.124,917.647,636.124L917.647,636.124z M827.855,801.568
	c-11.229-17.246-17.29-37.337-17.29-58.362c0-59.141,47.941-107.082,107.082-107.082c15.188,0,27.501-12.313,27.501-27.502
	s-12.313-27.502-27.501-27.502c-89.517,0-162.085,72.568-162.085,162.085c0,31.769,9.203,62.27,26.197,88.372
	c8.287,12.729,25.324,16.33,38.052,8.043C832.541,831.333,836.142,814.297,827.855,801.568L827.855,801.568z M641.739,942.998
	c68.433-20.553,130.783-57.21,182.133-106.604c10.948-10.529,11.284-27.939,0.756-38.887c-10.53-10.945-27.939-11.283-38.887-0.754
	c-45.09,43.373-99.805,75.541-159.823,93.566c-14.547,4.369-22.797,19.704-18.428,34.25S627.191,947.366,641.739,942.998
	L641.739,942.998z M415.083,928.367c17.527-37.252,55.02-61.532,96.917-61.532c41.904,0,79.42,24.288,96.945,61.532
	c6.467,13.743,22.85,19.642,36.593,13.177c13.744-6.467,19.642-22.851,13.176-36.594C632.2,848.599,575.407,811.832,512,811.832
	c-63.403,0-120.169,36.762-146.686,93.118c-6.466,13.743-0.568,30.127,13.176,36.594
	C392.233,948.009,408.616,942.11,415.083,928.367L415.083,928.367z M201.361,837.569c51.129,48.788,113.029,85.017,180.919,105.426
	c14.545,4.373,29.882-3.872,34.255-18.419c4.373-14.545-3.874-29.882-18.419-34.255c-59.555-17.904-113.884-49.7-158.784-92.545
	c-10.988-10.485-28.397-10.078-38.882,0.911C189.964,809.675,190.372,827.084,201.361,837.569L201.361,837.569z M108.221,636.124
	c59.14,0,107.082,47.941,107.082,107.082c0,21.391-6.271,41.814-17.857,59.239c-8.41,12.647-4.975,29.718,7.673,38.128
	c12.647,8.41,29.718,4.975,38.129-7.673c17.539-26.377,27.059-57.379,27.059-89.694c0-89.518-72.568-162.085-162.085-162.085
	c-15.188,0-27.501,12.313-27.501,27.501C80.719,623.811,93.032,636.124,108.221,636.124L108.221,636.124z M102.17,636.275
	c1.854-0.102,3.857-0.151,6.05-0.151c15.189,0,27.501-12.313,27.501-27.502s-12.313-27.502-27.501-27.502
	c-3.152,0-6.15,0.074-9.068,0.234c-15.166,0.834-26.785,13.804-25.951,28.969C74.035,625.489,87.004,637.108,102.17,636.275
	L102.17,636.275z M73.885,408.912C66.016,442.495,62,477.015,62,512c0,34.984,4.017,69.505,11.886,103.088
	c3.465,14.789,18.262,23.969,33.05,20.503c14.788-3.465,23.968-18.262,20.503-33.05c-6.908-29.484-10.436-59.795-10.436-90.541
	s3.527-61.056,10.436-90.541c3.465-14.789-5.715-29.585-20.503-33.05S77.35,394.123,73.885,408.912L73.885,408.912z
	 M108.221,387.876c-2.193,0-4.196-0.048-6.05-0.15c-15.166-0.833-28.136,10.786-28.969,25.951
	c-0.834,15.166,10.785,28.135,25.951,28.969c2.917,0.16,5.916,0.233,9.068,0.233c15.189,0,27.501-12.313,27.501-27.501
	C135.722,400.189,123.41,387.876,108.221,387.876L108.221,387.876z M197.446,221.556c11.587,17.426,17.857,37.851,17.857,59.266
	c0,59.133-47.935,107.054-107.082,107.054c-15.188,0-27.501,12.313-27.501,27.501c0,15.189,12.313,27.502,27.501,27.502
	c89.521,0,162.085-72.544,162.085-162.058c0-32.338-9.518-63.341-27.059-89.722c-8.41-12.648-25.481-16.083-38.129-7.673
	C192.471,191.837,189.036,208.908,197.446,221.556L197.446,221.556z M382.28,81.005c-67.89,20.41-129.791,56.638-180.919,105.426
	c-10.989,10.486-11.396,27.894-0.911,38.882c10.485,10.989,27.894,11.396,38.882,0.911c44.9-42.845,99.229-74.641,158.784-92.545
	c14.545-4.373,22.792-19.709,18.419-34.255S396.826,76.632,382.28,81.005L382.28,81.005z M608.944,95.633
	c-17.522,37.241-55.037,61.532-96.917,61.532c-41.921,0-79.416-24.278-96.944-61.532c-6.467-13.744-22.85-19.643-36.594-13.176
	c-13.743,6.467-19.642,22.85-13.175,36.593c26.518,56.36,83.288,93.118,146.713,93.118c63.386,0,120.175-36.771,146.686-93.118
	c6.468-13.743,0.568-30.126-13.176-36.593C631.794,75.991,615.411,81.89,608.944,95.633L608.944,95.633z M823.866,187.602
	c-51.348-49.363-113.692-86.017-182.117-106.596c-14.545-4.375-29.882,3.87-34.257,18.415s3.871,29.882,18.416,34.257
	c60.024,18.053,114.745,50.225,159.841,93.576c10.949,10.526,28.358,10.183,38.885-0.767S834.816,198.128,823.866,187.602
	L823.866,187.602z M917.647,387.876c-59.146,0-107.082-47.921-107.082-107.054c0-21.05,6.06-41.142,17.29-58.39
	c8.286-12.729,4.686-29.765-8.044-38.052c-12.728-8.287-29.765-4.687-38.052,8.043c-16.996,26.107-26.197,56.608-26.197,88.399
	c0,89.514,72.564,162.058,162.085,162.058c15.188,0,27.501-12.313,27.501-27.502C945.148,400.189,932.836,387.876,917.647,387.876
	L917.647,387.876z M922.171,387.793c-1.327,0.058-2.782,0.084-4.523,0.084c-15.188,0-27.5,12.313-27.5,27.501
	c0,15.188,12.313,27.501,27.5,27.501c2.482,0,4.712-0.041,6.913-0.136c15.174-0.66,26.94-13.495,26.28-28.669
	C950.182,398.899,937.346,387.132,922.171,387.793L922.171,387.793z"/>
</svg>
