<svg xmlns="http://www.w3.org/2000/svg" width="1024" height="1024"><path d="M508 382a124 124 0 0 1 0 248 124 124 0 0 1-123-124c0-68 55-124 123-124m0-55a179 179 0 1 0 0 358 179 179 0 0 0 0-358m442 288a451 451 0 0 0 0-206 28 28 0 1 0-53 13 396 396 0 0 1 0 181 28 28 0 1 0 53 12zm-32 21h4a28 28 0 1 0 3-55h-7a28 28 0 0 0 0 55zm-90 166a107 107 0 0 1 90-166 28 28 0 0 0 0-55 162 162 0 0 0-136 251 28 28 0 0 0 46-30zM642 943a449 449 0 0 0 182-107 28 28 0 1 0-38-39 394 394 0 0 1-160 93 28 28 0 0 0 16 53zm-227-15a107 107 0 0 1 194 0 28 28 0 0 0 50-23 162 162 0 0 0-294 0 28 28 0 0 0 50 23zm-214-90c51 48 113 85 181 105a28 28 0 1 0 16-53 395 395 0 0 1-159-92 28 28 0 1 0-38 40zm-93-202a107 107 0 0 1 89 166 28 28 0 1 0 46 31 162 162 0 0 0-135-252 28 28 0 0 0 0 55zm-6 0h6a28 28 0 0 0 0-55h-9a28 28 0 0 0 3 55zM74 409a451 451 0 0 0 0 206 28 28 0 1 0 53-13 397 397 0 0 1 0-181 28 28 0 1 0-53-12zm34-21h-6a28 28 0 0 0-3 55h9a28 28 0 1 0 0-55zm89-166a107 107 0 0 1-89 166 28 28 0 0 0 0 55 162 162 0 0 0 135-252 28 28 0 1 0-46 31zM382 81a450 450 0 0 0-181 105 28 28 0 1 0 38 40 395 395 0 0 1 159-92 28 28 0 0 0-16-53zm227 15a107 107 0 0 1-194 0 28 28 0 1 0-50 23 162 162 0 0 0 294 0 28 28 0 1 0-50-23zm215 92A450 450 0 0 0 642 81a28 28 0 1 0-16 53c60 18 115 50 160 93a28 28 0 1 0 38-39zm94 200a107 107 0 0 1-90-166 28 28 0 0 0-46-30 162 162 0 0 0 136 251 28 28 0 0 0 0-55zm4 0h-4a28 28 0 0 0 0 55h7a28 28 0 1 0-3-55z"/></svg>