<?xml version="1.0" encoding="utf-8"?>
<!-- Generator: Adobe Illustrator 16.0.0, SVG Export Plug-In . SVG Version: 6.00 Build 0)  -->
<!DOCTYPE svg PUBLIC "-//W3C//DTD SVG 1.1//EN" "http://www.w3.org/Graphics/SVG/1.1/DTD/svg11.dtd">
<svg version="1.1" id="图层_1" xmlns="http://www.w3.org/2000/svg" xmlns:xlink="http://www.w3.org/1999/xlink" x="0px" y="0px"
	 width="1024px" height="1024px" viewBox="0 0 1024 1024" enable-background="new 0 0 1024 1024" xml:space="preserve">
<path fill="#19A648" d="M549.384,634.336c35.858,20.703,48.145,66.555,27.442,102.414c-20.703,35.858-66.556,48.145-102.414,27.441
	c-35.858-20.703-48.145-66.556-27.442-102.413c6.58-11.397,16.044-20.862,27.442-27.442V249.43
	c0-20.703,16.783-37.486,37.486-37.486s37.486,16.783,37.486,37.486V634.336z M212.01,549.317h-37.486
	c-20.704,0-37.486-16.783-37.486-37.485c0-20.703,16.782-37.486,37.486-37.486h37.486c20.703,0,37.486,16.784,37.486,37.486
	C249.496,532.534,232.713,549.317,212.01,549.317z M249.496,399.374h-74.972c-20.704,0-37.486-16.784-37.486-37.486
	s16.782-37.486,37.486-37.486h74.972c20.703,0,37.486,16.783,37.486,37.486S270.199,399.374,249.496,399.374z M249.496,249.43
	h-74.972c-20.704,0-37.486-16.783-37.486-37.486s16.782-37.486,37.486-37.486h74.972c20.703,0,37.486,16.783,37.486,37.486
	S270.199,249.43,249.496,249.43z M174.524,699.262c-20.704,0-37.486-16.783-37.486-37.486c-0.141-4.919,0.887-9.8,2.999-14.244
	c1.899-4.543,4.561-8.727,7.872-12.37c14.7-14.579,38.435-14.481,53.014,0.219c14.579,14.698,14.48,38.433-0.219,53.012
	C193.736,695.303,184.336,699.205,174.524,699.262z M174.524,849.206c-9.925-0.139-19.432-4.021-26.616-10.872
	c-3.412-3.564-6.087-7.769-7.872-12.369c-2.112-4.444-3.139-9.326-2.999-14.245c0-20.702,16.782-37.486,37.486-37.486
	c20.703,0,37.486,16.784,37.486,37.486S195.227,849.206,174.524,849.206z M849.271,549.317h-37.485
	c-20.703,0-37.486-16.783-37.486-37.485c0-20.703,16.783-37.486,37.486-37.486h37.485c20.703,0,37.486,16.784,37.486,37.486
	C886.758,532.534,869.975,549.317,849.271,549.317z M849.271,399.374H774.3c-20.702,0-37.485-16.784-37.485-37.486
	s16.783-37.486,37.485-37.486h74.972c20.703,0,37.486,16.783,37.486,37.486S869.975,399.374,849.271,399.374z M849.271,249.43H774.3
	c-20.702,0-37.485-16.783-37.485-37.486s16.783-37.486,37.485-37.486h74.972c20.703,0,37.486,16.783,37.486,37.486
	S869.975,249.43,849.271,249.43z M849.271,699.262c-20.702-0.12-37.389-17-37.269-37.702c0.119-20.702,17-37.389,37.702-37.269
	c20.703,0.12,37.388,17,37.27,37.702c-0.058,9.919-4.044,19.412-11.088,26.397l-5.998,4.498c-1.912,1.483-4.069,2.625-6.372,3.375
	c-2.237,1.128-4.642,1.888-7.122,2.249L849.271,699.262z M849.271,849.206c-9.925-0.139-19.432-4.021-26.614-10.872
	c-3.312-3.644-5.974-7.826-7.872-12.369c-2.112-4.444-3.14-9.326-2.999-14.245c-0.244-20.701,16.341-37.681,37.042-37.924
	c20.701-0.244,37.682,16.342,37.926,37.043c0.061,5.194-0.959,10.345-2.994,15.126c-1.899,4.543-4.562,8.726-7.873,12.369
	C868.704,845.185,859.197,849.067,849.271,849.206z M511.898,136.972c62.109,0,112.458,50.349,112.458,112.458v266.525
	c-0.018,19.615,7.653,38.456,21.367,52.48c72.475,73.91,71.313,192.578-2.597,265.053c-73.909,72.477-192.578,71.313-265.054-2.597
	c-71.474-72.887-71.474-189.568,0-262.456c13.713-14.024,21.385-32.865,21.367-52.48V249.43
	C399.44,187.321,449.789,136.972,511.898,136.972z M511.898,62c-103.514,0-187.43,83.915-187.43,187.43v266.525
	c-101.423,103.516-99.728,269.649,3.787,371.073c103.515,101.423,269.65,99.728,371.073-3.787
	c99.962-102.023,99.962-265.262,0-367.286V249.43C699.328,145.915,615.412,62,511.898,62z"/>
</svg>
