<svg xmlns="http://www.w3.org/2000/svg" width="1024" height="1024"><path fill="#19A648" d="M549 634a75 75 0 1 1-75 0V249a38 38 0 1 1 75 0v385zm-337-85h-37a38 38 0 1 1 0-75h37a38 38 0 0 1 0 75zm38-150h-75a38 38 0 1 1 0-75h75a38 38 0 1 1 0 75zm0-150h-75a38 38 0 1 1 0-75h75a38 38 0 1 1 0 75zm-75 450a38 38 0 1 1 26-64 38 38 0 0 1-26 64zm0 150c-10 0-20-4-27-11-3-3-6-7-8-12a38 38 0 1 1 35 23zm674-300h-37a38 38 0 1 1 0-75h37a38 38 0 0 1 0 75zm0-150h-75a38 38 0 0 1 0-75h75a38 38 0 1 1 0 75zm0-150h-75a38 38 0 0 1 0-75h75a38 38 0 1 1 0 75zm0 450a38 38 0 1 1 27-11l-6 5a21 21 0 0 1-7 3 23 23 0 0 1-7 2l-7 1zm0 150c-10 0-19-4-26-11a43 43 0 0 1-8-12 38 38 0 1 1 69 0 43 43 0 0 1-8 12 39 39 0 0 1-27 11zM512 137c62 0 112 50 112 112v267a75 75 0 0 0 22 52 187 187 0 1 1-268 0 75 75 0 0 0 21-52V249c0-62 51-112 113-112zm0-75c-104 0-188 84-188 187v267a262 262 0 1 0 375 0V249c0-103-84-187-187-187z"/></svg>