<svg xmlns="http://www.w3.org/2000/svg" width="1024" height="1024"><path d="M409 512a103 103 0 1 0 206 0 103 103 0 1 0-206 0zM512 91a75 75 0 1 1 0 149 75 75 0 0 1 0-149m0-29a103 103 0 1 0 0 206 103 103 0 0 0 0-206zm0 722a75 75 0 1 1 0 150 75 75 0 0 1 0-150m0-28a103 103 0 1 0 0 206 103 103 0 0 0 0-206z"/><path d="M460 423a103 103 0 1 0 103 178 103 103 0 0 0-103-178zm352-159a75 75 0 0 1 65 37 74 74 0 0 1 8 57 74 74 0 0 1-72 55 75 75 0 0 1-65-37 75 75 0 0 1 64-112m0-28a103 103 0 1 0 1 206 103 103 0 0 0-1-206zM211 611a75 75 0 0 1 65 37 75 75 0 1 1-65-37m0-29a103 103 0 1 0 1 206 103 103 0 0 0-1-206zm410-124l-8-13a4 4 0 0 1 2-5l86-50a4 4 0 0 1 5 2l7 12a4 4 0 0 1-1 6l-86 49a4 4 0 0 1-5-1zM317 633l-7-13a4 4 0 0 1 2-5l85-50a4 4 0 0 1 6 2l7 12a4 4 0 0 1-1 6l-86 49a4 4 0 0 1-6-1z"/><path d="M461 601a103 103 0 1 0 103-178 103 103 0 0 0-103 178zM212 236v28a75 75 0 1 1-1 149 75 75 0 0 1 1-149v-28m0 0a103 103 0 1 0-1 206 103 103 0 0 0 1-206zm601 347v28a75 75 0 1 1-1 149 75 75 0 0 1 1-149v-29m0 0a103 103 0 1 0-1 206 103 103 0 0 0 1-206z"/><path d="M398 459l-86-50a4 4 0 0 1-1-5l7-13a4 4 0 0 1 6-1l85 49a4 4 0 0 1 2 6l-8 13a4 4 0 0 1-5 1zm302-172l-85-50a4 4 0 0 1-2-6l8-12a4 4 0 0 1 5-2l86 50a4 4 0 0 1 1 5l-7 13a4 4 0 0 1-6 2zm1 347l-86-49a4 4 0 0 1-1-6l7-13a4 4 0 0 1 6-1l85 49a4 4 0 0 1 2 6l-8 13a4 4 0 0 1-5 1zM399 807l-86-50a4 4 0 0 1-1-5l7-13a4 4 0 0 1 6-1l85 49a4 4 0 0 1 2 6l-8 12a4 4 0 0 1-5 2z"/></svg>