<?xml version="1.0" encoding="utf-8"?>
<!-- Generator: Adobe Illustrator 16.0.0, SVG Export Plug-In . SVG Version: 6.00 Build 0)  -->
<!DOCTYPE svg PUBLIC "-//W3C//DTD SVG 1.1//EN" "http://www.w3.org/Graphics/SVG/1.1/DTD/svg11.dtd">
<svg version="1.1"
	 id="svg4205" xmlns:dc="http://purl.org/dc/elements/1.1/" xmlns:cc="http://creativecommons.org/ns#" xmlns:rdf="http://www.w3.org/1999/02/22-rdf-syntax-ns#" xmlns:svg="http://www.w3.org/2000/svg" sodipodi:docname="frame.svg" inkscape:version="0.91 r13725" xmlns:sodipodi="http://sodipodi.sourceforge.net/DTD/sodipodi-0.dtd" xmlns:inkscape="http://www.inkscape.org/namespaces/inkscape"
	 xmlns="http://www.w3.org/2000/svg" xmlns:xlink="http://www.w3.org/1999/xlink" x="0px" y="0px" width="1024px" height="1024px"
	 viewBox="0 0 1024 1024" enable-background="new 0 0 1024 1024" xml:space="preserve">
<sodipodi:namedview  id="namedview17" borderopacity="1" pagecolor="#ffffff" inkscape:cx="512" guidetolerance="10" showgrid="false" bordercolor="#666666" inkscape:cy="512" objecttolerance="10" gridtolerance="10" inkscape:zoom="0.23046875" inkscape:current-layer="svg4205" inkscape:window-maximized="1" inkscape:window-y="-8" inkscape:window-x="-8" inkscape:window-height="847" inkscape:pageopacity="0" inkscape:window-width="1600" inkscape:pageshadow="2">
	</sodipodi:namedview>
<path d="M835.438,666.687c-28.125,0-50.625,8.438-73.125,22.5l-87.188-84.375c25.313-30.938,42.188-73.125,42.188-118.125
	c0-50.625-19.688-95.625-53.438-129.375L734.188,287c14.063,8.438,28.125,11.25,45,11.25c53.438,2.813,98.438-42.188,98.438-95.625
	s-45-98.438-98.438-98.438s-98.438,45-98.438,98.438c0,16.875,5.625,33.75,11.25,47.813l-75.938,75.938
	c-25.313-14.063-56.25-22.5-90-22.5c-45,0-87.188,16.875-120.938,45L332,272.937c5.625-14.063,11.25-28.125,11.25-42.188
	c0-53.438-45-98.438-98.438-98.438s-98.438,45-98.438,98.438s45,98.438,98.438,98.438c19.688,0,36.563-5.625,53.438-14.063
	l75.938,73.125c-19.688,28.125-28.125,61.875-28.125,98.438c0,30.938,8.438,61.875,22.5,87.188l-61.875,61.875
	c-25.313-16.875-53.438-28.125-87.188-28.125C132.313,610.437,62,680.75,62,765.125s70.313,154.688,154.688,154.688
	S371.375,849.5,371.375,765.125c0-33.75-11.25-64.688-28.125-87.188l56.25-56.25c33.75,33.75,78.75,53.438,129.375,53.438
	c39.375,0,75.938-11.25,104.063-30.938l92.813,90c-11.25,14.063-16.875,36.563-16.875,59.063
	c0,70.313,56.25,126.563,126.563,126.563S962,863.562,962,793.25S905.75,666.687,835.438,666.687z"/>
</svg>
