<svg xmlns="http://www.w3.org/2000/svg" width="1024" height="1024"><path d="M835 667a132 132 0 0 0-73 22l-87-84c25-31 42-73 42-118 0-51-19-96-53-130l70-70a83 83 0 0 0 45 11c54 3 99-42 99-95s-45-99-99-99-98 45-98 99c0 16 5 33 11 47l-76 76a186 186 0 0 0-90-22 189 189 0 0 0-121 45l-73-76c5-14 11-28 11-42 0-54-45-99-98-99s-99 45-99 99 45 98 99 98c19 0 36-5 53-14l76 73c-20 28-28 62-28 99 0 31 8 62 23 87l-62 62a153 153 0 0 0-88-28c-87 2-157 73-157 157s70 155 155 155 154-71 154-155c0-34-11-65-28-87l56-56a181 181 0 0 0 130 53c39 0 76-11 104-31l93 90a98 98 0 0 0-17 59 126 126 0 1 0 253 0c0-70-56-126-127-126z"/></svg>