<?xml version="1.0" encoding="utf-8"?>
<!-- Generator: Adobe Illustrator 16.0.0, SVG Export Plug-In . SVG Version: 6.00 Build 0)  -->
<!DOCTYPE svg PUBLIC "-//W3C//DTD SVG 1.1//EN" "http://www.w3.org/Graphics/SVG/1.1/DTD/svg11.dtd">
<svg version="1.1"
	 id="svg4205" xmlns:dc="http://purl.org/dc/elements/1.1/" xmlns:cc="http://creativecommons.org/ns#" xmlns:rdf="http://www.w3.org/1999/02/22-rdf-syntax-ns#" xmlns:svg="http://www.w3.org/2000/svg" sodipodi:docname="frame.svg" inkscape:version="0.91 r13725" xmlns:sodipodi="http://sodipodi.sourceforge.net/DTD/sodipodi-0.dtd" xmlns:inkscape="http://www.inkscape.org/namespaces/inkscape"
	 xmlns="http://www.w3.org/2000/svg" xmlns:xlink="http://www.w3.org/1999/xlink" x="0px" y="0px" width="1024px" height="1024px"
	 viewBox="0 0 1024 1024" enable-background="new 0 0 1024 1024" xml:space="preserve">
<sodipodi:namedview  id="namedview17" borderopacity="1" pagecolor="#ffffff" inkscape:cx="512" guidetolerance="10" showgrid="false" bordercolor="#666666" inkscape:cy="512" objecttolerance="10" gridtolerance="10" inkscape:zoom="0.23046875" inkscape:current-layer="svg4205" inkscape:window-maximized="1" inkscape:window-y="-8" inkscape:window-x="-8" inkscape:window-height="847" inkscape:pageopacity="0" inkscape:window-width="1600" inkscape:pageshadow="2">
	</sodipodi:namedview>
<g>
	<path d="M408.977,512.111c-0.019,56.905,46.091,103.044,102.991,103.063c56.898,0.021,103.037-46.093,103.055-102.993
		c0-0.024,0-0.05,0-0.07c0.021-56.905-46.089-103.044-102.991-103.064c-56.897-0.02-103.038,46.095-103.055,102.994
		C408.977,512.065,408.977,512.09,408.977,512.111z"/>
	<path d="M512,90.497c41.092,0,74.53,33.438,74.53,74.535c0,41.098-33.438,74.536-74.53,74.536
		c-41.095,0-74.531-33.438-74.531-74.536C437.469,123.93,470.906,90.497,512,90.497 M512,62
		c-56.899,0-103.023,46.128-103.023,103.033c0,56.9,46.124,103.028,103.023,103.028s103.022-46.128,103.022-103.028
		C615.024,108.128,568.9,62,512,62z M512,784.43c41.092,0,74.53,33.438,74.53,74.535c0,41.104-33.438,74.536-74.53,74.536
		c-41.095,0-74.531-33.433-74.531-74.536C437.469,817.869,470.906,784.43,512,784.43 M512,755.939
		c-56.899,0-103.023,46.128-103.023,103.028C408.977,915.872,455.101,962,512,962s103.022-46.128,103.022-103.032
		C615.024,802.067,568.9,755.939,512,755.939z"/>
	<path d="M460.406,422.818c-49.277,28.453-66.163,91.464-37.712,140.739c28.448,49.275,91.458,66.158,140.734,37.705
		c49.285-28.446,66.167-91.458,37.715-140.733C572.696,411.248,509.685,394.37,460.406,422.818z"/>
	<path d="M812.401,263.966c12.907,0.01,25.599,3.342,36.836,9.69c11.521,6.503,21.129,16.048,27.794,27.593
		c9.956,17.24,12.601,37.323,7.448,56.553c-5.157,19.234-17.49,35.302-34.729,45.259c-11.339,6.543-24.191,10.002-37.173,10.002
		c-12.911-0.005-25.602-3.343-36.845-9.686c-11.515-6.503-21.131-16.047-27.8-27.593c-20.546-35.589-8.303-81.261,27.286-101.811
		c11.334-6.545,24.19-10.002,37.178-10.002h0.005V263.966 M812.396,235.473c-17.48,0-35.202,4.452-51.427,13.821
		c-49.274,28.452-66.162,91.459-37.715,140.735c19.089,33.056,53.708,51.532,89.322,51.532c17.475,0,35.193-4.458,51.416-13.822
		c49.281-28.453,66.169-91.464,37.716-140.739C882.63,253.948,847.999,235.468,812.396,235.473z M211.434,610.937
		c12.909,0.005,25.595,3.342,36.839,9.686c11.518,6.504,21.129,16.048,27.796,27.594c20.546,35.594,8.308,81.264-27.287,101.815
		c-11.336,6.546-24.19,10.002-37.175,10.002c-12.909-0.01-25.598-3.347-36.843-9.685c-11.518-6.509-21.129-16.049-27.796-27.599
		c-9.955-17.239-12.598-37.323-7.446-56.553c5.154-19.229,17.488-35.304,34.729-45.26c11.334-6.543,24.19-10.001,37.178-10.001
		H211.434 M211.427,582.444c-17.478,0-35.197,4.454-51.421,13.822c-49.277,28.448-66.162,91.459-37.713,140.734
		c19.082,33.051,53.708,51.525,89.316,51.525c17.476,0,35.198-4.458,51.421-13.82c49.278-28.453,66.163-91.458,37.717-140.733
		C281.662,600.916,247.036,582.44,211.427,582.444z M620.633,457.729l-7.283-12.691c-1.12-1.955-0.446-4.453,1.508-5.573
		c0.006,0,0.006,0,0.006,0l85.799-49.236c1.955-1.12,4.448-0.446,5.573,1.513l0,0l7.278,12.686c1.125,1.955,0.451,4.453-1.509,5.574
		l0,0l-85.804,49.235C624.251,460.358,621.748,459.684,620.633,457.729L620.633,457.729z M317.503,632.74l-7.283-12.69
		c-1.12-1.955-0.444-4.453,1.511-5.569c0,0,0,0,0-0.005l85.802-49.23c1.957-1.125,4.451-0.452,5.573,1.509l0,0l7.28,12.685
		c1.124,1.96,0.447,4.453-1.508,5.579c0,0,0,0-0.001,0l-85.802,49.23C321.119,635.37,318.624,634.695,317.503,632.74z"/>
	<path d="M460.571,601.293c49.278,28.447,112.289,11.57,140.736-37.705c28.452-49.274,11.564-112.292-37.71-140.739
		c-49.28-28.452-112.292-11.57-140.742,37.706C394.406,509.828,411.294,572.836,460.571,601.293L460.571,601.293z"/>
	<path d="M211.61,235.473v28.492c12.982,0,25.837,3.463,37.173,10.007c35.594,20.547,47.833,66.223,27.287,101.812
		c-6.667,11.545-16.279,21.084-27.798,27.593c-11.243,6.343-23.935,9.681-36.843,9.686c-12.985,0-25.839-3.458-37.176-10.002
		c-17.243-9.958-29.576-26.03-34.727-45.26c-5.155-19.23-2.512-39.313,7.443-56.553c6.667-11.544,16.279-21.089,27.798-27.593
		c11.244-6.348,23.935-9.68,36.843-9.69V235.473 M211.607,235.473c-35.604,0-70.237,18.476-89.318,51.526
		c-28.45,49.275-11.562,112.286,37.716,140.739c16.227,9.369,33.94,13.822,51.421,13.822c35.604,0,70.236-18.48,89.317-51.532
		c28.449-49.276,11.563-112.282-37.716-140.734C246.802,239.926,229.088,235.473,211.607,235.473z M812.576,582.444v28.487
		c12.981,0,25.834,3.463,37.173,10.007c17.239,9.956,29.572,26.03,34.729,45.26c5.152,19.229,2.508,39.313-7.448,56.553
		c-6.665,11.549-16.273,21.09-27.794,27.594c-11.248,6.342-23.934,9.68-36.846,9.689c-12.982,0-25.839-3.457-37.173-10.007
		c-35.594-20.551-47.832-66.222-27.286-101.811c6.665-11.545,16.279-21.091,27.8-27.594c11.242-6.344,23.929-9.681,36.841-9.686
		L812.576,582.444 M812.576,582.444c-35.609,0-70.238,18.476-89.322,51.527c-28.447,49.275-11.56,112.28,37.715,140.733
		c16.229,9.368,33.941,13.82,51.422,13.82c35.609,0,70.239-18.48,89.317-51.526c28.447-49.274,11.565-112.285-37.716-140.732
		C847.77,586.898,830.057,582.444,812.576,582.444z"/>
	<path d="M397.754,459.187l-85.538-49.688c-1.949-1.136-2.613-3.633-1.48-5.583l0,0l7.348-12.651
		c1.131-1.95,3.628-2.609,5.579-1.478c0,0,0,0,0.002,0l85.538,49.693c1.949,1.131,2.613,3.629,1.479,5.579l0,0l-7.348,12.65
		c-1.131,1.95-3.63,2.613-5.579,1.482L397.754,459.187z"/>
	<path d="M700.385,286.472l-85.537-49.688c-1.945-1.136-2.608-3.633-1.483-5.584h0.005l7.35-12.645
		c1.131-1.951,3.629-2.614,5.578-1.483l0,0l85.537,49.693c1.95,1.131,2.614,3.629,1.483,5.578l0,0l-7.349,12.65
		c-1.131,1.951-3.634,2.613-5.578,1.478C700.385,286.472,700.385,286.472,700.385,286.472L700.385,286.472z"/>
	<path d="M700.883,634.202l-85.537-49.691c-1.95-1.131-2.614-3.635-1.483-5.584l0,0l7.349-12.646
		c1.131-1.95,3.633-2.613,5.584-1.482l0,0l85.538,49.692c1.949,1.135,2.613,3.628,1.482,5.578l0,0l-7.35,12.656
		C705.331,634.676,702.834,635.334,700.883,634.202L700.883,634.202z"/>
	<path d="M398.804,806.927l-85.541-49.688c-1.95-1.137-2.611-3.635-1.48-5.584l0,0l7.348-12.65c1.133-1.949,3.632-2.614,5.582-1.479
		l0,0l85.541,49.688c1.947,1.138,2.61,3.629,1.479,5.579h-0.002l-7.349,12.655c-1.131,1.95-3.628,2.613-5.575,1.479
		C398.804,806.927,398.804,806.927,398.804,806.927z"/>
</g>
</svg>
