<svg xmlns="http://www.w3.org/2000/svg" width="1024" height="1024"><path d="M644 877a348 348 0 0 1-111 18 366 366 0 0 1-344-259 91 91 0 0 0 44-79c0-50-38-90-85-90-48 0-86 40-86 90 0 41 26 75 61 86a432 432 0 0 0 410 319c51 0 100-9 146-26-17-15-30-36-35-59zm318-365c0-97-29-186-78-259a110 110 0 0 1-48 46 394 394 0 0 1 62 213c0 94-33 180-86 247l5 5c-8-3-17-4-26-4-48 0-86 40-86 90s38 90 86 90c47 0 85-41 85-90 0-18-5-35-14-49a462 462 0 0 0 100-289zM833 175c0-50-38-90-85-90-17 0-33 5-46 13a410 410 0 0 0-169-36 433 433 0 0 0-416 342 102 102 0 0 1 66 2 368 368 0 0 1 350-276c46 0 90 9 131 25l-2 20c0 49 38 90 86 90 47 0 85-41 85-90z"/></svg>