<?xml version="1.0" encoding="utf-8"?>
<!-- Generator: Adobe Illustrator 16.0.0, SVG Export Plug-In . SVG Version: 6.00 Build 0)  -->
<!DOCTYPE svg PUBLIC "-//W3C//DTD SVG 1.1//EN" "http://www.w3.org/Graphics/SVG/1.1/DTD/svg11.dtd">
<svg version="1.1" id="图层_1" xmlns="http://www.w3.org/2000/svg" xmlns:xlink="http://www.w3.org/1999/xlink" x="0px" y="0px"
	 width="1024px" height="1024px" viewBox="0 0 1024 1024" enable-background="new 0 0 1024 1024" xml:space="preserve">
<path d="M643.721,876.649c-34.793,11.591-71.845,17.851-110.29,17.851c-159.84,0-295.615-108.104-344.682-258.469
	c26.622-15.271,44.681-44.936,44.681-79.029c0-49.706-38.376-90.001-85.714-90.001C100.378,467,62,507.295,62,557.002
	c0,40.839,25.918,75.307,61.419,86.307C176.937,827.776,340.242,962,533.429,962c50.976,0,99.869-9.353,145.22-26.5
	C661.685,920.463,649.233,899.996,643.721,876.649L643.721,876.649z M962,512.001c0-96.576-28.979-186.043-78.298-259.348
	c-10.936,20.134-27.623,36.372-47.713,46.259c38.979,60.896,61.726,134.202,61.726,213.088c0,94.202-32.434,180.448-86.213,247.104
	c1.99,1.558,3.932,3.188,5.815,4.887c-8.632-2.979-17.659-4.495-26.746-4.492c-47.337,0-85.714,40.293-85.714,90
	c0,49.704,38.377,90,85.714,90c47.338,0,85.715-40.296,85.715-90c0.02-17.431-4.804-34.487-13.881-49.081
	C924.578,722.321,962,621.752,962,512.001L962,512.001z M833.431,174.5c0-49.705-38.377-90-85.716-90
	c-16.723,0-32.313,5.046-45.503,13.741C650.415,74.918,593.361,62,533.431,62c-201.28,0-370.144,145.693-416.173,342.12
	c9.888-3.071,20.146-4.627,30.458-4.62c12.495,0,24.488,2.253,35.636,6.381c43.811-159.623,183.955-276.38,350.079-276.38
	c46.042,0,90.088,8.977,130.646,25.343c-1.376,6.452-2.072,13.043-2.076,19.655c0,49.706,38.377,89.999,85.715,89.999
	c47.339,0.002,85.714-40.292,85.714-89.998H833.431z"/>
</svg>
