<svg xmlns="http://www.w3.org/2000/svg" width="1024" height="1024"><path d="M512 62A450 450 0 0 0 62 512 450 450 0 1 0 512 62zm0 832c-213 0-382-175-382-382s169-382 382-382 382 169 382 382-169 382-382 382z"/><path d="M512 185a328 328 0 0 0-327 327c0 180 147 327 327 327s327-147 327-327-147-327-327-327zm195 327a36 36 0 0 1-53 1l-41-41c-23-23-63-6-63 26v211c0 20-16 37-36 37h-3c-20 0-36-17-36-37V498c0-32-39-49-63-25l-41 41a37 37 0 0 1-52-1 37 37 0 0 1 0-50l168-169a36 36 0 0 1 51 0l168 167a37 37 0 0 1 1 51z"/></svg>