<?xml version="1.0" encoding="utf-8"?>
<!-- Generator: Adobe Illustrator 16.0.0, SVG Export Plug-In . SVG Version: 6.00 Build 0)  -->
<!DOCTYPE svg PUBLIC "-//W3C//DTD SVG 1.1//EN" "http://www.w3.org/Graphics/SVG/1.1/DTD/svg11.dtd">
<svg version="1.1" id="图层_1" xmlns="http://www.w3.org/2000/svg" xmlns:xlink="http://www.w3.org/1999/xlink" x="0px" y="0px"
	 width="1024px" height="1024px" viewBox="0 0 1024 1024" enable-background="new 0 0 1024 1024" xml:space="preserve">
<g>
	<path d="M512,62c-248.182,0-450,201.818-450,450c0,248.183,201.817,450,450,450c248.182,0,450-201.817,450-450
		C962,263.819,760.182,62,512,62z M512,893.818c-212.728,0-381.818-174.545-381.818-381.818
		c0-207.272,169.09-381.818,381.818-381.818c212.727,0,381.817,169.091,381.817,381.818
		C893.818,724.727,724.727,893.818,512,893.818L512,893.818z"/>
	<path d="M512,184.728C332,184.728,184.727,332,184.727,512C184.727,692.001,332,839.273,512,839.273
		c180,0,327.272-147.272,327.272-327.273C839.273,332,692,184.728,512,184.728z M706.545,512
		c-13.637,15.455-38.182,16.364-52.728,0.909L612.908,472c-22.727-22.727-62.727-6.364-62.727,25.454v211.818
		c0,20.001-16.364,36.364-36.363,36.364h-2.728c-20,0-36.363-16.363-36.363-36.364V498.364c0-32.728-39.091-49.091-62.728-25.455
		l-40.909,40.91c-14.545,14.545-39.091,14.545-52.727-0.91c-12.727-14.545-12.727-36.363,0.91-50l167.272-169.091
		c14.546-14.545,37.272-14.545,51.818,0l167.272,167.273C719.273,475.636,720.181,497.454,706.545,512z"/>
</g>
</svg>
