<?xml version="1.0" encoding="iso-8859-1"?>
<!-- Generator: Adobe Illustrator 19.0.0, SVG Export Plug-In . SVG Version: 6.00 Build 0)  -->
<svg version="1.1" id="&#x56FE;&#x5C42;_1" xmlns="http://www.w3.org/2000/svg" xmlns:xlink="http://www.w3.org/1999/xlink" x="0px"
	 y="0px" viewBox="0 0 1024 1024" style="enable-background:new 0 0 1024 1024;" xml:space="preserve">
<g id="XMLID_11_">
	<g id="XMLID_363_">
		<g id="XMLID_366_">
			<path id="XMLID_407_" d="M432.507,600.742c-9.762,0-19.524-3.777-26.906-11.332c-14.569-14.863-14.324-38.704,0.54-53.273
				l105.369-103.21c14.667-14.324,38.066-14.324,52.733,0l103.824,101.69c14.863,14.569,15.109,38.41,0.54,53.273
				c-14.52,14.912-38.41,15.109-53.273,0.589l-77.457-75.887l-79.002,77.408C451.541,597.161,442.024,600.742,432.507,600.742z"/>
		</g>
		<g id="XMLID_364_">
			<path id="XMLID_368_" d="M537.091,909.386c-20.799,0-37.674-16.875-37.674-37.674V482.031c0-20.799,16.875-37.674,37.674-37.674
				c20.799,0,37.674,16.875,37.674,37.674v389.682C574.765,892.512,557.89,909.386,537.091,909.386z"/>
		</g>
	</g>
	<g id="XMLID_359_">
		<path id="XMLID_367_" d="M782.829,726.616c-20.799,0-37.674-16.875-37.674-37.674c0-20.799,16.875-37.674,37.674-37.674
			c57.246,0,103.823-43.658,103.823-97.373v-27.323c0-43.56-31.616-82.019-76.868-93.449l-28.844-7.309l0.736-36.055
			c2.085-45.081-17.39-92.566-53.42-130.337c-42.162-44.149-100.341-69.461-159.623-69.461
			c-117.436,0-212.994,90.407-212.994,201.564v37.674H241.171c-57.246,0-103.824,43.658-103.824,97.373v27.323
			c0,53.714,46.577,97.373,103.824,97.373c20.799,0,37.674,16.875,37.674,37.674c0,20.799-16.875,37.674-37.674,37.674
			C142.376,726.616,62,649.11,62,553.895v-27.323c0-95.215,80.376-172.72,179.171-172.72h41.77
			c19.205-134.948,140.001-239.238,285.692-239.238c79.762,0,157.808,33.847,214.122,92.811
			c44.198,46.307,70.442,104.388,73.998,162.37C919.96,397.314,962,458.288,962,526.572v27.323
			C962,649.11,881.624,726.616,782.829,726.616z"/>
	</g>
</g>
</svg>
