<svg xmlns="http://www.w3.org/2000/svg" viewBox="0 0 1024 1024"><path d="M433 601a38 38 0 0 1-27-65l106-103a38 38 0 0 1 52 0l104 102a38 38 0 0 1-53 54l-77-76-79 77a38 38 0 0 1-26 11z"/><path d="M537 909a38 38 0 0 1-38-37V482a38 38 0 0 1 76 0v390a38 38 0 0 1-38 37z"/><path d="M783 727a38 38 0 0 1 0-76c57 0 104-43 104-97v-27c0-44-32-82-77-94l-29-7 1-36c2-45-18-93-54-131a222 222 0 0 0-159-69c-118 0-213 90-213 202v37H241c-57 0-104 44-104 98v27c0 54 47 97 104 97a38 38 0 0 1 0 76c-99 0-179-78-179-173v-27c0-95 80-173 179-173h42a285 285 0 0 1 286-239c79 0 157 34 214 93 44 46 70 104 74 162a172 172 0 0 1 105 157v27c0 95-80 173-179 173z"/></svg>