<svg xmlns="http://www.w3.org/2000/svg" viewBox="370 -413 1024 1024"><path d="M688 165a211 211 0 1 1 0-421 211 211 0 0 1 0 421zm0-337a126 126 0 1 0 0 253 126 126 0 0 0 0-253zm205 627a42 42 0 0 1-42-42 158 158 0 0 0-9-52 42 42 0 1 1 80-27 247 247 0 0 1 13 79 42 42 0 0 1-42 42zm-410 0a42 42 0 0 1-43-42 248 248 0 0 1 248-248c33 0 66 7 96 20a42 42 0 0 1 23 55 42 42 0 0 1-56 23 163 163 0 0 0-226 150 43 43 0 0 1-42 42zm799-572h-226a42 42 0 1 1 0-85h225a42 42 0 1 1 1 85zm0 178h-226a42 42 0 1 1 0-84h225a42 42 0 1 1 1 84zm0 178h-226a42 42 0 1 1 0-84h225a42 42 0 1 1 1 84zm0 179h-226a42 42 0 1 1 0-85h225a42 42 0 1 1 1 85z"/></svg>