<svg xmlns="http://www.w3.org/2000/svg" width="1024" height="1024"><path d="M923 961H598a38 38 0 0 1-37-37V596c0-20 17-36 37-36h327c20 0 37 16 37 36v325a39 39 0 0 1-38 40h-1zm-497 0H101a38 38 0 0 1-36-37V596c0-20 16-36 36-36h328c20 0 36 16 37 36v325a42 42 0 0 1-40 40zm497-497H598a38 38 0 0 1-37-36V100c0-20 16-36 36-37h328c20 1 36 17 37 37v328a38 38 0 0 1-39 36zm-660 0a202 202 0 0 1-142-58 192 192 0 0 1-59-142 196 196 0 0 1 59-142l5-5a201 201 0 0 1 137-54 196 196 0 0 1 141 59c37 38 58 89 59 142a202 202 0 0 1-59 142l-2 2a205 205 0 0 1-139 56z"/></svg>