<?xml version="1.0" encoding="utf-8"?>
<!-- Generator: Adobe Illustrator 16.0.0, SVG Export Plug-In . SVG Version: 6.00 Build 0)  -->
<!DOCTYPE svg PUBLIC "-//W3C//DTD SVG 1.1//EN" "http://www.w3.org/Graphics/SVG/1.1/DTD/svg11.dtd">
<svg version="1.1"
	 id="svg4205" xmlns:dc="http://purl.org/dc/elements/1.1/" xmlns:cc="http://creativecommons.org/ns#" xmlns:rdf="http://www.w3.org/1999/02/22-rdf-syntax-ns#" xmlns:svg="http://www.w3.org/2000/svg" sodipodi:docname="frame.svg" inkscape:version="0.91 r13725" xmlns:sodipodi="http://sodipodi.sourceforge.net/DTD/sodipodi-0.dtd" xmlns:inkscape="http://www.inkscape.org/namespaces/inkscape"
	 xmlns="http://www.w3.org/2000/svg" xmlns:xlink="http://www.w3.org/1999/xlink" x="0px" y="0px" width="1024px" height="1024px"
	 viewBox="0 0 1024 1024" enable-background="new 0 0 1024 1024" xml:space="preserve">
<path d="M922.893,960.768H597.526c-20.057-0.477-36.195-16.616-36.672-36.672V596.35c0.477-20.056,16.615-36.194,36.672-36.667
	h327.797c20.056,0.473,36.195,16.611,36.672,36.667v325.151c0.369,21.328-16.616,38.893-37.994,39.267
	C923.682,960.768,923.313,960.768,922.893,960.768z M426.449,960.768H101.349c-20.056-0.477-36.192-16.616-36.669-36.672V596.35
	c0.477-20.056,16.613-36.194,36.669-36.667h327.749c20.053,0.473,36.193,16.611,36.669,36.667v325.151
	C464.39,942.614,447.564,959.389,426.449,960.768z M922.893,464.328H597.526c-20.057-0.477-36.195-16.616-36.672-36.669V99.91
	c0.477-20.053,16.615-36.193,36.672-36.669h327.797c20.056,0.477,36.195,16.616,36.672,36.669v327.749
	C961.199,448.507,943.789,464.804,922.893,464.328z M262.576,464.328c-53.178-0.105-104.133-21.217-141.81-58.735
	c-38.466-37.038-59.737-88.416-58.732-141.807c-0.531-53.285,20.635-104.505,58.681-141.81l4.919-4.922
	c37.2-34.606,86.146-53.865,136.941-53.813c53.285-0.528,104.505,20.638,141.81,58.681l0,0c37.093,37.992,58.1,88.791,58.682,141.81
	c-0.105,53.178-21.22,104.133-58.682,141.81l-2.435,2.433C364.33,443.798,314.486,463.905,262.576,464.328z"/>
</svg>
