<?xml version="1.0" encoding="utf-8"?>
<!-- Generator: Adobe Illustrator 19.0.0, SVG Export Plug-In . SVG Version: 6.00 Build 0)  -->
<svg version="1.1"
	 id="svg16" inkscape:version="0.92.1 r15371" sodipodi:docname="position.svg" xmlns:inkscape="http://www.inkscape.org/namespaces/inkscape" xmlns:sodipodi="http://sodipodi.sourceforge.net/DTD/sodipodi-0.dtd" xmlns:svg="http://www.w3.org/2000/svg" xmlns:dc="http://purl.org/dc/elements/1.1/" xmlns:rdf="http://www.w3.org/1999/02/22-rdf-syntax-ns#" xmlns:cc="http://creativecommons.org/ns#"
	 xmlns="http://www.w3.org/2000/svg" xmlns:xlink="http://www.w3.org/1999/xlink" x="0px" y="0px" viewBox="370 -412.6 1024 1024"
	 style="enable-background:new 370 -412.6 1024 1024;" xml:space="preserve">
<sodipodi:namedview  inkscape:current-layer="svg16" inkscape:window-maximized="1" inkscape:window-y="-8" inkscape:window-x="-8" inkscape:pageopacity="0" inkscape:window-height="847" inkscape:pageshadow="2" inkscape:window-width="1600" id="namedview18" inkscape:cx="512" guidetolerance="10" inkscape:cy="512" inkscape:zoom="0.23046875" showgrid="false" gridtolerance="10" pagecolor="#ffffff" borderopacity="1" objecttolerance="10" bordercolor="#666666">
	</sodipodi:namedview>
<g>
	<path id="path8" inkscape:connector-curvature="0" d="M687.5,164.9c-116.1,0-210.4-94.3-210.4-210.4s94.3-210.4,210.4-210.4
		s210.4,94.3,210.4,210.4S803.5,164.9,687.5,164.9L687.5,164.9z M687.5-171.7c-69.6,0-126.2,56.7-126.2,126.2S617.9,80.7,687.5,80.7
		c69.6,0,126.2-56.7,126.2-126.2S757-171.7,687.5-171.7z M892.6,454.7c-23.3,0-42.1-18.8-42.1-42.1c0-17.6-2.7-34.9-8.4-51.5
		c-7.4-22,4.5-45.8,26.5-53.2c22-7.4,45.8,4.5,53.2,26.5c8.4,25.2,12.9,51.5,12.9,78.2C934.7,435.9,915.9,454.7,892.6,454.7
		L892.6,454.7z M482.5,454.7c-23.3,0-42.1-18.8-42.1-42.1c0-136.4,110.9-247.3,247.3-247.3c33.4,0,65.8,6.7,96.5,19.8
		c21.3,9.2,31.4,33.9,22.3,55.2c-9.2,21.3-33.9,31.4-55.2,22.3c-20-8.7-41.3-12.9-63.4-12.9c-89.8,0-162.9,73-162.9,162.9
		C524.6,435.9,505.8,454.7,482.5,454.7z M1281.5-117.3h-225.2c-23.3,0-42.1-18.8-42.1-42.1c0-23.3,18.8-42.1,42.1-42.1h225.2
		c23.3,0,42.1,18.8,42.1,42.1C1323.6-136.3,1304.8-117.3,1281.5-117.3z M1281.5,60.9h-225.2c-23.3,0-42.1-18.8-42.1-42.1
		s18.8-42.1,42.1-42.1h225.2c23.3,0,42.1,18.8,42.1,42.1S1304.8,60.9,1281.5,60.9z"/>
	<path id="path10" inkscape:connector-curvature="0" d="M1281.5,239.2h-225.2c-23.3,0-42.1-18.8-42.1-42.1s18.8-42.1,42.1-42.1
		h225.2c23.3,0,42.1,18.8,42.1,42.1S1304.8,239.2,1281.5,239.2z"/>
	<path id="path12" inkscape:connector-curvature="0" d="M1281.5,417.6h-225.2c-23.3,0-42.1-18.8-42.1-42.1
		c0-23.3,18.8-42.1,42.1-42.1h225.2c23.3,0,42.1,18.8,42.1,42.1C1323.6,398.8,1304.8,417.6,1281.5,417.6z"/>
</g>
</svg>
