<svg xmlns="http://www.w3.org/2000/svg" width="1024" height="1024"><path d="M63 64v1l891 891v-1L63 64z"/><path d="M952 63L61 954l4 3L956 66l-4-3z"/><path d="M73 65l-4 4 891 893 4-4L73 65z"/><path d="M211 62c-83 0-151 68-151 151v594c0 84 68 151 151 151h594c84 0 151-67 151-151V213c1-83-67-151-150-151H212zm0 5h594c81 0 146 66 146 146v594c0 81-65 146-146 146H211c-80 0-146-65-146-146V213c0-80 66-146 146-146z"/><path d="M508 109a401 401 0 0 0-400 401 401 401 0 0 0 400 401 401 401 0 0 0 401-401 401 401 0 0 0-401-401zm0 26a375 375 0 1 1 0 750 375 375 0 0 1-374-375c0-207 167-375 375-375z"/><path d="M361 286a77 77 0 0 0-77 76v296a77 77 0 0 0 77 76h295a77 77 0 0 0 77-76V362a77 77 0 0 0-77-76H361zm0 5h295a71 71 0 0 1 72 71v296a71 71 0 0 1-72 71H361a71 71 0 0 1-72-71V362a71 71 0 0 1 72-71z"/><path d="M63 508a3 3 0 1 0 0 5h891a3 3 0 1 0 0-5H63z"/><path d="M703 251H314a65 65 0 0 0-65 65v65h518v-65a65 65 0 0 0-64-65zm-373 97c-9 0-16-6-16-16s7-16 16-16 17 6 17 16-7 16-17 16zm65 0c-10 0-16-6-16-16s6-16 16-16 16 6 16 16-6 16-16 16zm65 0c-10 0-16-6-16-16s6-16 16-16 16 6 16 16-6 16-16 16zM249 704a65 65 0 0 0 65 65h389a65 65 0 0 0 64-65V413H249v291z"/></svg>