<?xml version="1.0" encoding="utf-8"?>
<!-- Generator: Adobe Illustrator 16.0.0, SVG Export Plug-In . SVG Version: 6.00 Build 0)  -->
<!DOCTYPE svg PUBLIC "-//W3C//DTD SVG 1.1//EN" "http://www.w3.org/Graphics/SVG/1.1/DTD/svg11.dtd">
<svg version="1.1"
	 id="svg4205" xmlns:dc="http://purl.org/dc/elements/1.1/" xmlns:cc="http://creativecommons.org/ns#" xmlns:rdf="http://www.w3.org/1999/02/22-rdf-syntax-ns#" xmlns:svg="http://www.w3.org/2000/svg" sodipodi:docname="web.svg" inkscape:version="0.91 r13725" xmlns:sodipodi="http://sodipodi.sourceforge.net/DTD/sodipodi-0.dtd" xmlns:inkscape="http://www.inkscape.org/namespaces/inkscape"
	 xmlns="http://www.w3.org/2000/svg" xmlns:xlink="http://www.w3.org/1999/xlink" x="0px" y="0px" width="1024px" height="1024px"
	 viewBox="0 0 1024 1024" enable-background="new 0 0 1024 1024" xml:space="preserve">
<sodipodi:namedview  id="namedview4306" borderopacity="1" pagecolor="#ffffff" inkscape:cx="512" guidetolerance="10" showgrid="false" bordercolor="#666666" inkscape:cy="512" objecttolerance="10" gridtolerance="10" inkscape:zoom="0.23046875" inkscape:current-layer="svg4205" inkscape:window-maximized="1" inkscape:window-y="0" inkscape:window-x="0" inkscape:window-height="480" inkscape:pageopacity="0" inkscape:window-width="852" inkscape:pageshadow="2">
	</sodipodi:namedview>
<path id="line4290" inkscape:connector-curvature="0" d="M63.303,64.223l-0.732,0.733l890.994,890.993l0.732-0.732L63.303,64.223z"
	/>
<path id="line4292" inkscape:connector-curvature="0" d="M952.099,62.759L61.106,953.752l3.663,3.663L955.762,66.421L952.099,62.759
	z"/>
<path id="line4294" inkscape:connector-curvature="0" d="M72.787,65.304l-3.668,3.659L960.024,962l3.666-3.658L72.787,65.304z"/>
<path id="path4296" inkscape:connector-curvature="0" d="M211.437,62c-83.415,0-151.09,67.674-151.09,151.088v593.998
	c0,83.411,67.675,151.088,151.09,151.088h593.996c83.412,0,151.088-67.677,151.088-151.088V213.088
	C956.521,129.674,888.845,62,805.433,62H211.437z M211.437,67.18h593.996c80.612,0,145.907,65.294,145.907,145.908v593.998
	c0,80.611-65.295,145.907-145.907,145.907H211.437c-80.615,0-145.91-65.296-145.91-145.907V213.088
	C65.527,132.474,130.822,67.18,211.437,67.18z"/>
<path id="path4298" inkscape:connector-curvature="0" d="M508.434,109.267c-221.213,0-400.819,179.605-400.819,400.818
	c0,221.205,179.605,400.821,400.819,400.821c221.214,0,400.819-179.615,400.819-400.821
	C909.253,288.872,729.647,109.267,508.434,109.267z M508.434,135.168c207.215,0,374.919,167.703,374.919,374.917
	c0,207.208-167.704,374.92-374.919,374.92c-207.216,0-374.918-167.712-374.918-374.92
	C133.515,302.871,301.218,135.168,508.434,135.168z"/>
<path id="path4300" inkscape:connector-curvature="0" d="M360.675,285.857c-42.203,0-76.471,34.268-76.471,76.47v295.518
	c0,42.2,34.268,76.471,76.471,76.471h295.52c42.201,0,76.469-34.271,76.469-76.471V362.327c0-42.202-34.268-76.47-76.469-76.47
	H360.675z M360.675,291.037h295.52c39.402,0,71.288,31.887,71.288,71.29v295.518c0,39.4-31.886,71.29-71.288,71.29h-295.52
	c-39.403,0-71.291-31.89-71.291-71.29V362.327C289.385,322.925,321.272,291.037,360.675,291.037z"/>
<path id="line4302" inkscape:connector-curvature="0" d="M62.937,507.496c-1.431-0.02-2.606,1.123-2.626,2.554
	c-0.021,1.431,1.122,2.606,2.553,2.626c0.024,0.001,0.049,0.001,0.074,0h890.994c1.429,0.021,2.605-1.122,2.626-2.553
	s-1.123-2.607-2.554-2.627c-0.024,0-0.049,0-0.072,0H62.937z"/>
<path id="path4304" d="M702.691,251.077H314.177c-35.614,0-64.752,29.139-64.752,64.752v64.752h518.02v-64.752
	C767.444,280.216,738.305,251.077,702.691,251.077z M330.365,348.205c-9.713,0-16.188-6.475-16.188-16.188
	s6.475-16.188,16.188-16.188s16.188,6.475,16.188,16.188S340.077,348.205,330.365,348.205z M395.117,348.205
	c-9.713,0-16.188-6.475-16.188-16.188s6.475-16.188,16.188-16.188s16.188,6.475,16.188,16.188S404.83,348.205,395.117,348.205z
	 M459.869,348.205c-9.713,0-16.188-6.475-16.188-16.188s6.475-16.188,16.188-16.188s16.188,6.475,16.188,16.188
	S469.582,348.205,459.869,348.205z M249.424,704.344c0,35.614,29.139,64.753,64.752,64.753h388.514
	c35.614,0,64.753-29.139,64.753-64.753V412.958h-518.02V704.344z"/>
</svg>
