<?xml version="1.0" encoding="UTF-8" standalone="no"?>
<svg
   xmlns:dc="http://purl.org/dc/elements/1.1/"
   xmlns:cc="http://creativecommons.org/ns#"
   xmlns:rdf="http://www.w3.org/1999/02/22-rdf-syntax-ns#"
   xmlns:svg="http://www.w3.org/2000/svg"
   xmlns="http://www.w3.org/2000/svg"
   xmlns:sodipodi="http://sodipodi.sourceforge.net/DTD/sodipodi-0.dtd"
   xmlns:inkscape="http://www.inkscape.org/namespaces/inkscape"
   t="1490342744026"
   class="icon"
   viewBox="0 0 1024 870.9103"
   version="1.1"
   p-id="1045"
   width="1024"
   height="1024"
   id="svg4140"
   inkscape:version="0.91 r13725"
   sodipodi:docname="wechat.svg">
  <metadata
     id="metadata4150">
    <rdf:RDF>
      <cc:Work
         rdf:about="">
        <dc:format>image/svg+xml</dc:format>
        <dc:type
           rdf:resource="http://purl.org/dc/dcmitype/StillImage" />
        <dc:title></dc:title>
      </cc:Work>
    </rdf:RDF>
  </metadata>
  <sodipodi:namedview
     pagecolor="#ffffff"
     bordercolor="#666666"
     borderopacity="1"
     objecttolerance="10"
     gridtolerance="10"
     guidetolerance="10"
     inkscape:pageopacity="0"
     inkscape:pageshadow="2"
     inkscape:window-width="1920"
     inkscape:window-height="1027"
     id="namedview4148"
     showgrid="false"
     inkscape:zoom="0.19601329"
     inkscape:cx="-663.94068"
     inkscape:cy="602"
     inkscape:window-x="1592"
     inkscape:window-y="-8"
     inkscape:window-maximized="1"
     inkscape:current-layer="svg4140" />
  <defs
     id="defs4142">
    <style
       type="text/css"
       id="style4144" />
  </defs>
  <path
     d="m 782.87634,485.76409 c -21.49695,0 -39.00466,-17.87377 -39.00466,-40.05913 0,-22.06061 17.50862,-39.93438 39.00466,-39.93438 21.49786,0 39.00192,17.87377 39.00192,39.93438 0,22.18536 -17.50315,40.05913 -39.00192,40.05913 m -200.6197,0 c -21.50151,0 -39.00466,-17.87377 -39.00466,-40.05913 0,-22.06061 17.50406,-39.93438 39.00466,-39.93438 21.49331,0 38.99737,17.87377 38.99737,39.93438 0,22.18536 -17.50406,40.05913 -38.99737,40.05913 M 962,542.66711 C 962,413.25008 848.37976,307.28594 704.3744,298.1501 c -6.73919,-0.37334 -13.49205,-0.63194 -20.24126,-0.63194 -153.50451,0 -277.88051,109.774 -277.88051,245.14895 0,20.41428 2.87925,40.18387 8.24802,59.07111 29.87155,106.87017 139.24576,186.09151 269.63158,186.09151 44.36979,0 86.23913,-9.13493 123.3607,-25.48712 l 62.37558,43.22703 c 0,0 16.62991,11.78653 15.00726,-10.90602 L 867.2506,726.97843 C 925.38106,682.10507 962,616.18548 962,542.66711 M 258.63318,266.96821 c -21.51061,0 -39.00283,-17.86284 -39.00283,-39.92436 0,-22.18081 17.49313,-40.05458 39.00283,-40.05458 21.61715,0 38.99828,17.87377 38.99828,40.05458 9.1e-4,22.06061 -17.38113,39.92436 -38.99828,39.92436 m 245.61688,-79.97894 c 21.51061,0 39.00192,17.87377 39.00192,40.05458 0,22.06152 -17.49131,39.92436 -39.00192,39.92436 -21.61897,0 -39.00284,-17.86284 -39.00284,-39.92436 -9.1e-4,-22.18081 17.38387,-40.05458 39.00284,-40.05458 m 179.88399,90.11369 c 5.99252,0 11.86302,0.26316 17.74901,0.52177 C 679.00385,140.58887 545.25252,35.3705 383.63111,35.3705 206.00717,35.3705 62,162.52474 62,319.19086 c 0,87.3437 44.75223,165.42226 115.00432,217.52197 l -23.75701,90.88585 c 0,0 -8.1169,30.1666 22.63244,16.61535 l 88.62485,-61.36396 c 36.8739,13.05863 77.00039,20.28954 119.12651,20.28954 3.6241,0 7.11708,-0.25861 10.61826,-0.25861 -5.12565,-19.3999 -7.87196,-39.55102 -7.87196,-60.21025 0,-146.4048 133.6202,-265.56779 297.75664,-265.56779"
     p-id="1046"
     id="path4146"
     inkscape:connector-curvature="0" />
</svg>
