<svg xmlns="http://www.w3.org/2000/svg" class="icon" viewBox="0 0 1024 871" version="1.1" width="1024" height="1024" id="svg4140"><defs id="defs4142"><style type="text/css" id="style4144"/></defs><path d="M783 486c-22 0-39-18-39-40s17-40 39-40 39 18 39 40-18 40-39 40m-201 0c-21 0-39-18-39-40s18-40 39-40c22 0 39 18 39 40s-17 40-39 40m380 57c0-130-114-236-258-245h-20c-153 0-278 109-278 245 0 20 3 40 9 59 29 107 139 186 269 186 45 0 86-9 124-26l62 44s16 11 15-11l-18-68c58-45 95-111 95-184M259 267c-22 0-39-18-39-40s17-40 39-40c21 0 39 18 39 40s-18 40-39 40m245-80c22 0 39 18 39 40s-17 40-39 40c-21 0-39-18-39-40s18-40 39-40m180 90l18 1C679 141 545 35 384 35 206 35 62 163 62 319c0 87 45 166 115 218l-24 91s-8 30 23 16l88-61c37 13 78 20 120 20h10a235 235 0 0 1-8-60c0-147 134-266 298-266" id="path4146"/></svg>