<?xml version="1.0" encoding="utf-8"?>
<!-- Generator: Adobe Illustrator 16.0.0, SVG Export Plug-In . SVG Version: 6.00 Build 0)  -->
<!DOCTYPE svg PUBLIC "-//W3C//DTD SVG 1.1//EN" "http://www.w3.org/Graphics/SVG/1.1/DTD/svg11.dtd">
<svg version="1.1" id="图层_1" xmlns="http://www.w3.org/2000/svg" xmlns:xlink="http://www.w3.org/1999/xlink" x="0px" y="0px"
	 width="1024px" height="1024px" viewBox="0 0 1024 1024" enable-background="new 0 0 1024 1024" xml:space="preserve">
<path d="M915.444,961.995H729.238c-25.71,0-46.552-20.839-46.552-46.549c0-25.715,20.842-46.555,46.552-46.555h73.821
	L571.635,637.463l0.05-0.05c-8.102-8.376-13.138-19.744-13.138-32.314c0-25.712,20.84-46.554,46.555-46.554
	c12.575,0,23.938,5.038,32.314,13.14l0.052-0.052l231.426,231.422v-73.823c0-25.705,20.84-46.55,46.552-46.55
	c25.713,0,46.555,20.845,46.555,46.55v186.212C961.995,941.156,941.156,961.995,915.444,961.995L915.444,961.995z M915.444,341.313
	c-25.712,0-46.555-20.842-46.555-46.558v-73.817L637.466,452.361l-0.053-0.051c-8.375,8.103-19.743,13.139-32.313,13.139
	c-25.715,0-46.555-20.842-46.555-46.555c0-12.57,5.036-23.937,13.138-32.313l-0.05-0.053l231.424-231.42h-73.821
	c-25.71,0-46.553-20.842-46.553-46.553c0-25.713,20.84-46.555,46.553-46.555h186.203c25.713,0,46.555,20.842,46.555,46.555v186.201
	C961.995,320.474,941.154,341.313,915.444,341.313L915.444,341.313z M452.361,637.467L220.937,868.891h73.82
	c25.713,0,46.556,20.84,46.556,46.555S320.47,962,294.757,962H108.555C82.843,962,62,941.161,62,915.446V729.238
	c0-25.707,20.842-46.549,46.555-46.549c25.711,0,46.553,20.842,46.553,46.549v73.821l231.421-231.42l0.053,0.052
	c8.374-8.1,19.743-13.138,32.313-13.138c25.711,0,46.553,20.845,46.553,46.555c0,12.572-5.035,23.938-13.137,32.313L452.361,637.467
	L452.361,637.467z M418.897,465.449c-12.576,0-23.939-5.037-32.313-13.139l-0.053,0.051L155.109,220.939v73.817
	c0,25.716-20.842,46.558-46.553,46.558C82.843,341.313,62,320.471,62,294.756V108.555C62,82.844,82.843,62,108.555,62h186.202
	c25.713,0,46.556,20.845,46.556,46.555s-20.842,46.555-46.556,46.555h-73.82l231.424,231.42l-0.051,0.05
	c8.103,8.377,13.14,19.746,13.14,32.316C465.448,444.608,444.606,465.449,418.897,465.449L418.897,465.449z"/>
</svg>
