<?xml version="1.0" encoding="utf-8"?>
<!-- Generator: Adobe Illustrator 16.0.0, SVG Export Plug-In . SVG Version: 6.00 Build 0)  -->
<!DOCTYPE svg PUBLIC "-//W3C//DTD SVG 1.1//EN" "http://www.w3.org/Graphics/SVG/1.1/DTD/svg11.dtd">
<svg version="1.1" id="图层_1" xmlns="http://www.w3.org/2000/svg" xmlns:xlink="http://www.w3.org/1999/xlink" x="0px" y="0px"
	 width="1024px" height="1024px" viewBox="0 0 1024 1024" enable-background="new 0 0 1024 1024" xml:space="preserve">
<path fill="#333333" d="M943.254,822.506L781.523,660.737c-11.536-11.483-27.441-18.583-45.006-18.583
	c-11.067,0-21.477,2.818-30.55,7.777l-30.373-30.873c46.306-57.844,74.313-132.086,74.313-212.87c0-0.088,0-0.176,0-0.264
	C749.906,215.952,595.921,62,405.971,62S62,215.916,62,405.903c0,189.986,153.951,343.938,343.935,343.938c0.047,0,0.103,0,0.157,0
	c80.791,0,155.049-27.976,213.612-74.771l30.021,31.235c-4.744,8.709-7.531,19.074-7.531,30.089c0,17.589,7.108,33.515,18.61,45.065
	L822.5,943.226C834.081,954.824,850.088,962,867.771,962s33.69-7.175,45.27-18.772l30.182-30.146
	C954.823,901.49,962,885.47,962,867.776c0-17.678-7.161-33.684-18.744-45.271L943.254,822.506z M125.584,405.904
	c0-154.863,125.488-280.317,280.35-280.317c154.862,0,280.352,125.455,280.352,280.317c0,154.862-125.488,280.317-280.352,280.317
	C251.073,686.22,125.584,560.766,125.584,405.904L125.584,405.904z"/>
<path fill="#333333" d="M440.987,230.639h-70.105v140.21H230.672v70.106h140.209v140.211h70.105V440.956h140.21V370.85h-140.21
	V230.639z"/>
</svg>
