<svg xmlns="http://www.w3.org/2000/svg" class="icon" width="16" height="16" viewBox="0 0 1024 1024">
    <path fill="#515151" d="M915 962H729a47 47 0 1 1 0-93h74L572 638a46 46 0 0 1 33-79c13 0 24 5 32 13l232 231v-74a47 47 0 0 1 93 0v186a47 47 0 0 1-46 47zm0-621a47 47 0 0 1-46-46v-74L638 452a46 46 0 0 1-79-33c0-13 5-24 13-32l231-232h-74a47 47 0 0 1 0-93h186a47 47 0 0 1 47 47v186a47 47 0 0 1-47 46zM452 637L221 870h74a47 47 0 1 1 0 93H109a47 47 0 0 1-47-47V729a47 47 0 0 1 93 0v74l232-231a46 46 0 0 1 79 33c0 13-5 24-14 32zm-33-171c-13 0-24-5-32-14L155 221v74a47 47 0 1 1-93 0V109a47 47 0 0 1 47-47h186a47 47 0 0 1 0 93h-74l231 232a46 46 0 0 1-33 79z" />
</svg>